<?xml version="1.0" standalone="no"?>
<!DOCTYPE svg PUBLIC "-//W3C//DTD SVG 20010904//EN"
 "http://www.w3.org/TR/2001/REC-SVG-20010904/DTD/svg10.dtd">
<svg version="1.0" xmlns="http://www.w3.org/2000/svg"
 width="1072.000000pt" height="992.000000pt" viewBox="0 0 1072.000000 992.000000"
 preserveAspectRatio="xMidYMid meet">

<g transform="translate(0.000000,992.000000) scale(0.100000,-0.100000)"
fill="#000000" stroke="none">
<path d="M4060 8522 c-50 -50 -43 -69 83 -253 148 -215 387 -557 627 -899 106
-151 219 -311 249 -355 79 -113 318 -454 712 -1013 229 -325 320 -454 384
-547 31 -44 105 -150 166 -235 61 -85 146 -207 190 -270 90 -129 415 -591 589
-835 240 -338 287 -405 388 -550 58 -82 182 -258 277 -390 193 -271 242 -340
538 -760 117 -165 231 -325 254 -355 113 -145 299 -401 329 -454 37 -62 64
-148 64 -202 0 -80 -46 -135 -140 -167 l-65 -22 -3675 -5 -3675 -5 0 -85 0
-85 3615 -3 c2620 -2 3637 0 3695 8 124 18 257 65 309 112 91 79 128 227 93
364 -35 134 -91 229 -292 492 -55 72 -168 227 -251 344 -83 117 -224 317 -314
443 -90 127 -205 289 -255 360 -51 72 -164 231 -251 355 -88 124 -167 236
-177 250 -28 41 -127 180 -209 296 -43 60 -135 190 -205 289 -69 99 -179 254
-243 345 -64 91 -192 273 -285 405 -93 132 -198 282 -234 332 -89 125 -207
293 -351 498 -65 94 -226 322 -357 508 -131 186 -270 384 -309 440 -39 56
-112 161 -163 232 -109 154 -371 526 -421 599 -148 214 -516 735 -531 752 -11
11 -19 25 -19 30 0 19 -45 54 -78 60 -26 5 -36 1 -62 -24z"/>
</g>
</svg>
