<?xml version="1.0" standalone="no"?>
<!DOCTYPE svg PUBLIC "-//W3C//DTD SVG 20010904//EN"
 "http://www.w3.org/TR/2001/REC-SVG-20010904/DTD/svg10.dtd">
<svg version="1.0" xmlns="http://www.w3.org/2000/svg"
 width="1072.000000pt" height="992.000000pt" viewBox="0 0 1072.000000 992.000000"
 preserveAspectRatio="xMidYMid meet">

<g transform="translate(0.000000,992.000000) scale(0.100000,-0.100000)"
fill="#000000" stroke="none">
<path d="M6580 8543 c-21 -8 -60 -44 -60 -57 0 -5 -8 -19 -19 -30 -15 -17
-383 -538 -531 -752 -50 -73 -312 -445 -421 -599 -51 -71 -124 -176 -163 -232
-39 -56 -178 -254 -309 -440 -131 -186 -292 -414 -357 -508 -144 -205 -262
-373 -351 -498 -36 -50 -141 -200 -234 -332 -93 -132 -221 -314 -285 -405 -64
-91 -174 -246 -243 -345 -70 -99 -162 -229 -205 -289 -82 -116 -181 -255 -209
-296 -10 -14 -89 -126 -177 -250 -87 -124 -200 -283 -251 -355 -50 -71 -165
-233 -255 -360 -90 -126 -231 -326 -314 -443 -83 -117 -196 -272 -251 -344
-201 -263 -257 -358 -292 -492 -35 -137 2 -285 93 -364 52 -47 185 -94 309
-112 58 -8 1075 -10 3695 -8 l3615 3 0 85 0 85 -3675 5 -3675 5 -65 22 c-94
32 -140 87 -140 167 0 54 27 140 64 202 30 53 216 309 329 454 23 30 137 190
254 355 296 420 345 489 538 760 95 132 219 308 277 390 101 145 148 212 388
550 174 244 499 706 589 835 44 63 129 185 190 270 61 85 135 191 166 235 64
93 155 222 384 547 394 559 633 900 712 1013 30 44 143 204 249 355 624 888
740 1058 740 1092 0 53 -62 99 -110 81z"/>
</g>
</svg>
