<?xml version="1.0" standalone="no"?>
<!DOCTYPE svg PUBLIC "-//W3C//DTD SVG 20010904//EN"
 "http://www.w3.org/TR/2001/REC-SVG-20010904/DTD/svg10.dtd">
<svg version="1.0" xmlns="http://www.w3.org/2000/svg"
 width="1104.000000pt" height="960.000000pt" viewBox="0 0 1104.000000 960.000000"
 preserveAspectRatio="xMidYMid meet">

<g transform="translate(0.000000,960.000000) scale(0.100000,-0.100000)"
fill="#000000" stroke="none">
<path d="M5405 7136 c-7 -6 -91 -166 -188 -356 -491 -969 -661 -1307 -1317
-2605 -421 -832 -624 -1234 -751 -1481 -66 -127 -119 -234 -119 -238 0 -4 52
-5 116 -4 l116 3 54 104 c30 58 228 449 440 870 213 421 390 771 394 776 7 9
108 209 725 1430 125 248 231 455 235 460 4 6 96 187 206 403 109 215 201 392
204 392 3 0 77 -141 164 -312 88 -172 267 -522 399 -778 132 -256 256 -499
277 -540 66 -133 341 -672 390 -765 26 -49 123 -238 215 -420 241 -475 445
-875 627 -1230 88 -170 169 -329 181 -353 l22 -42 112 0 c62 0 113 3 113 6 0
4 -69 140 -153 303 -85 163 -198 384 -252 491 -96 192 -214 423 -445 875 -65
127 -191 374 -280 550 -89 176 -197 388 -240 470 -42 83 -146 285 -230 450
-247 486 -389 763 -450 880 -31 61 -119 232 -195 380 -76 149 -141 273 -144
277 -11 12 -211 15 -226 4z"/>
</g>
</svg>
