<?xml version="1.0" standalone="no"?>
<!DOCTYPE svg PUBLIC "-//W3C//DTD SVG 20010904//EN"
 "http://www.w3.org/TR/2001/REC-SVG-20010904/DTD/svg10.dtd">
<svg version="1.0" xmlns="http://www.w3.org/2000/svg"
 width="1104.000000pt" height="960.000000pt" viewBox="0 0 1104.000000 960.000000"
 preserveAspectRatio="xMidYMid meet">

<g transform="translate(0.000000,960.000000) scale(0.100000,-0.100000)"
fill="#000000" stroke="none">
<path d="M3030 7144 c0 -4 53 -111 119 -238 127 -247 330 -649 751 -1481 656
-1298 826 -1636 1317 -2605 97 -190 181 -350 188 -356 15 -11 215 -8 226 4 3
4 68 129 144 277 76 149 164 320 195 380 61 117 203 394 450 880 84 165 188
368 230 450 43 83 151 294 240 470 89 176 215 424 280 550 231 452 349 683
445 875 54 107 167 328 252 491 84 163 153 299 153 303 0 3 -51 6 -113 6
l-112 0 -22 -42 c-12 -24 -93 -182 -181 -353 -182 -355 -386 -755 -627 -1230
-92 -181 -189 -370 -215 -420 -49 -93 -324 -632 -390 -765 -21 -41 -145 -284
-277 -540 -132 -256 -311 -606 -399 -777 -87 -172 -161 -313 -164 -313 -3 0
-95 177 -204 393 -110 215 -202 397 -206 402 -4 6 -110 213 -235 460 -617
1221 -718 1421 -725 1430 -4 6 -181 355 -394 776 -212 421 -410 812 -440 870
l-54 104 -116 3 c-64 1 -116 0 -116 -4z"/>
</g>
</svg>
