<?xml version="1.0" standalone="no"?>
<!DOCTYPE svg PUBLIC "-//W3C//DTD SVG 20010904//EN"
 "http://www.w3.org/TR/2001/REC-SVG-20010904/DTD/svg10.dtd">
<svg version="1.0" xmlns="http://www.w3.org/2000/svg"
 width="672.000000pt" height="1247.000000pt" viewBox="0 0 672.000000 1247.000000"
 preserveAspectRatio="xMidYMid meet">

<g transform="translate(0.000000,1247.000000) scale(0.100000,-0.100000)"
fill="#000000" stroke="none">
<path d="M3228 11994 c-29 -14 -59 -41 -74 -64 -16 -25 -43 -48 -68 -59 -96
-43 -136 -125 -144 -298 -6 -136 5 -212 69 -503 65 -292 76 -349 94 -505 40
-342 1 -680 -156 -1380 -197 -874 -297 -1394 -364 -1890 -14 -104 -59 -491
-100 -860 -101 -908 -163 -1457 -175 -1530 -5 -33 -19 -145 -31 -250 -16 -146
-28 -207 -49 -265 -112 -298 -341 -1089 -460 -1595 -103 -434 -125 -578 -125
-820 0 -209 6 -248 56 -385 154 -422 627 -793 1274 -999 326 -104 597 -146
935 -146 204 0 250 3 347 23 143 29 245 63 356 118 113 56 167 93 236 164 151
153 194 312 194 720 1 318 -19 516 -107 1080 -57 363 -77 537 -121 1058 -34
400 -54 539 -105 712 -10 36 -26 139 -35 230 -8 91 -31 293 -50 450 -50 412
-60 541 -85 1095 -13 272 -49 790 -90 1290 -16 198 -36 466 -44 595 -15 230
-21 339 -51 960 -25 504 -54 793 -121 1200 -102 626 -254 1087 -457 1387 -58
86 -78 126 -87 170 -23 109 -30 128 -59 175 -79 125 -281 186 -403 122z m230
-110 c66 -32 107 -86 116 -151 14 -99 37 -152 113 -265 243 -361 412 -969 507
-1831 28 -247 39 -403 61 -872 27 -566 46 -867 85 -1345 52 -629 80 -1045 95
-1375 22 -477 40 -706 85 -1075 44 -361 43 -353 31 -345 -6 3 -18 21 -27 38
-32 62 -153 214 -227 284 -154 146 -318 236 -537 295 -73 19 -111 22 -260 23
-181 0 -215 -5 -362 -51 -276 -86 -549 -295 -716 -546 -29 -45 -43 -49 -37
-10 22 124 72 550 185 1572 50 448 99 885 110 970 64 497 144 926 310 1670
199 892 233 1107 233 1445 0 242 -19 380 -98 735 -72 324 -77 358 -78 475 0
109 20 201 50 227 10 8 35 21 55 27 27 9 45 25 68 60 55 86 126 100 238 45z
m247 -6700 c297 -61 541 -229 726 -501 79 -116 127 -221 169 -369 54 -187 76
-325 105 -674 49 -574 71 -770 135 -1170 109 -689 128 -1147 59 -1419 -40
-158 -146 -274 -334 -368 -195 -98 -490 -154 -735 -139 -566 35 -1079 193
-1475 454 -433 285 -639 637 -610 1047 21 311 195 1048 436 1850 168 556 234
694 434 904 310 325 704 464 1090 385z"/>
</g>
</svg>
