<?xml version="1.0" standalone="no"?>
<!DOCTYPE svg PUBLIC "-//W3C//DTD SVG 20010904//EN"
 "http://www.w3.org/TR/2001/REC-SVG-20010904/DTD/svg10.dtd">
<svg version="1.0" xmlns="http://www.w3.org/2000/svg"
 width="672.000000pt" height="1247.000000pt" viewBox="0 0 672.000000 1247.000000"
 preserveAspectRatio="xMidYMid meet">

<g transform="translate(0.000000,1247.000000) scale(0.100000,-0.100000)"
fill="#000000" stroke="none">
<path d="M3337 12119 c-118 -28 -272 -148 -401 -314 -459 -586 -650 -1671
-748 -4235 -17 -446 -16 -1490 2 -1990 19 -544 20 -1260 1 -1434 -14 -126 -16
-133 -76 -260 -103 -216 -279 -703 -361 -996 -44 -158 -84 -368 -96 -504 -38
-418 118 -761 523 -1151 298 -287 546 -479 819 -634 329 -187 553 -195 835
-29 306 180 695 471 919 688 252 245 347 427 363 696 13 234 -46 546 -166 881
-123 342 -410 969 -556 1218 -62 105 -101 230 -219 716 -269 1100 -426 2113
-466 2999 -32 724 -50 2484 -31 3030 21 587 25 978 12 1055 -23 132 -73 207
-166 251 -53 25 -117 30 -188 13z m198 -93 c22 -17 47 -50 62 -83 36 -79 48
-283 33 -603 -24 -543 -31 -1286 -20 -2045 23 -1624 42 -1975 150 -2745 89
-627 266 -1499 425 -2091 25 -92 45 -171 45 -174 0 -4 -34 25 -76 64 -167 156
-382 269 -604 317 -117 26 -391 26 -506 2 -167 -37 -319 -102 -463 -201 -76
-52 -229 -196 -290 -272 l-31 -40 7 100 c12 157 7 778 -12 1400 -30 986 -11
2048 56 3060 98 1504 244 2287 521 2805 73 137 141 233 238 333 149 156 245
210 361 205 55 -3 73 -8 104 -32z m-23 -7420 c238 -46 499 -190 658 -364 99
-108 195 -261 311 -497 308 -632 460 -1022 536 -1385 23 -109 27 -150 27 -315
1 -217 -8 -267 -73 -400 -70 -142 -169 -260 -365 -432 -280 -246 -736 -563
-925 -643 -179 -76 -355 -64 -560 39 -299 151 -621 401 -947 732 -236 241
-360 433 -421 654 -25 92 -28 114 -28 275 1 262 48 483 199 935 154 460 289
766 406 924 184 249 459 425 743 476 99 18 347 18 439 1z"/>
</g>
</svg>
