<?xml version="1.0" standalone="no"?>
<!DOCTYPE svg PUBLIC "-//W3C//DTD SVG 20010904//EN"
 "http://www.w3.org/TR/2001/REC-SVG-20010904/DTD/svg10.dtd">
<svg version="1.0" xmlns="http://www.w3.org/2000/svg"
 width="672.000000pt" height="1247.000000pt" viewBox="0 0 672.000000 1247.000000"
 preserveAspectRatio="xMidYMid meet">

<g transform="translate(0.000000,1247.000000) scale(0.100000,-0.100000)"
fill="#000000" stroke="none">
<path d="M3585 11906 c-93 -29 -238 -154 -310 -269 -17 -26 -33 -47 -36 -47
-3 0 -18 29 -34 65 -91 216 -273 245 -432 71 -86 -94 -144 -264 -177 -516 -33
-251 -39 -500 -30 -1235 11 -848 10 -938 -17 -1390 -74 -1294 -205 -2528 -400
-3775 -59 -378 -75 -463 -95 -500 -73 -134 -220 -444 -273 -576 -153 -383
-279 -817 -328 -1134 -26 -168 -23 -397 6 -515 68 -281 188 -464 525 -800 372
-371 642 -594 906 -747 173 -101 334 -158 445 -158 274 0 873 379 1351 855
469 467 619 826 550 1315 -71 499 -333 1208 -643 1737 -47 81 -58 111 -97 270
-242 973 -413 2081 -500 3238 -49 642 -56 1098 -27 1880 40 1062 38 1918 -4
2041 -25 75 -81 143 -144 176 -44 23 -65 28 -125 27 -39 0 -89 -6 -111 -13z
m158 -77 c53 -14 101 -60 127 -121 21 -47 25 -78 33 -268 12 -282 2 -1092 -19
-1595 -21 -492 -24 -1365 -6 -1650 69 -1085 189 -2042 363 -2910 50 -247 140
-651 155 -690 4 -11 -40 25 -97 81 -289 281 -583 417 -929 431 -171 7 -299
-10 -450 -60 -235 -77 -494 -253 -655 -445 -33 -39 -61 -68 -63 -63 -1 4 22
167 52 362 180 1163 315 2451 386 3684 19 341 53 605 131 1028 141 771 326
1466 474 1783 61 131 135 241 212 316 70 67 109 92 178 114 50 16 61 16 108 3z
m-704 -95 c35 -21 67 -68 98 -146 38 -92 34 -134 -19 -263 -70 -166 -161 -466
-243 -800 -90 -366 -128 -546 -202 -955 -6 -36 -9 -13 -14 110 -11 260 -10
1034 1 1230 18 321 64 565 128 685 67 123 175 184 251 139z m477 -6729 c247
-43 486 -170 688 -365 175 -169 290 -338 461 -679 269 -539 459 -1126 495
-1531 34 -396 -135 -741 -571 -1165 -433 -420 -970 -767 -1224 -792 -169 -16
-447 121 -771 378 -219 175 -620 555 -762 724 -198 235 -291 444 -308 692 -33
481 347 1635 706 2145 94 134 272 309 398 392 155 102 324 172 485 201 100 18
297 18 403 0z"/>
</g>
</svg>
