<?xml version="1.0" standalone="no"?>
<!DOCTYPE svg PUBLIC "-//W3C//DTD SVG 20010904//EN"
 "http://www.w3.org/TR/2001/REC-SVG-20010904/DTD/svg10.dtd">
<svg version="1.0" xmlns="http://www.w3.org/2000/svg"
 width="672.000000pt" height="1247.000000pt" viewBox="0 0 672.000000 1247.000000"
 preserveAspectRatio="xMidYMid meet">

<g transform="translate(0.000000,1247.000000) scale(0.100000,-0.100000)"
fill="#000000" stroke="none">
<path d="M2905 11740 c-74 -12 -158 -46 -217 -91 -142 -106 -217 -281 -240
-559 -12 -136 -10 -195 32 -985 30 -566 41 -1727 20 -2165 -19 -386 -65 -861
-136 -1395 -76 -572 -236 -1677 -260 -1795 -33 -166 -83 -313 -189 -555 -315
-719 -470 -1249 -491 -1680 -12 -233 31 -472 121 -682 218 -509 786 -968 1382
-1119 386 -98 750 -46 1160 166 225 116 395 238 566 408 264 260 409 516 478
839 27 124 36 369 20 514 -14 125 -71 410 -106 534 -79 277 -219 666 -342 955
-157 366 -190 466 -299 899 -206 815 -341 1693 -629 4072 -130 1073 -169 1361
-246 1829 -51 303 -87 451 -139 558 -95 198 -264 286 -485 252z m258 -98 c97
-48 162 -135 211 -282 64 -193 165 -855 301 -1975 280 -2306 390 -3088 535
-3797 80 -398 208 -916 242 -980 21 -42 -12 -10 -77 74 -38 49 -111 129 -161
177 -509 483 -1133 530 -1676 125 -108 -80 -255 -223 -338 -329 -52 -66 -62
-75 -57 -50 3 17 13 62 22 100 8 39 62 399 120 800 163 1141 198 1417 239
1860 45 491 51 640 50 1380 0 702 -8 995 -44 1655 -33 587 -25 791 34 962 44
125 122 220 225 273 72 36 113 44 216 42 80 -2 98 -6 158 -35z m358 -6471
c316 -70 612 -275 845 -583 169 -225 281 -460 478 -1006 112 -311 207 -670
237 -902 16 -122 16 -363 0 -464 -63 -392 -286 -750 -646 -1036 -252 -200
-573 -356 -867 -422 -145 -32 -406 -32 -552 0 -382 85 -828 339 -1086 619
-430 468 -532 937 -360 1653 82 337 279 879 436 1195 253 511 689 881 1123
955 93 16 301 11 392 -9z"/>
</g>
</svg>
