<?xml version="1.0" standalone="no"?>
<!DOCTYPE svg PUBLIC "-//W3C//DTD SVG 20010904//EN"
 "http://www.w3.org/TR/2001/REC-SVG-20010904/DTD/svg10.dtd">
<svg version="1.0" xmlns="http://www.w3.org/2000/svg"
 width="672.000000pt" height="1247.000000pt" viewBox="0 0 672.000000 1247.000000"
 preserveAspectRatio="xMidYMid meet">

<g transform="translate(0.000000,1247.000000) scale(0.100000,-0.100000)"
fill="#000000" stroke="none">
<path d="M2745 10922 c-91 -28 -145 -59 -205 -122 -106 -109 -172 -260 -210
-484 -54 -316 -53 -497 5 -1331 16 -223 19 -322 9 -313 -8 9 -77 378 -155 836
-71 420 -110 580 -175 721 -46 99 -92 154 -159 187 -48 23 -64 26 -120 22
-180 -15 -327 -199 -449 -560 -165 -488 -247 -1124 -233 -1798 10 -423 35
-728 98 -1160 91 -630 120 -1027 120 -1645 0 -391 -16 -742 -46 -1028 -13
-120 -19 -148 -44 -191 -165 -293 -307 -803 -341 -1220 -49 -617 81 -1164 391
-1641 217 -335 476 -558 799 -689 155 -63 346 -73 469 -23 138 56 197 102 456
356 191 187 262 242 356 274 l59 20 179 -121 c487 -330 811 -503 1025 -548 90
-19 272 -19 363 0 455 95 883 592 1038 1206 107 420 108 860 5 1405 -70 367
-199 759 -327 991 -65 119 -110 369 -182 1019 -42 371 -69 853 -81 1440 -18
880 -51 1247 -151 1703 -175 794 -479 1389 -987 1931 -339 362 -784 666 -1098
751 -113 31 -326 37 -409 12z m291 -103 c80 -14 202 -54 299 -99 67 -30 345
-196 345 -205 0 -1 -39 -3 -87 -2 -147 0 -236 -51 -292 -166 -80 -162 -60
-373 104 -1092 122 -538 161 -874 152 -1292 -8 -364 -56 -645 -167 -983 -99
-299 -186 -470 -240 -470 -10 0 -37 21 -62 48 -131 141 -348 646 -512 1192
-94 314 -85 253 -106 795 -6 143 -22 427 -37 630 -36 508 -37 875 -4 1059 64
362 156 518 340 577 64 20 178 24 267 8z m675 -438 c157 -54 319 -171 507
-366 573 -596 915 -1431 1012 -2470 11 -121 25 -357 31 -525 5 -168 16 -514
24 -770 22 -678 81 -1395 148 -1782 7 -43 10 -78 6 -78 -4 0 -24 20 -44 44
-86 106 -298 244 -483 317 -221 86 -393 114 -707 114 -243 0 -278 -4 -635 -62
-141 -23 -265 -36 -360 -40 -132 -5 -162 -2 -330 27 -239 41 -470 51 -637 26
-342 -50 -671 -219 -844 -433 -23 -29 -44 -51 -46 -49 -2 2 3 113 12 247 49
774 21 1491 -86 2228 -113 779 -141 1365 -93 1946 35 430 97 756 205 1079 89
266 183 417 294 472 73 35 109 28 163 -30 97 -105 135 -244 256 -936 77 -435
89 -502 150 -791 192 -913 534 -1845 760 -2076 155 -156 272 -78 419 282 64
156 145 442 182 642 102 552 79 1052 -81 1788 -30 138 -71 324 -90 414 -113
536 -99 728 56 790 42 16 152 13 211 -8z m794 -5643 c166 -19 394 -92 535
-170 331 -185 555 -526 732 -1113 106 -354 157 -671 165 -1035 8 -356 -22
-582 -111 -854 -88 -267 -189 -442 -378 -658 -98 -111 -214 -200 -343 -263
-261 -128 -500 -114 -822 49 -238 119 -864 526 -934 607 -57 64 -127 202 -170
329 -62 187 -83 403 -59 614 9 75 8 92 -5 112 -17 27 -51 31 -79 11 -46 -33
-47 -447 -2 -637 44 -187 112 -348 196 -458 l40 -52 -55 -25 c-82 -36 -164
-103 -315 -257 -252 -256 -373 -343 -521 -369 -175 -31 -419 59 -661 246 -311
240 -598 713 -703 1161 -54 232 -79 524 -65 761 46 754 332 1454 708 1731 133
98 328 181 528 224 164 34 412 32 619 -6 184 -33 416 -45 561 -27 55 7 173 25
264 41 144 24 292 42 465 54 74 5 307 -4 410 -16z"/>
</g>
</svg>
