<?xml version="1.0" standalone="no"?>
<!DOCTYPE svg PUBLIC "-//W3C//DTD SVG 20010904//EN"
 "http://www.w3.org/TR/2001/REC-SVG-20010904/DTD/svg10.dtd">
<svg version="1.0" xmlns="http://www.w3.org/2000/svg"
 width="672.000000pt" height="1247.000000pt" viewBox="0 0 672.000000 1247.000000"
 preserveAspectRatio="xMidYMid meet">

<g transform="translate(0.000000,1247.000000) scale(0.100000,-0.100000)"
fill="#000000" stroke="none">
<path d="M2392 10840 c-67 -12 -156 -53 -256 -118 l-80 -51 -41 38 c-171 157
-400 38 -491 -256 -56 -181 -70 -421 -54 -910 13 -395 10 -499 -31 -1013 -57
-717 -51 -985 43 -2120 22 -259 15 -770 -15 -1140 -14 -179 -40 -507 -57 -730
l-32 -405 -53 -80 c-159 -239 -397 -847 -499 -1275 -103 -431 -112 -725 -31
-1005 100 -344 428 -745 825 -1010 133 -89 210 -129 320 -167 85 -29 107 -32
205 -33 90 0 123 5 180 24 186 63 337 160 654 423 85 71 162 128 171 128 9 0
32 -16 51 -36 70 -74 268 -251 385 -344 384 -307 652 -421 894 -380 269 45
647 272 981 588 238 226 362 417 424 657 38 149 48 280 42 532 -6 261 -33 465
-90 704 -99 410 -309 900 -488 1139 -53 71 -57 80 -68 160 -7 47 -36 207 -66
355 -103 517 -118 699 -116 1375 2 664 -17 991 -85 1409 -62 387 -194 869
-332 1216 -206 517 -590 1173 -898 1535 -87 103 -234 246 -329 322 -191 152
-592 380 -778 443 -84 28 -206 38 -285 25z m161 -120 c31 -5 96 -25 143 -44
113 -46 378 -190 512 -278 l107 -71 -70 -23 c-132 -45 -261 -153 -314 -264
-23 -49 -26 -66 -25 -160 2 -150 35 -281 181 -725 162 -494 236 -794 275
-1120 17 -143 17 -759 0 -950 -25 -276 -74 -502 -142 -651 -16 -35 -34 -64
-40 -64 -35 0 -194 468 -309 910 -100 384 -137 590 -176 985 -46 455 -106 791
-231 1285 -118 466 -198 716 -289 907 l-53 112 96 59 c152 93 218 112 335 92z
m-637 -87 c93 -60 242 -404 349 -805 19 -73 56 -209 80 -303 108 -406 184
-822 225 -1232 17 -170 42 -378 56 -463 73 -444 299 -1244 419 -1481 30 -59
67 -101 101 -115 84 -35 159 52 232 271 87 261 130 705 119 1220 -6 285 -24
448 -77 700 -57 275 -92 392 -270 925 -116 348 -150 554 -105 645 44 91 164
177 292 210 95 25 100 23 196 -66 345 -320 836 -1134 1086 -1801 105 -281 222
-732 275 -1064 69 -429 87 -721 85 -1409 -3 -651 19 -911 110 -1340 49 -227
65 -315 58 -321 -2 -3 -44 20 -93 51 -170 108 -365 191 -569 243 -185 47 -258
57 -420 56 -144 0 -158 -2 -340 -46 -228 -56 -322 -68 -520 -68 -198 0 -294
13 -510 68 -171 43 -187 46 -320 46 -161 1 -272 -20 -464 -86 -133 -46 -228
-92 -330 -160 l-73 -49 6 78 c128 1585 128 1597 66 2363 -74 913 -76 1106 -14
1892 27 344 31 562 25 1138 -5 395 1 497 40 649 55 215 177 324 285 254z m764
-6247 c233 -59 337 -70 590 -63 221 6 283 15 515 75 130 33 151 36 285 36 174
0 307 -23 507 -89 332 -109 586 -282 721 -488 105 -161 248 -471 331 -714 122
-361 181 -712 181 -1073 0 -194 -13 -313 -46 -430 -65 -227 -194 -413 -443
-637 -190 -172 -374 -302 -558 -396 -284 -144 -450 -150 -698 -25 -272 137
-794 578 -927 782 -64 99 -107 268 -124 489 -3 48 -11 83 -21 92 -36 36 -103
1 -103 -54 0 -76 23 -247 46 -341 29 -115 59 -189 106 -264 l32 -49 -30 -21
c-16 -11 -90 -71 -164 -132 -503 -412 -698 -476 -1001 -328 -183 89 -328 195
-508 369 -378 368 -526 689 -508 1105 13 294 99 659 254 1080 130 354 234 576
331 706 131 178 353 308 655 385 203 52 327 48 577 -15z"/>
</g>
</svg>
