<?xml version="1.0" standalone="no"?>
<!DOCTYPE svg PUBLIC "-//W3C//DTD SVG 20010904//EN"
 "http://www.w3.org/TR/2001/REC-SVG-20010904/DTD/svg10.dtd">
<svg version="1.0" xmlns="http://www.w3.org/2000/svg"
 width="672.000000pt" height="1247.000000pt" viewBox="0 0 672.000000 1247.000000"
 preserveAspectRatio="xMidYMid meet">

<g transform="translate(0.000000,1247.000000) scale(0.100000,-0.100000)"
fill="#000000" stroke="none">
<path d="M2449 10930 c-60 -15 -140 -54 -234 -113 l-88 -57 -44 41 c-56 51
-98 69 -165 69 -137 0 -276 -139 -332 -331 -58 -199 -71 -406 -55 -910 13
-423 9 -535 -32 -1039 -50 -616 -48 -1009 6 -1680 68 -842 70 -1031 11 -1775
-20 -247 -45 -574 -57 -725 l-21 -275 -47 -70 c-68 -99 -111 -179 -182 -340
-212 -480 -354 -946 -404 -1328 -20 -153 -20 -388 0 -503 29 -161 96 -336 182
-472 213 -335 573 -665 898 -823 371 -180 617 -104 1184 365 85 71 160 130
168 133 7 3 67 -46 135 -110 338 -318 652 -539 885 -624 85 -31 113 -36 214
-41 130 -5 213 11 355 68 295 118 722 439 958 721 131 155 204 293 251 472 37
142 48 245 48 467 0 290 -29 520 -103 820 -102 412 -312 893 -490 1125 -33 44
-60 83 -60 88 0 36 -39 260 -80 458 -101 487 -112 614 -116 1374 -4 757 -15
950 -75 1360 -54 367 -173 832 -301 1175 -186 498 -516 1096 -847 1535 -127
169 -354 400 -496 506 -187 139 -578 357 -742 414 -86 29 -256 42 -324 25z
m278 -140 c122 -42 501 -246 636 -343 l49 -35 -54 -17 c-190 -62 -341 -214
-363 -366 -8 -55 8 -203 36 -319 11 -47 78 -263 149 -480 170 -519 247 -833
282 -1145 20 -183 17 -804 -6 -1015 -20 -193 -45 -327 -82 -448 -30 -99 -76
-206 -93 -216 -43 -27 -267 664 -390 1204 -53 231 -75 374 -106 675 -54 532
-102 801 -241 1345 -121 475 -197 713 -290 909 -30 62 -52 117 -49 121 7 11
169 108 211 127 90 38 203 39 311 3z m-740 -67 c80 -53 203 -310 302 -632 66
-214 186 -685 241 -943 69 -326 95 -493 130 -843 35 -352 69 -556 144 -867
119 -491 267 -944 359 -1099 79 -133 177 -112 257 55 127 265 182 647 182
1266 -1 546 -63 880 -297 1585 -158 474 -178 554 -179 701 l-1 111 37 55 c61
93 205 174 329 185 l56 5 69 -59 c317 -274 837 -1104 1083 -1732 164 -418 280
-859 345 -1311 53 -366 57 -442 66 -1215 9 -855 21 -1017 101 -1390 46 -213
79 -388 75 -393 -3 -2 -49 23 -103 57 -190 116 -381 196 -605 250 -180 44
-269 54 -430 49 -127 -4 -164 -10 -333 -51 -227 -55 -392 -72 -605 -64 -159 6
-245 20 -455 74 -117 30 -162 37 -275 41 -118 3 -151 1 -263 -23 -219 -45
-408 -119 -562 -219 -47 -31 -85 -52 -85 -48 0 4 11 144 25 312 61 766 84
1077 90 1230 7 198 -5 478 -45 970 -73 904 -74 1107 -13 1829 26 301 27 347
28 991 1 716 3 753 52 905 63 195 178 285 280 218z m745 -6327 c260 -67 289
-71 563 -71 280 0 327 6 570 68 154 39 166 41 320 41 189 1 307 -19 517 -88
216 -71 406 -170 560 -294 118 -95 228 -261 354 -532 165 -356 265 -689 321
-1065 26 -177 26 -645 -1 -765 -54 -249 -148 -410 -369 -631 -298 -299 -666
-538 -921 -600 -203 -48 -377 0 -645 178 -278 185 -655 521 -759 677 -73 108
-117 267 -128 451 -7 118 -18 153 -50 161 -32 8 -49 0 -69 -30 -15 -22 -16
-39 -5 -152 19 -209 76 -396 159 -518 l19 -29 -46 -35 c-26 -19 -94 -74 -152
-122 -322 -264 -515 -377 -688 -402 -104 -15 -199 5 -336 70 -193 93 -361 216
-552 406 -281 281 -431 549 -475 846 -27 187 8 518 86 820 83 315 254 778 382
1034 147 292 331 443 677 555 256 83 426 90 668 27z"/>
</g>
</svg>
