<?xml version="1.0" standalone="no"?>
<!DOCTYPE svg PUBLIC "-//W3C//DTD SVG 20010904//EN"
 "http://www.w3.org/TR/2001/REC-SVG-20010904/DTD/svg10.dtd">
<svg version="1.0" xmlns="http://www.w3.org/2000/svg"
 width="672.000000pt" height="1247.000000pt" viewBox="0 0 672.000000 1247.000000"
 preserveAspectRatio="xMidYMid meet">

<g transform="translate(0.000000,1247.000000) scale(0.100000,-0.100000)"
fill="#000000" stroke="none">
<path d="M3243 11956 c-196 -48 -393 -245 -550 -551 -224 -437 -495 -1326
-637 -2090 -54 -289 -83 -493 -116 -816 -113 -1114 -148 -1746 -156 -2814 l-5
-700 -49 -125 c-112 -293 -124 -340 -335 -1376 -58 -285 -135 -658 -170 -829
-35 -170 -80 -389 -100 -485 -20 -96 -54 -260 -75 -365 -54 -257 -61 -325 -49
-431 22 -193 107 -370 249 -514 150 -153 321 -248 542 -300 188 -44 681 -79
1243 -87 564 -8 895 13 1255 77 430 78 780 234 1016 453 134 125 218 262 261
426 23 85 26 121 31 315 7 339 -25 671 -99 1041 -144 718 -509 1747 -789 2225
-43 72 -72 162 -125 381 -42 174 -61 289 -115 674 -67 475 -136 788 -330 1505
-194 717 -260 990 -299 1250 -66 440 -82 888 -72 2110 4 527 -1 603 -53 752
-78 223 -256 326 -473 274z m178 -138 c89 -26 151 -113 183 -256 32 -144 37
-313 26 -874 -16 -756 4 -1395 55 -1778 40 -298 98 -550 284 -1244 257 -953
284 -1079 376 -1713 44 -312 80 -508 114 -641 l19 -74 -121 119 c-268 262
-532 408 -865 478 -509 106 -1058 -82 -1407 -482 -42 -47 -92 -112 -113 -144
-20 -32 -40 -58 -44 -58 -11 -1 -10 778 2 1154 27 885 114 2000 206 2645 29
206 118 655 173 878 265 1067 552 1739 825 1927 98 67 199 90 287 63z m-110
-6038 c364 -35 687 -186 960 -448 184 -176 287 -321 421 -592 311 -630 622
-1605 718 -2252 53 -355 67 -801 31 -976 -34 -163 -111 -296 -243 -417 -279
-255 -702 -401 -1342 -461 -490 -46 -1634 -14 -2006 56 -278 52 -526 232 -644
468 -60 120 -82 288 -56 432 6 36 43 216 81 400 39 184 126 610 194 945 301
1480 331 1607 441 1887 67 170 96 229 161 325 207 307 502 515 849 599 163 39
284 49 435 34z"/>
</g>
</svg>
