<?xml version="1.0" standalone="no"?>
<!DOCTYPE svg PUBLIC "-//W3C//DTD SVG 20010904//EN"
 "http://www.w3.org/TR/2001/REC-SVG-20010904/DTD/svg10.dtd">
<svg version="1.0" xmlns="http://www.w3.org/2000/svg"
 width="672.000000pt" height="1247.000000pt" viewBox="0 0 672.000000 1247.000000"
 preserveAspectRatio="xMidYMid meet">

<g transform="translate(0.000000,1247.000000) scale(0.100000,-0.100000)"
fill="#000000" stroke="none">
<path d="M3035 12126 c-177 -56 -279 -204 -419 -608 -109 -314 -189 -638 -240
-968 -30 -196 -42 -353 -56 -710 -12 -302 -30 -524 -66 -825 -87 -725 -94
-858 -94 -1710 0 -950 -20 -1197 -186 -2335 -73 -503 -83 -566 -124 -775 -33
-171 -47 -325 -55 -640 -11 -413 -23 -543 -95 -1030 -70 -471 -83 -603 -84
-815 0 -313 50 -526 175 -742 78 -134 252 -290 415 -371 156 -78 430 -147 664
-168 452 -40 974 75 1438 316 552 287 871 692 912 1157 24 272 -38 571 -254
1233 -113 349 -178 557 -261 846 -42 145 -94 318 -115 384 -206 632 -271 1033
-435 2690 -109 1104 -163 1472 -301 2065 -149 638 -263 1161 -298 1366 -48
275 -49 299 -51 834 -1 561 0 554 -60 655 -33 57 -129 129 -198 150 -61 18
-157 18 -212 1z m172 -111 c63 -19 135 -81 159 -137 18 -40 19 -77 20 -508 1
-494 4 -566 35 -783 23 -161 116 -619 188 -927 280 -1198 305 -1350 426 -2590
68 -700 139 -1320 186 -1635 29 -200 80 -481 98 -542 13 -44 2 -41 -33 8 -144
203 -369 378 -601 468 -144 56 -227 72 -406 78 -240 9 -412 -27 -609 -127
-217 -110 -423 -314 -565 -558 -26 -45 -49 -81 -51 -80 -1 2 15 122 37 268 58
394 126 935 149 1179 33 370 40 575 40 1261 0 820 3 870 80 1530 51 440 57
507 75 890 22 482 35 616 91 916 60 332 215 836 322 1054 61 124 135 204 212
230 67 24 83 24 147 5z m139 -6646 c408 -41 737 -261 973 -652 75 -124 150
-332 251 -692 55 -200 225 -752 270 -880 34 -97 139 -431 170 -545 127 -455
128 -757 6 -1024 -207 -453 -776 -828 -1497 -990 -290 -65 -612 -63 -923 4
-515 112 -782 388 -851 880 -31 226 -19 418 66 1003 76 532 88 664 104 1122
14 405 37 582 106 795 75 231 219 471 384 636 216 217 452 327 745 347 25 2
54 4 66 5 11 1 70 -3 130 -9z"/>
</g>
</svg>
