<svg version="1.1" id="Layer_1" xmlns="http://www.w3.org/2000/svg" xmlns:xlink="http://www.w3.org/1999/xlink" x="0px" y="0px"
	 width="100%" viewBox="0 0 544 1024" enable-background="new 0 0 544 1024" xml:space="preserve">
<path fill="#000000" opacity="1.000000" stroke="none" 
	d="
M176.393951,940.629517 
	C161.909561,927.753357 148.400360,914.478638 136.915909,899.190063 
	C115.013901,870.033264 107.891243,837.848633 115.049919,802.047791 
	C122.387497,765.352295 135.983643,730.874390 150.784012,696.776794 
	C156.686142,683.179260 163.361145,669.915405 169.179688,656.284241 
	C172.587997,648.299622 173.013535,639.460632 174.622223,630.983643 
	C181.601151,594.207947 187.502106,557.246948 193.204468,520.255798 
	C197.536697,492.152527 201.638794,464.015045 204.763870,435.745483 
	C208.713547,400.016510 211.226913,364.165161 213.919876,328.328918 
	C216.202179,297.957367 218.393387,267.578217 220.849457,237.220612 
	C224.512360,191.946518 228.442474,146.693863 236.730164,101.963226 
	C239.006577,89.676865 241.777084,77.492004 246.696671,65.931068 
	C247.931366,63.029556 249.293671,60.133804 250.987946,57.485279 
	C256.584961,48.735931 264.357635,43.214573 275.073273,44.417839 
	C286.330719,45.681942 292.354584,53.556244 296.014221,63.532455 
	C296.862457,65.844719 297.256287,68.323669 297.862000,70.737000 
	C300.391846,71.571678 302.559692,70.364365 304.799011,70.040916 
	C315.422974,68.506371 323.025665,74.505295 324.374573,85.075890 
	C325.079834,90.602631 324.362976,96.046188 324.365173,101.526146 
	C324.380005,138.358078 324.018951,175.193527 324.415558,212.020996 
	C324.847839,252.158310 325.717133,292.308197 328.511414,332.359375 
	C330.966492,367.549011 334.658112,402.639282 338.909668,437.664429 
	C342.437836,466.729828 345.642120,495.836487 349.414185,524.869751 
	C354.000702,560.172119 359.060364,595.412354 364.701019,630.565613 
	C365.649689,636.477966 366.458771,642.412659 367.397034,648.326782 
	C368.338409,654.260254 369.963562,659.896118 372.752258,665.351379 
	C390.083160,699.254456 404.373260,734.379333 414.293823,771.199463 
	C418.984039,788.607056 422.312134,806.299622 422.918304,824.320312 
	C423.811646,850.878113 415.027649,874.308899 398.730682,895.149231 
	C384.971558,912.744324 368.326813,927.327454 351.165802,941.386169 
	C336.073883,953.749695 320.130005,964.901550 303.776581,975.570801 
	C282.772156,989.274597 261.338989,990.293274 238.629410,980.718872 
	C217.672775,971.883423 199.139282,959.323669 181.662079,945.010681 
	C179.986588,943.638550 178.330414,942.242798 176.393951,940.629517 
M313.438324,614.077820 
	C296.732452,604.844177 279.083649,599.638855 259.817139,602.192993 
	C221.279617,607.301880 194.429794,629.391663 175.494247,661.911377 
	C168.739960,673.511169 163.941040,686.272522 158.527893,698.625732 
	C143.609375,732.671021 129.958984,767.141052 122.687248,803.821533 
	C116.590080,834.577148 121.387589,863.033569 139.283356,889.073669 
	C153.397537,909.611145 171.178223,926.592957 190.484299,942.068604 
	C206.522827,954.924988 223.488602,966.255432 242.784836,973.896423 
	C261.203644,981.189880 278.805756,981.927368 296.256195,970.868225 
	C305.971436,964.711182 315.709045,958.602417 324.922668,951.745728 
	C348.333069,934.323914 371.083496,916.143860 389.909637,893.564575 
	C407.624786,872.317505 416.749146,848.263855 414.848724,820.324707 
	C413.713928,803.642212 410.801971,787.280273 406.326477,771.223450 
	C396.863312,737.272095 383.719452,704.749695 368.171204,673.126892 
	C355.885223,648.138977 337.386536,629.132202 313.438324,614.077820 
M314.417725,236.999054 
	C312.258575,217.807556 309.318115,198.726334 306.253357,179.664673 
	C301.103241,147.633316 294.557587,115.822838 291.463226,83.465179 
	C290.756927,76.079620 290.444214,68.492622 286.714325,61.658337 
	C280.585510,50.428493 268.297211,48.979473 259.967773,58.660427 
	C256.323975,62.895458 254.065704,67.903137 252.271225,73.138069 
	C244.773163,95.011787 241.476059,117.780952 238.425476,140.541916 
	C234.756058,167.920044 231.977814,195.406708 229.964005,222.970398 
	C227.938904,250.688919 225.159988,278.357239 223.463974,306.093597 
	C221.746674,334.177826 219.099213,362.179840 216.982742,390.226898 
	C214.641129,421.257538 210.890549,452.140381 206.415833,482.942993 
	C200.101532,526.408752 193.692429,569.854797 185.654510,613.044556 
	C183.891891,622.515625 182.344498,632.026733 180.697983,641.519348 
	C187.693024,634.309265 194.460052,627.425049 201.953583,621.306274 
	C220.234283,606.379395 240.719452,596.639954 264.673676,595.760376 
	C294.292023,594.672852 318.644745,606.866211 339.899658,626.407776 
	C346.734314,632.691467 353.014221,639.533875 359.384735,647.486694 
	C356.612274,628.791931 354.161530,611.030945 351.315002,593.333618 
	C345.658173,558.164490 341.282349,522.820190 336.810272,487.494110 
	C333.320831,459.930267 330.457733,432.284485 327.545258,404.650970 
	C325.138275,381.813812 322.663879,358.971588 320.942047,336.077240 
	C318.482758,303.376709 318.449036,270.513367 314.417725,236.999054 
M314.841370,80.748123 
	C311.352875,77.002823 306.946014,77.866699 302.687927,78.483246 
	C299.366486,78.964180 298.198517,80.773338 298.591644,84.443748 
	C301.264557,109.398842 304.876312,134.208862 309.239258,158.921005 
	C311.745148,173.114487 313.976593,187.356415 316.331573,201.576523 
	C316.804962,164.412018 316.798981,127.308334 316.816040,90.204651 
	C316.817444,87.170944 316.333130,84.247978 314.841370,80.748123 
z"/>
</svg>