<svg version="1.1" id="Layer_1" xmlns="http://www.w3.org/2000/svg" xmlns:xlink="http://www.w3.org/1999/xlink" x="0px" y="0px"
	 width="100%" viewBox="0 0 544 1024" enable-background="new 0 0 544 1024" xml:space="preserve">
<path fill="#000000" opacity="1.000000" stroke="none" 
	d="
M156.316071,709.409058 
	C163.817612,688.328491 174.261017,668.827698 180.705429,647.746399 
	C190.840118,614.593323 198.119797,580.765015 204.663742,546.757812 
	C211.013184,513.761536 215.782059,480.512390 220.424545,447.252350 
	C224.515930,417.940521 228.003754,388.544312 231.740753,359.183167 
	C235.351379,330.815002 239.015121,302.453247 242.516815,274.071594 
	C246.018738,245.687927 248.896713,217.219559 252.872574,188.904083 
	C257.495667,155.979004 261.094849,122.845383 269.721954,90.600670 
	C271.367493,84.450287 273.986725,78.648102 277.934998,73.598122 
	C293.838837,53.256565 327.307678,55.675297 341.660828,78.142845 
	C348.979797,89.599548 351.631134,102.456223 352.136963,115.702927 
	C353.047028,139.535446 351.036499,163.299988 349.602509,187.070511 
	C349.101257,195.380112 348.597626,203.695938 348.398560,212.016190 
	C347.820770,236.163666 347.785797,260.330505 346.811890,284.460480 
	C345.654694,313.132141 346.783539,341.769165 347.510834,370.397552 
	C348.089630,393.179321 350.248535,415.920715 352.921661,438.575287 
	C355.611359,461.370422 358.292725,484.169678 361.339508,506.918671 
	C364.959290,533.946045 368.927612,560.927185 372.818024,587.917786 
	C375.048065,603.389038 377.189087,618.878967 379.790802,634.289429 
	C383.239685,654.717957 392.620361,673.074890 400.542175,691.939270 
	C414.097656,724.219116 426.228912,756.967590 432.760712,791.532898 
	C438.060608,819.579102 437.762482,847.144165 426.317352,873.875671 
	C416.442902,896.938538 400.886444,915.607239 381.521484,931.164001 
	C357.251923,950.661011 330.298798,964.590759 299.209808,969.705139 
	C278.424103,973.124512 258.326019,970.171814 238.810577,963.119446 
	C211.124802,953.114441 186.985168,937.439209 166.461609,916.243042 
	C142.912354,891.921936 129.384857,863.080017 128.130264,829.126099 
	C127.337395,807.668274 131.915558,786.787415 137.387985,766.138184 
	C142.471756,746.955505 149.171600,728.312317 156.316071,709.409058 
M136.313904,845.209961 
	C139.296371,861.997986 145.330170,877.580688 155.016846,891.644409 
	C176.332504,922.591614 205.428955,943.444824 240.251404,956.653442 
	C266.076782,966.449158 292.271851,967.310181 318.527130,958.482971 
	C349.620209,948.029358 376.407104,930.922607 398.169983,906.163757 
	C419.313690,882.109131 430.138092,854.132507 429.537201,822.121216 
	C429.186035,803.415344 425.451019,785.101074 420.447235,767.091492 
	C413.302948,741.377869 403.884674,716.464539 393.568268,691.882568 
	C381.008301,661.954773 363.117157,635.972229 336.051178,617.377563 
	C305.086060,596.104248 272.315094,592.439331 238.415390,610.052246 
	C212.397614,623.570007 193.650024,644.693298 180.582886,670.454590 
	C162.679047,705.750977 149.615051,742.960999 140.308487,781.452637 
	C135.299026,802.171570 133.352829,823.102844 136.313904,845.209961 
M264.145782,156.416687 
	C259.065613,188.628723 255.418915,221.030838 251.373901,253.378571 
	C247.782181,282.101318 244.671616,310.884888 240.987411,339.595245 
	C235.610580,381.495972 230.026245,423.370972 224.316864,465.227844 
	C218.064484,511.065338 210.407745,556.662659 199.653992,601.688049 
	C196.240585,615.979797 192.484070,630.189636 188.636276,645.419739 
	C199.489212,630.936401 211.501144,619.045959 225.969437,609.796875 
	C241.683548,599.751282 258.615601,593.320923 277.472046,592.670715 
	C303.351624,591.778503 325.671356,601.059509 345.863556,616.488342 
	C356.870728,624.898926 366.218170,634.978333 375.417999,646.510681 
	C371.671295,627.036743 369.080444,608.449036 366.510162,589.852478 
	C359.153320,536.623901 350.782837,483.538727 345.391113,430.039581 
	C342.249329,398.865356 340.338135,367.653778 339.844666,336.351776 
	C339.169617,293.533081 340.238678,250.732254 341.940613,207.950348 
	C342.555878,192.484283 343.956024,177.048080 344.496033,161.580734 
	C345.122559,143.634506 347.163452,125.679253 344.722687,107.707855 
	C343.362885,97.695396 340.806366,88.184914 334.867340,79.750481 
	C323.771118,63.991955 290.914215,57.992458 279.467102,84.018562 
	C277.929169,87.515259 276.301575,91.037926 275.340515,94.712051 
	C270.111145,114.704330 267.455170,135.180237 264.145782,156.416687 
z"/>
</svg>