<svg version="1.1" id="Layer_1" xmlns="http://www.w3.org/2000/svg" xmlns:xlink="http://www.w3.org/1999/xlink" x="0px" y="0px"
	 width="100%" viewBox="0 0 544 1024" enable-background="new 0 0 544 1024" xml:space="preserve">
<path fill="#000000" opacity="1.000000" stroke="none" 
	d="
M118.014633,858.619812 
	C114.976921,826.103333 121.371605,795.175415 129.894394,764.618408 
	C139.755798,729.261841 152.619293,695.002991 168.321655,661.772095 
	C173.089355,651.682190 173.642639,640.187622 175.678772,629.244995 
	C183.164902,589.012878 190.607361,548.772705 197.210495,508.382446 
	C202.041382,478.832611 206.139496,449.178192 209.678680,419.451874 
	C213.454453,387.738403 216.931152,355.989075 220.474869,324.248291 
	C223.944687,293.169220 226.900253,262.025635 230.865891,231.010651 
	C236.201019,189.284836 240.119125,147.322311 249.733444,106.241554 
	C252.775482,93.243324 256.635437,80.502975 263.019257,68.666992 
	C265.587921,63.904522 268.868896,59.726532 273.239594,56.529507 
	C286.626221,46.737637 302.912964,49.881802 312.279480,64.118011 
	C319.310608,74.804596 321.993225,87.011406 324.231384,99.353485 
	C326.199463,110.206177 326.537872,121.217194 327.039429,132.173965 
	C327.793335,148.643860 327.772736,165.147659 328.241150,181.632507 
	C329.518677,226.594147 330.927887,271.549530 331.527557,316.530792 
	C331.918213,345.831390 333.100922,375.127869 336.405548,404.282684 
	C339.440063,431.054504 342.587860,457.813477 345.626526,484.584808 
	C348.760162,512.192688 352.309479,539.747009 356.272583,567.246582 
	C360.424561,596.056702 364.454895,624.883789 371.108093,653.274353 
	C372.931122,661.053467 376.684326,667.852844 380.164764,674.841064 
	C398.570831,711.797485 409.622375,751.166809 418.213745,791.315491 
	C422.121826,809.578491 424.708710,828.078064 424.163208,846.794495 
	C422.549072,902.177063 397.751465,943.792603 349.331818,970.999207 
	C331.843445,980.825684 313.620056,988.986389 293.810638,993.012024 
	C270.330841,997.783508 247.174896,996.056458 225.064545,987.124268 
	C173.082291,966.124512 139.121185,927.961914 121.181435,875.225891 
	C119.432335,870.084167 119.091187,864.463562 118.014633,858.619812 
M407.533936,880.025696 
	C412.798950,859.377441 412.941162,838.537537 409.892792,817.573547 
	C402.704041,768.136169 389.485809,720.515137 366.609741,675.900085 
	C354.486267,652.255737 337.505249,632.909973 314.030792,619.866760 
	C294.028046,608.752625 272.773071,604.719360 250.415787,610.827637 
	C217.667206,619.774963 193.493881,640.281372 178.648590,670.175842 
	C155.964493,715.855530 139.784821,763.954285 131.738174,814.512512 
	C128.901840,832.333740 127.163330,850.444702 132.170959,868.043823 
	C144.800583,912.430298 172.545258,945.141479 212.271362,967.808167 
	C234.964081,980.756042 259.568115,985.190002 285.545319,981.717346 
	C301.783051,979.546570 316.653320,973.405945 331.343536,966.531921 
	C369.051178,948.887512 395.813507,921.638184 407.533936,880.025696 
M317.889923,257.447083 
	C316.808838,215.812973 315.765289,174.177841 314.626312,132.545319 
	C314.229614,118.044792 313.042145,103.597855 309.559814,89.471062 
	C307.683838,81.860603 305.338989,74.323250 299.798309,68.377121 
	C293.785095,61.923920 285.989136,61.632416 279.397583,67.472244 
	C276.203125,70.302383 274.209686,73.947838 272.369537,77.702789 
	C264.957733,92.827011 261.465546,109.122673 258.311554,125.484169 
	C252.480408,155.733505 249.074936,186.339249 245.042587,216.856949 
	C240.224594,253.320465 236.454315,289.900726 232.470627,326.454163 
	C228.576599,362.184845 224.941895,397.941895 220.374313,433.596313 
	C214.177032,481.972076 206.434006,530.102905 197.627838,578.067505 
	C193.635208,599.814270 189.679062,621.567810 185.567200,644.080078 
	C208.481491,618.115051 235.077118,600.174316 270.218262,599.888855 
	C305.596161,599.601501 332.183289,617.976929 355.833496,644.123352 
	C355.585236,641.241089 355.587799,639.925293 355.345795,638.656189 
	C346.892578,594.324341 341.164703,549.591553 335.712128,504.821472 
	C332.532654,478.715576 329.602020,452.579437 326.485901,426.465698 
	C323.368439,400.340698 320.827606,374.157715 319.980804,347.860718 
	C319.021149,318.058197 318.570740,288.239258 317.889923,257.447083 
z"/>
</svg>