<svg version="1.1" id="Layer_1" xmlns="http://www.w3.org/2000/svg" xmlns:xlink="http://www.w3.org/1999/xlink" x="0px" y="0px"
	 width="100%" viewBox="0 0 544 1024" enable-background="new 0 0 544 1024" xml:space="preserve">
<path fill="#000000" opacity="1.000000" stroke="none" 
	d="
M108.166328,957.815491 
	C86.816238,934.029541 75.025696,906.195312 69.734322,875.306274 
	C64.584633,845.244141 65.887642,815.299683 70.985695,785.388123 
	C75.589783,758.374878 81.428497,731.454529 94.017975,707.104370 
	C105.183998,685.507446 107.552803,662.485352 110.800415,639.323853 
	C113.945122,616.896240 115.861610,594.348389 117.437126,571.770569 
	C118.329529,558.981995 119.238449,546.181763 119.594688,533.371521 
	C120.247643,509.892151 120.297981,486.395935 120.955948,462.916748 
	C122.303825,414.818237 127.686523,367.306854 142.505295,321.242401 
	C160.656860,264.817993 191.942184,217.097595 237.223328,178.739517 
	C255.508453,163.250000 275.260895,150.027313 298.105927,142.089279 
	C306.982727,139.004822 316.210083,137.469101 325.633209,138.139725 
	C347.222900,139.676208 359.112885,152.923386 365.281586,172.216568 
	C372.574707,195.026535 374.011719,218.571732 372.653259,242.347321 
	C371.514008,262.286377 370.334625,282.223175 369.139191,302.158936 
	C368.890564,306.305084 368.493286,310.442261 368.752197,314.683624 
	C371.080750,302.132172 373.411957,289.581207 375.737244,277.029144 
	C380.099121,253.483536 382.635376,229.567581 389.735596,206.577835 
	C392.251221,198.432526 395.449524,190.543762 401.862671,184.482376 
	C408.432983,178.272385 416.293854,177.016815 424.429840,180.929321 
	C432.382599,184.753677 437.945984,191.028152 442.403442,198.465424 
	C451.953613,214.400040 456.911743,232.032898 461.223846,249.856171 
	C471.919006,294.062469 474.391144,339.026245 472.858185,384.287323 
	C471.667267,419.447937 466.809601,454.236420 461.722931,489.004150 
	C458.928253,508.105774 457.596588,527.384521 456.339050,546.645996 
	C454.578949,573.604431 454.810760,600.611511 455.426636,627.586609 
	C455.882294,647.545044 457.422058,667.484558 459.504486,687.359680 
	C459.854828,690.703613 460.906342,693.812134 462.466766,696.827332 
	C479.168793,729.100769 487.597382,763.576721 490.458374,799.683167 
	C493.211243,834.425293 488.255493,867.865906 474.295532,899.729309 
	C457.909973,937.129089 434.147644,967.948120 395.330536,984.688599 
	C373.367401,994.160461 353.619720,991.208801 335.484741,975.396729 
	C325.659729,966.830261 316.924652,957.212219 307.518097,948.254395 
	C302.407684,943.387817 296.864380,939.243286 290.259216,936.544495 
	C286.700653,935.090393 283.784302,935.296936 280.479248,937.538513 
	C257.321167,953.245605 234.235687,969.092712 208.929184,981.290771 
	C198.793640,986.176208 188.247879,989.625610 176.922211,990.298706 
	C155.018417,991.600281 136.538208,983.421936 120.207047,969.578430 
	C116.026855,966.034973 112.326065,961.926025 108.166328,957.815491 
M310.034424,895.359619 
	C306.677246,906.412903 301.706848,916.690430 294.430359,926.482239 
	C309.948334,933.168457 319.620819,946.027527 330.886139,957.011902 
	C335.550415,961.559814 340.461700,965.798401 345.506348,969.887634 
	C357.307831,979.453979 370.539093,981.803345 384.924286,977.101807 
	C401.206726,971.780151 415.499237,962.959290 427.472717,950.809143 
	C459.592560,918.215332 476.254791,878.426880 479.511597,833.213013 
	C482.491760,791.839966 475.282867,751.894897 458.870544,713.728943 
	C451.092010,695.640259 441.375885,678.642822 425.527618,666.432068 
	C399.017273,646.006470 368.514801,640.463684 336.170868,646.000854 
	C313.415710,649.896362 291.050781,651.057983 268.247620,646.587524 
	C245.185806,642.066223 221.885101,639.752991 198.242493,642.031677 
	C157.320297,645.975830 126.229332,664.336426 108.086349,702.153748 
	C84.474632,751.370056 73.915833,803.183899 78.190796,857.724915 
	C80.932060,892.698730 92.410355,924.333679 116.110664,950.838684 
	C129.077393,965.339966 144.215073,976.307312 164.084961,979.269287 
	C181.143204,981.812195 196.390472,976.182068 210.996506,968.508423 
	C234.187378,956.324707 255.830826,941.617004 277.458679,926.893311 
	C283.563080,922.737488 288.197876,917.541382 291.746063,911.180054 
	C300.887634,894.790955 304.953796,877.172791 304.869659,858.474121 
	C304.840363,851.961121 304.264557,845.504150 303.695709,839.034302 
	C303.401154,835.684143 304.347565,832.802673 308.115997,832.414917 
	C312.098663,832.005188 313.741028,834.751770 314.151337,838.260437 
	C316.375519,857.278320 316.293701,876.148193 310.034424,895.359619 
M443.994720,603.492249 
	C444.153931,591.166870 444.191132,578.848145 444.604004,566.517029 
	C445.882111,528.345398 450.507812,490.541901 456.002380,452.810730 
	C460.038605,425.093811 461.777435,397.174652 462.546936,369.223663 
	C463.364441,339.530304 461.029755,309.955261 456.578735,280.596069 
	C453.100311,257.652161 447.619202,235.162613 438.439514,213.760559 
	C434.750397,205.159622 430.279449,196.870819 421.854797,191.758224 
	C415.960815,188.181396 412.363068,188.820221 407.794312,193.952316 
	C404.045380,198.163483 402.030792,203.272583 400.335052,208.525269 
	C397.618134,216.940948 395.762207,225.578384 394.164795,234.256104 
	C386.542389,275.664551 380.056580,317.297485 370.093323,358.245300 
	C360.787384,396.491730 349.117035,433.985260 332.935791,469.942688 
	C327.948059,481.026184 322.713196,492.068787 314.674866,501.393616 
	C306.250732,511.166016 296.811615,510.560211 289.583069,499.884796 
	C286.023376,494.627655 283.078033,489.016571 280.714996,483.123108 
	C271.251007,459.520050 264.845398,435.162140 261.423737,409.909058 
	C257.654419,382.090057 258.941742,354.460358 262.404785,326.774963 
	C265.634247,300.956512 272.127869,275.792206 277.332367,250.368073 
	C280.700653,233.913864 284.789368,217.541000 283.838165,200.521210 
	C283.155182,188.300491 275.099091,181.758072 262.959869,183.817657 
	C248.164902,186.327805 236.686371,195.109375 226.182327,204.884247 
	C190.545609,238.047150 167.452194,279.115417 152.457092,324.964996 
	C139.737854,363.855865 133.912720,404.058014 132.543640,444.791199 
	C131.021637,490.073822 130.727478,535.390686 127.368347,580.611694 
	C125.690887,603.193726 123.407776,625.692932 120.680824,648.163452 
	C119.939003,654.276123 118.192406,660.322754 118.305832,666.871460 
	C119.268578,666.473206 119.620872,666.417114 119.847397,666.217957 
	C120.722588,665.448425 121.582230,664.657715 122.404106,663.831543 
	C140.015472,646.129883 161.886139,637.086121 185.996765,632.726562 
	C212.636002,627.909607 239.088440,630.488586 265.421631,635.267578 
	C286.885345,639.162842 308.228760,640.672424 329.892731,636.094604 
	C344.729767,632.959412 359.822754,632.143982 375.061035,634.553162 
	C401.334442,638.706909 424.654724,648.452515 443.163361,668.176208 
	C444.061035,669.132751 444.651520,670.884460 447.046722,670.271545 
	C446.160980,648.350403 444.207855,626.453308 443.994720,603.492249 
M306.861816,494.281342 
	C312.909241,486.659973 317.426575,478.154297 321.537140,469.375824 
	C331.091492,448.971680 338.702301,427.827545 345.535889,406.401306 
	C349.527130,393.886932 354.271088,381.449280 355.467743,368.304321 
	C356.598083,355.887543 356.252380,343.343536 356.853516,330.869812 
	C357.750702,312.252625 358.559540,293.620026 360.046722,275.045258 
	C361.817139,252.933212 362.818970,230.807083 361.540955,208.679031 
	C360.763092,195.210526 358.203949,181.913757 352.779327,169.377213 
	C346.955231,155.917480 336.964752,148.891525 322.012543,149.047653 
	C299.570648,149.281982 281.491882,160.193481 263.567810,171.941772 
	C263.979431,172.404541 264.074188,172.608307 264.177643,172.612778 
	C265.837341,172.684830 267.501068,172.685211 269.158173,172.791382 
	C279.765228,173.471008 287.504669,178.492081 291.674927,188.333420 
	C294.642853,195.337402 295.368561,202.729004 294.702301,210.350006 
	C292.766998,232.486984 287.536407,254.004639 282.635345,275.578796 
	C276.801636,301.258453 271.973450,327.103119 270.353790,353.417847 
	C268.132843,389.501343 271.977448,424.921722 283.376251,459.342560 
	C287.298279,471.185791 291.246002,483.056763 298.136566,493.661987 
	C300.579956,497.422607 303.091980,498.443268 306.861816,494.281342 
z"/>
</svg>