<svg version="1.1" id="Layer_1" xmlns="http://www.w3.org/2000/svg" xmlns:xlink="http://www.w3.org/1999/xlink" x="0px" y="0px"
	 width="100%" viewBox="0 0 544 1024" enable-background="new 0 0 544 1024" xml:space="preserve">
<path fill="#000000" opacity="1.000000" stroke="none" 
	d="
M438.193085,663.058960 
	C438.903442,670.311401 439.608185,677.098450 440.254608,683.891052 
	C440.386322,685.275208 440.819366,686.509521 441.660309,687.567078 
	C454.240173,703.387024 460.566895,722.334717 467.778198,740.745911 
	C477.383514,765.269348 485.044312,790.446777 489.639496,816.438843 
	C494.800751,845.633057 494.479675,874.392700 479.130035,900.891418 
	C459.613983,934.582947 431.864716,959.660767 396.588074,976.125793 
	C380.379120,983.691040 364.239899,982.368774 348.636658,973.645752 
	C332.714630,964.744507 318.082520,954.070068 304.322418,942.123535 
	C292.701569,932.034302 292.784363,932.284363 281.862640,942.722656 
	C264.124664,959.675537 245.489471,975.389771 223.679947,987.175110 
	C201.847702,998.972717 180.288910,999.056641 158.819443,987.341919 
	C131.875412,972.639954 107.343163,954.700500 87.382393,931.063232 
	C72.159447,913.036560 63.898788,892.360352 62.569660,868.652100 
	C59.909443,821.200867 70.118034,776.382507 89.225388,733.289429 
	C95.585297,718.945862 102.589439,704.931580 113.191071,693.104919 
	C114.809334,691.299622 114.824684,689.128540 115.050438,687.025269 
	C116.796913,670.753967 121.384285,655.058044 124.567459,639.079834 
	C130.585342,608.872437 131.410980,578.217834 130.414902,547.554504 
	C129.672729,524.708252 130.243652,501.926117 131.626740,479.144531 
	C133.639297,445.994385 138.957245,413.365570 147.300674,381.216797 
	C157.453491,342.096161 173.535858,305.438446 193.001831,270.147919 
	C204.525269,249.256699 216.845917,228.898605 231.432419,209.966202 
	C250.513168,185.200562 274.929718,166.985413 302.165833,152.248260 
	C311.096436,147.416000 319.744202,141.983795 329.283051,138.366333 
	C347.105896,131.607315 363.340149,133.935349 377.304169,147.460815 
	C379.944458,150.018219 381.627869,150.443741 384.689453,147.778671 
	C395.540924,138.332626 409.924530,139.884048 419.158142,150.989929 
	C426.723236,160.089050 429.500427,171.064682 431.151093,182.313721 
	C434.896851,207.839844 433.474579,233.508148 432.545044,259.141510 
	C431.855804,278.149170 432.930481,297.123932 433.714600,316.089569 
	C434.429504,333.381683 436.179260,350.628326 437.165649,367.912537 
	C438.924713,398.737488 437.616699,429.525055 435.114441,460.251770 
	C432.924896,487.138641 429.976471,514.001404 430.430695,540.999939 
	C430.887177,568.131409 432.616089,595.226746 434.993896,622.271301 
	C436.174713,635.701843 437.116760,649.153503 438.193085,663.058960 
M81.436958,802.892090 
	C77.154999,823.705688 75.397652,844.747986 76.314140,865.960022 
	C77.031448,882.562256 81.332352,898.232361 90.914330,912.012756 
	C111.135017,941.093384 138.836548,961.298828 170.042862,976.908386 
	C184.408173,984.094116 199.207108,983.405273 213.852753,976.186890 
	C225.453720,970.469177 235.949173,963.258179 246.103470,955.367310 
	C258.495605,945.737366 269.310364,934.347412 281.293518,924.282104 
	C287.542603,919.033203 292.492859,912.919861 296.133545,905.692627 
	C302.303284,893.444885 304.890594,880.296448 305.974487,866.743713 
	C306.144958,864.611938 305.966919,861.301453 309.083435,861.329224 
	C312.050598,861.355591 312.011383,864.430786 312.267975,866.722656 
	C313.929810,881.565735 311.926971,895.944031 306.631622,909.870850 
	C305.102478,913.892456 301.397583,918.294312 302.219299,921.660400 
	C303.029907,924.981201 308.376923,927.132568 311.615723,929.933533 
	C324.117004,940.744812 337.373871,950.476807 351.428284,959.214539 
	C367.444580,969.171997 383.067688,968.466309 399.078979,959.322571 
	C416.731415,949.241638 432.799988,937.195923 446.327087,921.996277 
	C461.234406,905.245789 473.435425,886.981445 477.307373,864.227966 
	C480.741821,844.045227 477.194855,824.399719 472.837372,804.870239 
	C466.101685,774.682007 455.201019,745.878784 443.001068,717.531799 
	C425.890869,677.775757 377.839935,654.826965 336.049286,666.541809 
	C309.592926,673.958130 282.919098,674.809021 255.951080,669.655334 
	C245.337555,667.627075 235.096741,663.768005 224.184692,663.240295 
	C200.246368,662.082581 178.073868,668.592407 156.761139,678.794189 
	C135.002502,689.209351 118.506340,704.644836 107.965576,726.816589 
	C96.458702,751.020325 87.311134,775.902283 81.436958,802.892090 
M188.926315,309.377869 
	C159.812424,369.443207 146.980759,433.373383 144.466324,499.600586 
	C143.600784,522.398132 144.077179,545.256409 144.302414,568.083313 
	C144.616043,599.869446 142.057968,631.277039 133.759827,662.097107 
	C132.509888,666.739502 130.842087,671.506531 131.560944,677.080383 
	C138.615799,672.994751 144.868652,668.565796 151.830887,665.408630 
	C183.056427,651.248230 214.825394,643.881653 249.233673,653.653015 
	C278.237000,661.889465 307.545807,660.708374 336.472321,651.862183 
	C342.698059,649.958252 349.126190,648.986389 355.666840,648.905334 
	C372.699127,648.694336 388.466553,653.819031 403.954651,660.221924 
	C411.004364,663.136230 417.314331,667.405640 424.335968,671.526428 
	C423.313812,657.106750 422.314514,643.362000 421.370636,629.613403 
	C419.831421,607.192627 417.856903,584.788696 416.934448,562.342041 
	C415.880981,536.706482 416.207001,511.038086 418.786682,485.465515 
	C420.842072,465.089783 422.468353,444.683411 423.368164,424.226410 
	C424.107941,407.408234 424.133270,390.572601 423.355011,373.757660 
	C422.131226,347.315521 419.829651,320.937317 418.741058,294.480377 
	C417.438843,262.832092 421.369812,231.201828 418.794006,199.569321 
	C417.820526,187.614563 416.922241,175.589783 411.417786,164.612564 
	C405.857971,153.525040 397.176270,152.814590 389.901215,162.768585 
	C382.090546,173.455383 378.117828,185.907837 374.410522,198.334732 
	C358.603729,251.319153 343.974121,304.450073 340.754822,360.202759 
	C338.576660,397.925232 327.977417,434.249695 316.825439,470.226471 
	C312.738068,483.412567 308.743774,496.743988 301.676117,508.739777 
	C295.110931,519.882690 286.660248,520.070496 279.037659,509.550568 
	C274.760284,503.647308 272.622986,496.776215 270.838287,489.816589 
	C265.604187,469.405640 263.333588,448.622131 262.392822,427.589630 
	C261.071106,398.041565 262.075928,368.676331 267.281372,339.524200 
	C272.046082,312.840424 281.676208,287.573608 290.046722,261.942688 
	C294.494812,248.322418 298.913147,234.674240 300.250122,220.320679 
	C301.489380,207.016785 297.428253,200.427231 288.040100,196.004379 
	C284.253082,194.220291 280.357483,192.830521 276.338684,191.697968 
	C272.866302,190.719421 269.931183,191.277557 267.024475,193.574173 
	C256.740326,201.699692 248.163086,211.413193 240.315491,221.812988 
	C219.946335,248.806641 203.991409,278.402008 188.926315,309.377869 
M342.624756,260.191620 
	C350.618195,228.200714 358.377289,196.136353 371.498657,165.716339 
	C372.606750,163.147339 371.914856,161.448730 369.995667,159.582031 
	C358.340637,148.245850 346.942657,145.722977 332.148560,152.557175 
	C316.720337,159.684311 301.920380,168.069702 287.699585,177.421738 
	C287.032806,177.860229 286.233612,178.278580 286.208679,179.594635 
	C289.787964,181.329956 293.572174,182.971039 297.172485,184.947281 
	C307.065094,190.377365 312.908020,198.789871 314.091400,209.981430 
	C314.897675,217.606354 314.333405,225.262848 312.736694,232.840897 
	C308.223724,254.259903 300.594543,274.732635 293.717438,295.417969 
	C282.603424,328.847321 275.985687,362.962128 275.995453,398.298859 
	C275.999634,413.470947 276.122833,428.634766 277.442108,443.742615 
	C278.906342,460.510345 281.423584,477.128479 286.726868,493.192169 
	C287.430878,495.324615 287.741241,497.767487 290.093781,499.157135 
	C292.338043,497.574707 292.847809,495.033417 293.746246,492.798370 
	C303.020508,469.726410 309.799591,445.871094 315.750366,421.772217 
	C320.619751,402.052521 325.474945,382.201019 326.499542,361.913116 
	C328.230133,327.647400 334.171356,294.167450 342.624756,260.191620 
z"/>
</svg>