<svg version="1.1" id="Layer_1" xmlns="http://www.w3.org/2000/svg" xmlns:xlink="http://www.w3.org/1999/xlink" x="0px" y="0px"
	 width="100%" viewBox="0 0 544 1024" enable-background="new 0 0 544 1024" xml:space="preserve">
<path fill="#000000" opacity="1.000000" stroke="none" 
	d="
M437.247375,639.953613 
	C438.314545,655.196838 439.376312,669.972168 440.409668,684.749451 
	C440.529816,686.467651 441.023468,688.021790 442.043549,689.391541 
	C453.839264,705.230896 460.735809,723.521240 467.898712,741.630981 
	C477.894958,766.904236 486.299591,792.672668 490.770752,819.592651 
	C495.727356,849.435364 494.849030,878.461792 478.218750,905.030396 
	C458.858551,935.960205 433.176178,960.078430 399.995361,975.757324 
	C383.868134,983.377991 367.853394,982.739929 351.880188,974.778259 
	C338.344971,968.031860 326.342041,959.128784 314.700226,949.642578 
	C309.533691,945.432617 304.254517,941.342102 299.317383,936.875732 
	C295.687439,933.591919 293.194733,933.399719 289.480194,937.200623 
	C273.247650,953.810608 255.477661,968.653809 235.878891,981.167664 
	C221.539703,990.323242 206.543076,997.765442 188.727554,996.324463 
	C176.507782,995.336121 165.454453,990.829712 154.834778,985.105591 
	C127.049690,970.129211 103.093651,950.451843 83.615784,925.606506 
	C71.292854,909.887939 65.955002,891.346008 64.824829,871.686401 
	C61.525204,814.288635 76.831718,761.333252 103.835930,711.262878 
	C104.151878,710.677002 104.426483,710.028503 104.878365,709.562378 
	C116.699669,697.367432 118.822510,681.557800 121.694397,665.846191 
	C125.132950,647.034546 129.616180,628.408569 131.167282,609.285400 
	C132.796204,589.202576 133.944550,569.116150 133.239578,548.935913 
	C132.378403,524.284607 132.819565,499.644379 134.605850,475.023285 
	C136.814636,444.578430 141.690506,414.615204 149.236938,385.024414 
	C166.010559,319.252319 196.712555,260.440887 238.045975,207.003036 
	C256.734558,182.841553 281.080383,165.482788 308.131836,151.740372 
	C314.810516,148.347534 321.338898,144.685547 328.305847,141.834290 
	C344.626740,135.155014 360.154510,136.161835 374.986023,145.898972 
	C376.935822,147.179016 378.995880,148.314194 380.830444,149.740799 
	C383.250549,151.622787 384.955902,151.304901 387.243713,149.166962 
	C396.152496,140.841721 406.836090,140.954178 415.973450,149.061478 
	C425.369934,157.398743 429.150085,168.536774 431.192352,180.339951 
	C434.300201,198.301178 434.393646,216.404648 433.606445,234.609283 
	C432.434021,261.723816 432.307251,288.838562 434.828918,315.948547 
	C437.481384,344.464630 439.777130,373.054016 438.976532,401.728668 
	C438.200531,429.521606 435.992981,457.235596 433.573029,484.943176 
	C430.730682,517.486755 429.616760,550.086121 432.847778,582.730957 
	C434.716217,601.609192 435.797791,620.565308 437.247375,639.953613 
M470.152740,782.252380 
	C463.316406,760.642151 455.525421,739.387817 446.090576,718.768860 
	C441.006256,707.657532 435.436310,696.546143 425.657501,688.910889 
	C399.493500,668.481995 370.255615,658.158325 337.049103,667.017151 
	C304.817749,675.615784 272.975006,675.624939 240.947662,666.714722 
	C233.407928,664.617188 225.678879,663.236633 217.785553,663.520142 
	C198.913864,664.198059 180.870956,668.707275 163.631348,676.174438 
	C144.585495,684.424072 126.889114,694.814209 116.165276,713.523804 
	C88.309723,762.122681 73.316620,814.076721 76.191971,870.542664 
	C77.168747,889.724548 82.891365,907.295898 95.212509,922.127686 
	C114.607391,945.474976 137.983475,964.030762 165.094421,977.765869 
	C184.581772,987.638550 203.630264,987.348999 222.633133,975.889771 
	C240.281845,965.247131 256.154175,952.390076 271.481567,938.769409 
	C275.836334,934.899597 279.821716,930.616272 284.136475,926.698730 
	C300.133911,912.174072 303.813385,892.987793 304.678772,872.736816 
	C304.841614,868.926331 305.538483,865.587585 310.100067,865.162537 
	C313.723389,864.824951 316.258270,867.839050 316.115967,872.722168 
	C315.701019,886.963440 313.449432,900.850037 307.783722,914.072571 
	C306.230255,917.698059 301.948792,920.860168 303.029968,924.629028 
	C304.129059,928.460266 308.949341,930.182190 312.114410,932.849182 
	C325.244568,943.913452 338.598907,954.666321 353.742615,962.974182 
	C367.824463,970.699524 381.962463,971.960510 396.728363,964.712463 
	C422.083496,952.266663 442.506836,934.115051 459.736725,911.955688 
	C476.099426,890.911682 483.771545,867.358582 481.809448,840.696777 
	C480.359528,820.994873 475.855133,801.913818 470.152740,782.252380 
M288.061218,276.693420 
	C293.803406,259.491058 300.371063,242.545166 303.275818,224.496033 
	C305.341705,211.659622 301.805359,203.394394 290.734619,196.638138 
	C286.426178,194.008774 281.707184,192.490738 276.854797,191.160660 
	C272.711639,190.024994 269.599579,190.949402 266.390289,193.748535 
	C261.598785,197.927658 256.983765,202.284454 252.975952,207.167557 
	C217.001114,250.999344 189.403015,299.672363 170.739594,353.165741 
	C152.422348,405.666992 144.445221,460.015198 144.246567,515.577698 
	C144.168564,537.398010 145.166275,559.209167 144.331253,581.038086 
	C143.342529,606.884155 140.793442,632.501038 134.840118,657.721619 
	C133.060074,665.262756 131.433029,672.844727 130.493774,681.228027 
	C132.320740,680.143433 133.614746,679.445312 134.837051,678.638611 
	C146.595444,670.878479 159.256683,664.972107 172.606857,660.585815 
	C197.593124,652.376526 222.635361,649.411560 248.663513,656.856934 
	C277.674805,665.155640 306.952545,663.969482 335.914581,655.506165 
	C343.965790,653.153381 352.220520,651.731018 360.570251,652.232178 
	C378.229767,653.291992 394.962372,658.107971 410.970062,665.610352 
	C416.827881,668.355713 422.123627,672.065674 428.387848,675.643799 
	C427.843872,668.533752 427.349945,662.132446 426.865082,655.730469 
	C425.079590,632.155640 423.737579,608.536926 421.407654,585.016113 
	C418.124390,551.871338 419.141479,518.799316 422.075714,485.758881 
	C424.580109,457.559052 426.813507,429.344208 427.574127,401.053558 
	C428.336090,372.712036 425.951447,344.461700 423.408813,316.261658 
	C420.888458,288.308594 421.261322,260.323853 422.241882,232.356400 
	C422.851562,214.966888 422.392487,197.715149 419.440216,180.590881 
	C418.311157,174.041748 416.423859,167.595932 412.373322,162.060471 
	C405.505249,152.674561 397.872650,152.645538 391.204376,162.031967 
	C387.023773,167.916672 384.158661,174.498199 381.368958,181.095276 
	C372.773621,201.421814 367.533112,222.798325 361.942810,244.051895 
	C354.869812,270.942535 348.629242,298.027344 345.144348,325.649048 
	C343.040375,342.325562 341.828857,359.118958 339.540802,375.766998 
	C335.382233,406.024780 327.468262,435.454651 318.708954,464.652710 
	C314.068634,480.120819 309.744781,495.758820 301.612823,509.890564 
	C295.753204,520.073486 287.285492,519.822876 281.522064,509.552338 
	C276.165131,500.006195 273.051971,489.673065 270.725311,479.051758 
	C267.327362,463.539825 265.975189,447.787933 265.287964,431.972595 
	C264.137024,405.486664 263.837585,379.027435 268.182617,352.730164 
	C272.428925,327.030762 279.315918,302.030609 288.061218,276.693420 
M351.108521,239.758041 
	C357.975342,214.023285 364.415009,188.145752 376.379517,164.114243 
	C377.075623,162.716125 377.503754,161.582352 375.997406,160.168304 
	C363.641968,148.569977 346.970612,145.885864 330.856628,153.285324 
	C320.259644,158.151398 309.881134,163.491287 299.875854,169.483002 
	C294.412537,172.754745 288.717346,175.783386 283.311188,180.542923 
	C286.179840,181.756592 288.305359,182.626556 290.407440,183.549820 
	C308.429749,191.465347 316.779388,204.383041 315.076996,222.063339 
	C314.647461,226.524002 313.796509,230.965149 312.841309,235.350357 
	C309.395844,251.168030 303.906799,266.387817 298.465973,281.567413 
	C281.747711,328.210663 273.400208,376.066376 276.344788,425.687195 
	C277.478088,444.784790 278.103577,463.959961 283.302856,482.548737 
	C285.284668,489.634247 286.987244,496.895935 291.673523,503.542664 
	C294.792297,499.265961 296.302948,495.040619 297.843933,490.879883 
	C305.888397,469.159790 312.201324,446.915253 317.940948,424.489624 
	C323.350006,403.355499 327.877167,382.088196 329.902924,360.314850 
	C331.350647,344.753571 332.774445,329.177673 335.245575,313.729919 
	C339.190979,289.066101 344.716980,264.738708 351.108521,239.758041 
z"/>
</svg>