<?xml version="1.0" encoding="UTF-8"?>
<svg version="1.1" xmlns="http://www.w3.org/2000/svg" width="672" height="1247">
<path d="M0 0 C221.76 0 443.52 0 672 0 C672 411.51 672 823.02 672 1247 C450.24 1247 228.48 1247 0 1247 C0 835.49 0 423.98 0 0 Z " fill="#FEFEFE" transform="translate(0,0)"/>
<path d="M0 0 C1.08796875 0.40734375 2.1759375 0.8146875 3.296875 1.234375 C7.48626972 2.84568066 11.1501691 4.69010146 15 7 C17.57986842 8.09448963 20.17932726 9.12183873 22.79296875 10.1328125 C25 11 25 11 27 12 C27 12.66 27 13.32 27 14 C27.84175781 14.24492188 28.68351562 14.48984375 29.55078125 14.7421875 C33.3797051 16.13846551 36.72977136 18.004606 40.1875 20.125 C40.84387451 20.52460937 41.50024902 20.92421875 42.17651367 21.3359375 C51.92236309 27.34142374 60.70091768 34.11465493 69 42 C69.50821289 42.47566406 70.01642578 42.95132813 70.54003906 43.44140625 C89.18162169 60.97323742 101.65766354 82.44072557 109.29882812 106.82592773 C109.74705139 108.21570077 110.22093789 109.59762252 110.72729492 110.96728516 C112.94618163 117.07084191 113.87234605 123.06822992 114.625 129.5 C114.86353659 131.46919568 115.10552838 133.43797701 115.3515625 135.40625 C115.45291504 136.26541016 115.55426758 137.12457031 115.65869141 138.00976562 C115.80186401 139.99433557 115.80186401 139.99433557 117 141 C117.16464657 143.40287713 117.26171428 145.77344522 117.30859375 148.1796875 C117.32381073 148.9265683 117.33902771 149.6734491 117.35470581 150.44296265 C117.69090208 170.89634604 115.90072896 190.02814306 111.79931641 210.046875 C111.04414286 213.74058291 110.36234789 217.44480724 109.69921875 221.15625 C107.14978051 235.30331458 103.87415864 249.15998418 100 263 C99.73993164 263.93956543 99.47986328 264.87913086 99.21191406 265.84716797 C95.74200496 278.31887919 91.88125731 290.65040306 87.8125 302.9375 C87.60226196 303.57615997 87.39202393 304.21481995 87.17541504 304.87283325 C85.04226012 311.33440544 82.83824767 317.67065666 79.97631836 323.84692383 C78.90368204 326.21241013 77.942367 328.60623393 76.9921875 331.0234375 C72.08074634 343.47695256 66.57034141 355.33606458 60 367 C59.6184375 367.68175293 59.236875 368.36350586 58.84375 369.06591797 C51.38400611 382.27911884 42.44463929 393.97604956 32 405 C31.55962402 405.4729248 31.11924805 405.94584961 30.66552734 406.43310547 C15.64816307 422.48470909 -2.43586818 433.45981833 -23 441 C-23.83273437 441.31839844 -24.66546875 441.63679688 -25.5234375 441.96484375 C-49.69827152 450.73585754 -78.09476695 447.4146012 -101.10546875 436.90234375 C-112.8261897 431.31989728 -123.16285419 424.45135176 -133 416 C-133.56348145 415.5162793 -134.12696289 415.03255859 -134.70751953 414.53417969 C-151.10294749 400.28750727 -163.20685193 383.28628722 -173 364 C-173.74443359 362.56914063 -173.74443359 362.56914063 -174.50390625 361.109375 C-176.67801106 356.87798295 -178.59013429 352.66953971 -180.19140625 348.19140625 C-182.49178029 341.95705922 -185.13562707 335.8365268 -187.9375 329.8125 C-190.83365033 323.37530757 -192.9981968 316.64188733 -195.30810547 309.97851562 C-196.19811659 307.43347324 -197.12744932 304.90380102 -198.0625 302.375 C-200.06222342 296.90468222 -201.90027012 291.38299163 -203.72265625 285.8515625 C-204.52383311 283.42195273 -205.34549019 281.00343753 -206.18359375 278.5859375 C-209.35536618 269.37219858 -212.00839129 260.04938298 -214.58935547 250.65478516 C-216.22882824 244.66510412 -216.22882824 244.66510412 -218.11328125 238.75 C-219.24420664 235.24263666 -219.8760977 231.68593256 -220.5 228.0625 C-221.1619936 224.23966885 -221.83925489 220.53104458 -222.96484375 216.8125 C-224.47260037 211.2594039 -225.22727143 205.62531131 -226.0625 199.9375 C-226.40730829 197.63407808 -226.75235254 195.33069146 -227.09765625 193.02734375 C-227.24726807 192.01406006 -227.39687988 191.00077637 -227.55102539 189.95678711 C-227.84512219 188.0199702 -228.17553748 186.08824136 -228.54589844 184.16455078 C-229.11440662 180.20272119 -229.1622758 176.33694097 -229.16796875 172.33984375 C-229.17129715 171.51351944 -229.17462555 170.68719513 -229.17805481 169.83583069 C-229.18310113 168.09018507 -229.18546385 166.34452986 -229.18530273 164.59887695 C-229.18747313 161.97004609 -229.2056087 159.3416465 -229.22460938 156.71289062 C-229.25514631 147.26288334 -228.86946519 138.29648498 -227 129 C-226.34 129 -225.68 129 -225 129 C-224.9175 127.7625 -224.835 126.525 -224.75 125.25 C-221.60230807 97.05377369 -199.79644879 69.05600464 -181 49 C-179.655663 47.49902196 -178.31134165 45.9980298 -176.9675293 44.49658203 C-155.60926125 20.79651257 -127.2324806 1.30822507 -96.06103516 -6.46484375 C-94.07387514 -6.98081802 -92.12680939 -7.57382686 -90.16796875 -8.1875 C-60.71967995 -16.7614658 -27.88559164 -10.72926339 0 0 Z " fill="#FEFEFE" transform="translate(385,62)"/>
<path d="M0 0 C0.67228638 -0.00358521 1.34457275 -0.00717041 2.03723145 -0.01086426 C14.66648816 -0.04704242 27.26898687 0.8460723 39.4375 4.4375 C40.17669678 4.65140381 40.91589355 4.86530762 41.67749023 5.08569336 C77.30898313 15.67424508 111.8714845 32.37044344 138.875 58.3125 C139.37064453 58.7770459 139.86628906 59.2415918 140.37695312 59.72021484 C153.70162919 72.23941991 163.34993109 86.20252694 171.875 102.3125 C172.59623047 103.63314453 172.59623047 103.63314453 173.33203125 104.98046875 C182.42194597 122.20802142 187.11451347 141.16049703 189.875 160.3125 C190.06449219 161.55257812 190.25398438 162.79265625 190.44921875 164.0703125 C191.12242113 169.63226273 191.02433653 175.21834295 191 180.8125 C190.99274902 182.55660156 190.99274902 182.55660156 190.98535156 184.3359375 C190.86231046 202.01448376 188.77115158 218.88058289 185.875 236.3125 C185.72208496 237.24094727 185.56916992 238.16939453 185.41162109 239.12597656 C185.01079892 241.54361968 184.60221306 243.95970482 184.1875 246.375 C184.06842285 247.07681396 183.9493457 247.77862793 183.82666016 248.50170898 C182.99494575 253.19255425 182.99494575 253.19255425 181.875 254.3125 C181.55145728 256.09543881 181.27175757 257.88638594 181.01171875 259.6796875 C180.03449983 265.78077593 178.50101278 271.53929918 176.6875 277.4375 C174.04499483 286.23237076 171.5852697 295.05627188 169.25 303.9375 C167.15208933 311.86210018 164.93756785 319.62020055 162.015625 327.28515625 C159.88749026 332.93345908 158.07366113 338.68844651 156.2265625 344.43359375 C150.66967543 361.61783638 150.66967543 361.61783638 147.015625 368.1796875 C145.77981813 370.40586435 145.77981813 370.40586435 144.6640625 373.2421875 C143.1901702 376.74687951 141.46017077 380.08627967 139.6953125 383.453125 C138.77735252 385.2219253 137.85940214 386.99073063 136.94189453 388.75976562 C136.02071033 390.52286157 135.0827979 392.27718519 134.14453125 394.03125 C125.06585465 411.68315226 122.46249744 431.11006822 119.1875 450.5 C118.60237948 453.92830835 118.01482673 457.35617363 117.42411804 460.78352356 C117.06092776 462.89429594 116.70117662 465.00566416 116.34553528 467.11772156 C115.61867892 471.37129062 114.85475878 475.575032 113.78149414 479.75610352 C113.105037 482.41000904 112.59269079 484.7750371 112.3828125 487.484375 C112.31964844 488.21760986 112.25648438 488.95084473 112.19140625 489.70629883 C112.12824219 490.48384521 112.06507813 491.2613916 112 492.0625 C111.20648975 500.78690985 110.10231074 509.45140191 108.875 518.125 C108.70887207 519.32286133 108.54274414 520.52072266 108.37158203 521.75488281 C108.20770996 522.8940918 108.04383789 524.03330078 107.875 525.20703125 C107.730625 526.21612549 107.58625 527.22521973 107.4375 528.26489258 C106.875 531.3125 106.875 531.3125 105.91870117 534.41699219 C104.34602645 539.73908436 103.84991747 545.25337996 103.17578125 550.74609375 C103.01986511 551.98446487 102.86394897 553.222836 102.70330811 554.49873352 C102.27989137 557.87836534 101.86192755 561.25857606 101.44710159 564.63926697 C101.18710857 566.75318261 100.92482447 568.86680191 100.66183472 570.98034668 C97.62242852 595.42571335 94.86337305 619.89927252 92.26398277 644.39513683 C92.05123076 646.39909477 91.83742636 648.40294088 91.62359619 650.40678406 C91.36346108 652.84962463 91.10586229 655.29273714 90.85125732 657.73616028 C90.73671204 658.81290512 90.62216675 659.88964996 90.50415039 660.99902344 C90.40614639 661.93405701 90.3081424 662.86909058 90.20716858 663.8324585 C89.90855277 666.06198785 89.42477812 668.13594325 88.875 670.3125 C88.69745755 672.81500305 88.54985755 675.30716574 88.4375 677.8125 C88.16434938 683.7172027 87.40133724 689.34736756 86.38989258 695.16992188 C85.53910221 700.3626073 84.98520205 705.58044327 84.4375 710.8125 C84.31262207 711.98941406 84.18774414 713.16632812 84.05908203 714.37890625 C82.48391247 729.59177979 81.25859167 744.8380893 80.05941772 760.08457947 C79.92273733 761.73579307 79.77428985 763.38604178 79.61953735 765.03565979 C78.94822195 772.39906815 78.71103034 779.69817303 78.6640625 787.08984375 C78.63789732 789.66626518 78.61117505 792.24268099 78.58398438 794.8190918 C78.57050157 796.19957425 78.55707487 797.58005726 78.54370117 798.96054077 C78.24290286 829.1558765 77.40451701 859.321479 76.375 889.5 C75.14729968 925.36556881 75.14729968 925.36556881 74.41809082 961.24389648 C74.11677464 984.01247397 73.54713035 1006.77045483 72.80053711 1029.5284729 C72.68360155 1033.11027968 72.57576499 1036.69215815 72.47680664 1040.27450562 C70.3520223 1116.23793893 70.3520223 1116.23793893 49.1875 1139.8125 C41.40687697 1146.86135618 32.46692768 1149.17266971 22.12890625 1148.71875 C11.7324896 1147.42075801 4.51127537 1140.88933123 -2.03125 1133.01953125 C-11.67725599 1119.23012723 -16.05883453 1101.325855 -20.33598328 1085.25491333 C-20.89326337 1083.17669581 -21.46078967 1081.10121288 -22.0355835 1079.027771 C-24.43010056 1070.28852572 -26.41397516 1061.54844197 -28.0625 1052.6328125 C-28.18817352 1051.95791904 -28.31384705 1051.28302559 -28.44332886 1050.58768082 C-31.45516618 1034.32801466 -33.68716516 1017.97185868 -35.81418228 1001.57674026 C-36.1311582 999.14016225 -36.45149674 996.70404728 -36.77279663 994.26803589 C-40.23047173 968.03709847 -43.34894955 941.78023548 -46.14413452 915.46986389 C-47.23060908 905.25432073 -48.38471118 895.04679999 -49.55062866 884.84005737 C-49.86061146 882.12597989 -50.16937459 879.41176652 -50.4777832 876.69750977 C-50.93506107 872.67673341 -51.3955086 868.65633151 -51.8581543 864.63616943 C-52.03947975 863.05720299 -52.21995051 861.4781382 -52.3996582 859.89898682 C-52.66549317 857.56393553 -52.93401147 855.22920666 -53.203125 852.89453125 C-53.28149597 852.20115158 -53.35986694 851.50777191 -53.44061279 850.79338074 C-53.85144384 847.25604416 -54.41656037 843.80040723 -55.125 840.3125 C-55.27713874 837.81066295 -55.39897119 835.31619362 -55.5 832.8125 C-56.04948959 821.55670524 -57.63453138 810.35482024 -59.6875 799.27734375 C-60.40601456 794.40812452 -60.52056431 789.50706885 -60.73046875 784.59375 C-60.8228338 780.31708449 -60.8228338 780.31708449 -62.125 776.3125 C-62.30040497 774.6838181 -62.42312431 773.04932314 -62.51953125 771.4140625 C-62.58599854 770.39022461 -62.65246582 769.36638672 -62.72094727 768.31152344 C-62.79240967 767.1980957 -62.86387207 766.08466797 -62.9375 764.9375 C-64.00655853 749.61468726 -66.01806324 734.40528731 -68.65454102 719.27319336 C-69.08675371 716.55319162 -69.36330454 713.89053953 -69.5546875 711.14453125 C-69.62816406 710.16677734 -69.70164062 709.18902344 -69.77734375 708.18164062 C-69.92206076 706.1949553 -70.06290234 704.20798253 -70.19921875 702.22070312 C-70.74636528 695.06606672 -71.75872206 688.05719897 -72.91786194 680.98309326 C-73.91676567 674.81652203 -74.75791603 668.64155279 -75.51953125 662.44140625 C-75.6339003 661.51144836 -75.74826935 660.58149048 -75.86610413 659.62335205 C-76.10193474 657.69950578 -76.33732527 655.77560552 -76.57229614 653.85165405 C-78.65442778 636.88089798 -81.01749235 620.0028931 -83.94018555 603.15698242 C-84.18821017 601.72578713 -84.43601421 600.2945536 -84.68359375 598.86328125 C-84.80470016 598.16335556 -84.92580658 597.46342987 -85.05058289 596.74229431 C-85.93653835 591.56149016 -86.72664473 586.37065813 -87.47265625 581.16796875 C-87.63578056 580.03239784 -87.63578056 580.03239784 -87.80220032 578.87388611 C-88.31279932 575.30041339 -88.81337468 571.72584263 -89.30102539 568.14916992 C-90.37267415 560.544028 -91.78189371 553.14490973 -93.50808716 545.66764832 C-95.96515425 534.85968847 -97.74048759 523.91908663 -99.625 513 C-100.3831515 508.62851011 -101.14383473 504.25746695 -101.90625 499.88671875 C-102.09063126 498.82828766 -102.27501251 497.76985657 -102.46498108 496.67935181 C-103.99002319 487.97337007 -105.62471303 479.2908306 -107.30444336 470.61352539 C-108.15952118 466.17878662 -108.91637884 461.73129748 -109.640625 457.2734375 C-110.58607291 451.49400592 -111.60338295 445.72849885 -112.64794922 439.96630859 C-112.99320538 438.04566659 -113.33263297 436.1239738 -113.66845703 434.20166016 C-114.26526484 430.79851168 -114.88136218 427.39924185 -115.5 424 C-115.68473877 422.92733887 -115.86947754 421.85467773 -116.05981445 420.74951172 C-117.97334258 410.42709497 -121.7727004 401.4424872 -127.0078125 392.38671875 C-128.40188625 389.79842098 -129.35188135 387.1559966 -130.3203125 384.38671875 C-131.22538438 382.05374221 -132.33642373 379.90263122 -133.5 377.6875 C-136.15228628 372.51036463 -138.04620445 367.16668061 -139.9453125 361.67578125 C-140.91502974 358.91112381 -141.94636144 356.20732784 -143.0625 353.5 C-145.21822651 348.22460422 -147.07725251 342.85080278 -148.93139648 337.46362305 C-150.03038434 334.29625536 -151.16031812 331.23437203 -152.54296875 328.17578125 C-155.07401881 322.39626332 -156.61093718 316.23306797 -158.375 310.1875 C-160.70171748 302.25829332 -163.04312046 294.36209692 -165.84960938 286.58618164 C-173.80704538 264.399496 -178.63344785 239.7320477 -181.125 216.3125 C-181.21491211 215.48411621 -181.30482422 214.65573242 -181.39746094 213.80224609 C-183.72527338 189.58711415 -184.28010588 163.7156588 -177.125 140.3125 C-176.91101563 139.58885254 -176.69703125 138.86520508 -176.4765625 138.11962891 C-171.38641287 121.478453 -162.2759918 105.34218402 -152.125 91.3125 C-151.63692871 90.61979004 -151.14885742 89.92708008 -150.64599609 89.21337891 C-142.57900559 77.76726659 -133.98343238 67.25696218 -124.125 57.3125 C-123.517771 56.69858398 -122.91054199 56.08466797 -122.28491211 55.45214844 C-100.9784095 34.01893873 -75.81288685 17.79404409 -47.20947266 8.03076172 C-45.41555274 7.41261785 -43.63409075 6.75853014 -41.85546875 6.09765625 C-28.02761592 1.08482314 -14.55415009 0.03113277 0 0 Z M-42.125 20.3125 C-42.90842773 20.55274902 -43.69185547 20.79299805 -44.49902344 21.04052734 C-66.98849045 28.15598119 -86.66525757 41.75392952 -104.125 57.3125 C-104.63514648 57.76093262 -105.14529297 58.20936523 -105.67089844 58.67138672 C-130.53464736 80.56315297 -152.12049159 109.31580901 -162.8125 140.875 C-163.14991211 141.82536133 -163.14991211 141.82536133 -163.49414062 142.79492188 C-164.83824954 146.76188161 -165.36328238 150.13289818 -165.125 154.3125 C-165.785 154.3125 -166.445 154.3125 -167.125 154.3125 C-169.19973483 164.9726738 -169.52108295 175.36205786 -169.5 186.1875 C-169.50078552 187.04567322 -169.50157104 187.90384644 -169.50238037 188.7880249 C-169.4880513 201.88326889 -168.49914241 214.30975896 -165.59912109 227.11621094 C-164.92401871 230.24351323 -164.49263717 233.39345517 -164.0625 236.5625 C-163.35016088 241.37236501 -162.19535571 245.91828462 -160.8359375 250.58203125 C-160.10085203 253.40524412 -159.65863793 256.17504895 -159.25 259.0625 C-158.42245789 264.3833906 -156.92144026 269.26590647 -155.14624023 274.34301758 C-153.49351984 279.09987445 -152.10899107 283.88504062 -150.8125 288.75 C-147.74775248 300.09908522 -143.93903673 311.19725477 -140.125 322.3125 C-139.80708496 323.2401416 -139.48916992 324.1677832 -139.16162109 325.12353516 C-134.65205552 338.24076653 -130.08856238 351.2956459 -124.24609375 363.890625 C-122.80526624 367.00321404 -121.46898476 370.15705752 -120.125 373.3125 C-118.80283649 376.31748467 -117.4638353 379.31491227 -116.125 382.3125 C-115.78734619 383.07191895 -115.44969238 383.83133789 -115.10180664 384.61376953 C-110.31752331 395.29565278 -105.26415949 404.98160573 -98.125 414.3125 C-97.47917969 415.1684375 -96.83335937 416.024375 -96.16796875 416.90625 C-75.1394662 443.97348749 -45.94864227 466.44212442 -11.125 471.3125 C23.37246677 473.613794 52.89759678 464.11386782 79.56640625 442.08984375 C82.05982961 439.88458489 84.47458454 437.61855951 86.875 435.3125 C87.81859375 434.43207031 88.7621875 433.55164063 89.734375 432.64453125 C102.09139292 420.90445696 111.5582654 407.11928603 119.875 392.3125 C120.20951172 391.72710449 120.54402344 391.14170898 120.88867188 390.53857422 C134.97475411 365.7780973 144.64510848 338.15287147 153.03564453 311.02050781 C153.80472441 308.53922973 154.58665632 306.06239126 155.37109375 303.5859375 C163.29303967 278.26782655 168.89460369 252.71397407 172.87191772 226.50917053 C173.39508012 223.11514149 173.97236346 219.7528987 174.69970703 216.39624023 C176.80204301 206.48921448 177.2816161 197.04346452 177.15625 186.92504883 C177.1243939 184.32554138 177.11519465 181.72663865 177.109375 179.12695312 C177.10022916 177.47134666 177.08986126 175.81574638 177.078125 174.16015625 C177.07175018 172.99638206 177.07175018 172.99638206 177.06524658 171.80909729 C177.33974219 168.26550637 177.33974219 168.26550637 175.875 165.3125 C175.61361589 163.78832024 175.40773393 162.25453074 175.2265625 160.71875 C175.10796875 159.77 174.989375 158.82125 174.8671875 157.84375 C174.62623903 155.85464347 174.38913021 153.86506728 174.15625 151.875 C173.37490136 145.6907086 172.03333014 140.15064176 169.875 134.3125 C169.43214885 132.93921412 168.99401614 131.56438964 168.5625 130.1875 C157.48726888 97.47036316 137.49833544 68.89150988 107.875 50.3125 C107.22837402 49.9014502 106.58174805 49.49040039 105.91552734 49.06689453 C103.91086441 47.80041073 101.89687065 46.55130958 99.875 45.3125 C98.95811401 44.75067017 98.95811401 44.75067017 98.02270508 44.17749023 C94.41021277 42.03268176 90.90530476 40.49210139 86.875 39.3125 C86.875 38.6525 86.875 37.9925 86.875 37.3125 C82.2601706 34.92267763 77.75478881 32.78964947 72.83203125 31.12109375 C70.875 30.3125 70.875 30.3125 68.63671875 28.90625 C65.1771398 26.90977445 61.64522083 25.66203166 57.875 24.375 C57.12025391 24.11485107 56.36550781 23.85470215 55.58789062 23.58666992 C53.35266034 22.82132594 51.11411 22.06640218 48.875 21.3125 C47.7509375 20.92578125 46.626875 20.5390625 45.46875 20.140625 C31.21765273 15.46223448 16.86952834 13.69360149 1.9375 13.75 C0.8130397 13.74972809 0.8130397 13.74972809 -0.33413696 13.74945068 C-14.82931284 13.7988641 -28.25631845 15.98455861 -42.125 20.3125 Z " fill="#FDFDFD" transform="translate(325.125,36.6875)"/>
<path d="M0 0 C0.67228638 -0.00358521 1.34457275 -0.00717041 2.03723145 -0.01086426 C14.66648816 -0.04704242 27.26898687 0.8460723 39.4375 4.4375 C40.17669678 4.65140381 40.91589355 4.86530762 41.67749023 5.08569336 C77.30898313 15.67424508 111.8714845 32.37044344 138.875 58.3125 C139.37064453 58.7770459 139.86628906 59.2415918 140.37695312 59.72021484 C153.70162919 72.23941991 163.34993109 86.20252694 171.875 102.3125 C172.59623047 103.63314453 172.59623047 103.63314453 173.33203125 104.98046875 C182.42194597 122.20802142 187.11451347 141.16049703 189.875 160.3125 C190.06449219 161.55257812 190.25398438 162.79265625 190.44921875 164.0703125 C191.12242113 169.63226273 191.02433653 175.21834295 191 180.8125 C190.99274902 182.55660156 190.99274902 182.55660156 190.98535156 184.3359375 C190.86231046 202.01448376 188.77115158 218.88058289 185.875 236.3125 C185.72208496 237.24094727 185.56916992 238.16939453 185.41162109 239.12597656 C185.01079892 241.54361968 184.60221306 243.95970482 184.1875 246.375 C184.06842285 247.07681396 183.9493457 247.77862793 183.82666016 248.50170898 C182.99494575 253.19255425 182.99494575 253.19255425 181.875 254.3125 C181.55145728 256.09543881 181.27175757 257.88638594 181.01171875 259.6796875 C180.03449983 265.78077593 178.50101278 271.53929918 176.6875 277.4375 C174.04499483 286.23237076 171.5852697 295.05627188 169.25 303.9375 C167.15208933 311.86210018 164.93756785 319.62020055 162.015625 327.28515625 C159.88749026 332.93345908 158.07366113 338.68844651 156.2265625 344.43359375 C150.66967543 361.61783638 150.66967543 361.61783638 147.015625 368.1796875 C145.77981813 370.40586435 145.77981813 370.40586435 144.6640625 373.2421875 C143.1901702 376.74687951 141.46017077 380.08627967 139.6953125 383.453125 C138.77735252 385.2219253 137.85940214 386.99073063 136.94189453 388.75976562 C136.02071033 390.52286157 135.0827979 392.27718519 134.14453125 394.03125 C125.06585465 411.68315226 122.46249744 431.11006822 119.1875 450.5 C118.60237948 453.92830835 118.01482673 457.35617363 117.42411804 460.78352356 C117.06092776 462.89429594 116.70117662 465.00566416 116.34553528 467.11772156 C115.61867892 471.37129062 114.85475878 475.575032 113.78149414 479.75610352 C113.105037 482.41000904 112.59269079 484.7750371 112.3828125 487.484375 C112.31964844 488.21760986 112.25648438 488.95084473 112.19140625 489.70629883 C112.12824219 490.48384521 112.06507813 491.2613916 112 492.0625 C111.20648975 500.78690985 110.10231074 509.45140191 108.875 518.125 C108.70887207 519.32286133 108.54274414 520.52072266 108.37158203 521.75488281 C108.20770996 522.8940918 108.04383789 524.03330078 107.875 525.20703125 C107.730625 526.21612549 107.58625 527.22521973 107.4375 528.26489258 C106.875 531.3125 106.875 531.3125 105.91870117 534.41699219 C104.34602645 539.73908436 103.84991747 545.25337996 103.17578125 550.74609375 C103.01986511 551.98446487 102.86394897 553.222836 102.70330811 554.49873352 C102.27989137 557.87836534 101.86192755 561.25857606 101.44710159 564.63926697 C101.18710857 566.75318261 100.92482447 568.86680191 100.66183472 570.98034668 C97.62242852 595.42571335 94.86337305 619.89927252 92.26398277 644.39513683 C92.05123076 646.39909477 91.83742636 648.40294088 91.62359619 650.40678406 C91.36346108 652.84962463 91.10586229 655.29273714 90.85125732 657.73616028 C90.73671204 658.81290512 90.62216675 659.88964996 90.50415039 660.99902344 C90.40614639 661.93405701 90.3081424 662.86909058 90.20716858 663.8324585 C89.90855277 666.06198785 89.42477812 668.13594325 88.875 670.3125 C88.69745755 672.81500305 88.54985755 675.30716574 88.4375 677.8125 C88.16434938 683.7172027 87.40133724 689.34736756 86.38989258 695.16992188 C85.53910221 700.3626073 84.98520205 705.58044327 84.4375 710.8125 C84.31262207 711.98941406 84.18774414 713.16632812 84.05908203 714.37890625 C82.48391247 729.59177979 81.25859167 744.8380893 80.05941772 760.08457947 C79.92273733 761.73579307 79.77428985 763.38604178 79.61953735 765.03565979 C78.94822195 772.39906815 78.71103034 779.69817303 78.6640625 787.08984375 C78.63789732 789.66626518 78.61117505 792.24268099 78.58398438 794.8190918 C78.57050157 796.19957425 78.55707487 797.58005726 78.54370117 798.96054077 C78.24290286 829.1558765 77.40451701 859.321479 76.375 889.5 C75.14729968 925.36556881 75.14729968 925.36556881 74.41809082 961.24389648 C74.11677464 984.01247397 73.54713035 1006.77045483 72.80053711 1029.5284729 C72.68360155 1033.11027968 72.57576499 1036.69215815 72.47680664 1040.27450562 C70.3520223 1116.23793893 70.3520223 1116.23793893 49.1875 1139.8125 C41.40687697 1146.86135618 32.46692768 1149.17266971 22.12890625 1148.71875 C11.7324896 1147.42075801 4.51127537 1140.88933123 -2.03125 1133.01953125 C-11.67725599 1119.23012723 -16.05883453 1101.325855 -20.33598328 1085.25491333 C-20.89326337 1083.17669581 -21.46078967 1081.10121288 -22.0355835 1079.027771 C-24.43010056 1070.28852572 -26.41397516 1061.54844197 -28.0625 1052.6328125 C-28.18817352 1051.95791904 -28.31384705 1051.28302559 -28.44332886 1050.58768082 C-31.45516618 1034.32801466 -33.68716516 1017.97185868 -35.81418228 1001.57674026 C-36.1311582 999.14016225 -36.45149674 996.70404728 -36.77279663 994.26803589 C-40.23047173 968.03709847 -43.34894955 941.78023548 -46.14413452 915.46986389 C-47.23060908 905.25432073 -48.38471118 895.04679999 -49.55062866 884.84005737 C-49.86061146 882.12597989 -50.16937459 879.41176652 -50.4777832 876.69750977 C-50.93506107 872.67673341 -51.3955086 868.65633151 -51.8581543 864.63616943 C-52.03947975 863.05720299 -52.21995051 861.4781382 -52.3996582 859.89898682 C-52.66549317 857.56393553 -52.93401147 855.22920666 -53.203125 852.89453125 C-53.28149597 852.20115158 -53.35986694 851.50777191 -53.44061279 850.79338074 C-53.85144384 847.25604416 -54.41656037 843.80040723 -55.125 840.3125 C-55.27713874 837.81066295 -55.39897119 835.31619362 -55.5 832.8125 C-56.04948959 821.55670524 -57.63453138 810.35482024 -59.6875 799.27734375 C-60.40601456 794.40812452 -60.52056431 789.50706885 -60.73046875 784.59375 C-60.8228338 780.31708449 -60.8228338 780.31708449 -62.125 776.3125 C-62.30040497 774.6838181 -62.42312431 773.04932314 -62.51953125 771.4140625 C-62.58599854 770.39022461 -62.65246582 769.36638672 -62.72094727 768.31152344 C-62.79240967 767.1980957 -62.86387207 766.08466797 -62.9375 764.9375 C-64.00655853 749.61468726 -66.01806324 734.40528731 -68.65454102 719.27319336 C-69.08675371 716.55319162 -69.36330454 713.89053953 -69.5546875 711.14453125 C-69.62816406 710.16677734 -69.70164062 709.18902344 -69.77734375 708.18164062 C-69.92206076 706.1949553 -70.06290234 704.20798253 -70.19921875 702.22070312 C-70.74636528 695.06606672 -71.75872206 688.05719897 -72.91786194 680.98309326 C-73.91676567 674.81652203 -74.75791603 668.64155279 -75.51953125 662.44140625 C-75.6339003 661.51144836 -75.74826935 660.58149048 -75.86610413 659.62335205 C-76.10193474 657.69950578 -76.33732527 655.77560552 -76.57229614 653.85165405 C-78.65442778 636.88089798 -81.01749235 620.0028931 -83.94018555 603.15698242 C-84.18821017 601.72578713 -84.43601421 600.2945536 -84.68359375 598.86328125 C-84.80470016 598.16335556 -84.92580658 597.46342987 -85.05058289 596.74229431 C-85.93653835 591.56149016 -86.72664473 586.37065813 -87.47265625 581.16796875 C-87.63578056 580.03239784 -87.63578056 580.03239784 -87.80220032 578.87388611 C-88.31279932 575.30041339 -88.81337468 571.72584263 -89.30102539 568.14916992 C-90.37267415 560.544028 -91.78189371 553.14490973 -93.50808716 545.66764832 C-95.96515425 534.85968847 -97.74048759 523.91908663 -99.625 513 C-100.3831515 508.62851011 -101.14383473 504.25746695 -101.90625 499.88671875 C-102.09063126 498.82828766 -102.27501251 497.76985657 -102.46498108 496.67935181 C-103.99002319 487.97337007 -105.62471303 479.2908306 -107.30444336 470.61352539 C-108.15952118 466.17878662 -108.91637884 461.73129748 -109.640625 457.2734375 C-110.58607291 451.49400592 -111.60338295 445.72849885 -112.64794922 439.96630859 C-112.99320538 438.04566659 -113.33263297 436.1239738 -113.66845703 434.20166016 C-114.26526484 430.79851168 -114.88136218 427.39924185 -115.5 424 C-115.68473877 422.92733887 -115.86947754 421.85467773 -116.05981445 420.74951172 C-117.97334258 410.42709497 -121.7727004 401.4424872 -127.0078125 392.38671875 C-128.40188625 389.79842098 -129.35188135 387.1559966 -130.3203125 384.38671875 C-131.22538438 382.05374221 -132.33642373 379.90263122 -133.5 377.6875 C-136.15228628 372.51036463 -138.04620445 367.16668061 -139.9453125 361.67578125 C-140.91502974 358.91112381 -141.94636144 356.20732784 -143.0625 353.5 C-145.21822651 348.22460422 -147.07725251 342.85080278 -148.93139648 337.46362305 C-150.03038434 334.29625536 -151.16031812 331.23437203 -152.54296875 328.17578125 C-155.07401881 322.39626332 -156.61093718 316.23306797 -158.375 310.1875 C-160.70171748 302.25829332 -163.04312046 294.36209692 -165.84960938 286.58618164 C-173.80704538 264.399496 -178.63344785 239.7320477 -181.125 216.3125 C-181.21491211 215.48411621 -181.30482422 214.65573242 -181.39746094 213.80224609 C-183.72527338 189.58711415 -184.28010588 163.7156588 -177.125 140.3125 C-176.91101563 139.58885254 -176.69703125 138.86520508 -176.4765625 138.11962891 C-171.38641287 121.478453 -162.2759918 105.34218402 -152.125 91.3125 C-151.63692871 90.61979004 -151.14885742 89.92708008 -150.64599609 89.21337891 C-142.57900559 77.76726659 -133.98343238 67.25696218 -124.125 57.3125 C-123.517771 56.69858398 -122.91054199 56.08466797 -122.28491211 55.45214844 C-100.9784095 34.01893873 -75.81288685 17.79404409 -47.20947266 8.03076172 C-45.41555274 7.41261785 -43.63409075 6.75853014 -41.85546875 6.09765625 C-28.02761592 1.08482314 -14.55415009 0.03113277 0 0 Z M-42.125 20.3125 C-42.90842773 20.55274902 -43.69185547 20.79299805 -44.49902344 21.04052734 C-66.98849045 28.15598119 -86.66525757 41.75392952 -104.125 57.3125 C-104.63514648 57.76093262 -105.14529297 58.20936523 -105.67089844 58.67138672 C-130.53464736 80.56315297 -152.12049159 109.31580901 -162.8125 140.875 C-163.14991211 141.82536133 -163.14991211 141.82536133 -163.49414062 142.79492188 C-164.83824954 146.76188161 -165.36328238 150.13289818 -165.125 154.3125 C-165.785 154.3125 -166.445 154.3125 -167.125 154.3125 C-169.19973483 164.9726738 -169.52108295 175.36205786 -169.5 186.1875 C-169.50078552 187.04567322 -169.50157104 187.90384644 -169.50238037 188.7880249 C-169.4880513 201.88326889 -168.49914241 214.30975896 -165.59912109 227.11621094 C-164.92401871 230.24351323 -164.49263717 233.39345517 -164.0625 236.5625 C-163.35016088 241.37236501 -162.19535571 245.91828462 -160.8359375 250.58203125 C-160.10085203 253.40524412 -159.65863793 256.17504895 -159.25 259.0625 C-158.42245789 264.3833906 -156.92144026 269.26590647 -155.14624023 274.34301758 C-153.49351984 279.09987445 -152.10899107 283.88504062 -150.8125 288.75 C-147.74775248 300.09908522 -143.93903673 311.19725477 -140.125 322.3125 C-139.80708496 323.2401416 -139.48916992 324.1677832 -139.16162109 325.12353516 C-134.65205552 338.24076653 -130.08856238 351.2956459 -124.24609375 363.890625 C-122.80526624 367.00321404 -121.46898476 370.15705752 -120.125 373.3125 C-118.80283649 376.31748467 -117.4638353 379.31491227 -116.125 382.3125 C-115.78734619 383.07191895 -115.44969238 383.83133789 -115.10180664 384.61376953 C-110.31752331 395.29565278 -105.26415949 404.98160573 -98.125 414.3125 C-97.47917969 415.1684375 -96.83335937 416.024375 -96.16796875 416.90625 C-75.1394662 443.97348749 -45.94864227 466.44212442 -11.125 471.3125 C23.37246677 473.613794 52.89759678 464.11386782 79.56640625 442.08984375 C82.05982961 439.88458489 84.47458454 437.61855951 86.875 435.3125 C87.81859375 434.43207031 88.7621875 433.55164063 89.734375 432.64453125 C102.09139292 420.90445696 111.5582654 407.11928603 119.875 392.3125 C120.20951172 391.72710449 120.54402344 391.14170898 120.88867188 390.53857422 C134.97475411 365.7780973 144.64510848 338.15287147 153.03564453 311.02050781 C153.80472441 308.53922973 154.58665632 306.06239126 155.37109375 303.5859375 C163.29303967 278.26782655 168.89460369 252.71397407 172.87191772 226.50917053 C173.39508012 223.11514149 173.97236346 219.7528987 174.69970703 216.39624023 C176.80204301 206.48921448 177.2816161 197.04346452 177.15625 186.92504883 C177.1243939 184.32554138 177.11519465 181.72663865 177.109375 179.12695312 C177.10022916 177.47134666 177.08986126 175.81574638 177.078125 174.16015625 C177.07175018 172.99638206 177.07175018 172.99638206 177.06524658 171.80909729 C177.33974219 168.26550637 177.33974219 168.26550637 175.875 165.3125 C175.61361589 163.78832024 175.40773393 162.25453074 175.2265625 160.71875 C175.10796875 159.77 174.989375 158.82125 174.8671875 157.84375 C174.62623903 155.85464347 174.38913021 153.86506728 174.15625 151.875 C173.37490136 145.6907086 172.03333014 140.15064176 169.875 134.3125 C169.43214885 132.93921412 168.99401614 131.56438964 168.5625 130.1875 C157.48726888 97.47036316 137.49833544 68.89150988 107.875 50.3125 C107.22837402 49.9014502 106.58174805 49.49040039 105.91552734 49.06689453 C103.91086441 47.80041073 101.89687065 46.55130958 99.875 45.3125 C98.95811401 44.75067017 98.95811401 44.75067017 98.02270508 44.17749023 C94.41021277 42.03268176 90.90530476 40.49210139 86.875 39.3125 C86.875 38.6525 86.875 37.9925 86.875 37.3125 C82.2601706 34.92267763 77.75478881 32.78964947 72.83203125 31.12109375 C70.875 30.3125 70.875 30.3125 68.63671875 28.90625 C65.1771398 26.90977445 61.64522083 25.66203166 57.875 24.375 C57.12025391 24.11485107 56.36550781 23.85470215 55.58789062 23.58666992 C53.35266034 22.82132594 51.11411 22.06640218 48.875 21.3125 C47.7509375 20.92578125 46.626875 20.5390625 45.46875 20.140625 C31.21765273 15.46223448 16.86952834 13.69360149 1.9375 13.75 C0.8130397 13.74972809 0.8130397 13.74972809 -0.33413696 13.74945068 C-14.82931284 13.7988641 -28.25631845 15.98455861 -42.125 20.3125 Z M108.875 423.3125 C108.06417969 424.27929688 107.25335938 425.24609375 106.41796875 426.2421875 C83.3980358 453.42909949 51.43763437 476.2656138 14.875 479.3125 C-21.49989884 481.17299871 -53.60049806 469.68765443 -80.82983398 445.16552734 C-86.07415841 440.36119917 -91.14473834 435.38915382 -96.125 430.3125 C-97.7904715 428.64463902 -99.45690333 426.97773544 -101.125 425.3125 C-99.59665145 437.05299568 -97.81078089 448.60999011 -95.08984375 460.13671875 C-92.92284464 469.35870453 -91.31091872 478.69508597 -89.65625 488.01953125 C-89.4173236 489.36303816 -89.17839115 490.70654399 -88.93945312 492.05004883 C-88.16528917 496.40789311 -87.39462979 500.76635291 -86.625 505.125 C-86.42733536 506.24415613 -86.42733536 506.24415613 -86.22567749 507.38592148 C-70.75436553 595.02706029 -70.75436553 595.02706029 -66.84375 628.69921875 C-66.31592079 633.13842643 -65.53283671 637.46334535 -64.61132812 641.83569336 C-63.73936612 646.27648377 -63.19972114 650.76275416 -62.625 655.25 C-61.92146627 660.71978149 -61.17861475 666.14865373 -60.12109375 671.5625 C-58.59721886 679.71805265 -58.06122523 687.98980992 -57.35742188 696.24804688 C-56.7451091 703.02408276 -55.94234799 709.67691014 -54.74609375 716.37890625 C-52.48907267 729.1902545 -51.24026507 742.14020136 -49.85298157 755.06830597 C-49.62270106 757.20886975 -49.39021997 759.34918414 -49.15710449 761.48944092 C-47.28659989 778.67728306 -45.53668638 795.86508083 -44.20797729 813.10455322 C-43.52549363 821.95885733 -42.63539607 830.72506544 -41.3215332 839.50927734 C-39.55315451 851.65727008 -38.51376128 863.89865772 -37.32951355 876.11431885 C-36.93392461 880.18097411 -36.53141566 884.24691344 -36.125 888.3125 C-36.00285126 889.54214478 -36.00285126 889.54214478 -35.87823486 890.79663086 C-35.63516186 893.21412515 -35.3833642 895.63055527 -35.12890625 898.046875 C-35.05776108 898.7621637 -34.98661591 899.47745239 -34.91331482 900.2144165 C-34.54252803 903.65282831 -34.01608637 906.91616756 -33.12036133 910.25878906 C-31.96910191 914.62449324 -31.5566645 918.94613258 -31.1953125 923.4375 C-31.04077378 925.20087511 -30.88589443 926.9642204 -30.73071289 928.72753906 C-30.65257355 929.6392688 -30.5744342 930.55099854 -30.493927 931.49035645 C-29.34057703 944.83418126 -28.10971831 958.08395068 -25.69140625 971.2668457 C-24.1984834 979.49730066 -23.11317063 987.75535878 -22.06100464 996.05108643 C-16.29446372 1069.68001819 -16.29446372 1069.68001819 15.875 1132.3125 C20.33881899 1135.35169591 24.5578295 1136.19203196 29.875 1135.3125 C38.49389526 1132.5907436 42.86567363 1126.50234705 47 1118.8125 C50.31899406 1111.8877925 52.16203643 1104.76389154 53.875 1097.3125 C54.11454659 1096.32944885 54.11454659 1096.32944885 54.3589325 1095.32653809 C55.68674184 1089.70715778 56.44734625 1084.16690679 56.94140625 1078.41796875 C57.02467667 1077.466978 57.10794708 1076.51598724 57.19374084 1075.53617859 C58.17751521 1063.58286332 58.48678836 1051.61074649 58.8125 1039.625 C58.89077447 1036.88758024 58.97085764 1034.15021384 59.05078125 1031.4128418 C59.2066106 1026.04628672 59.35897614 1020.679646 59.5084095 1015.31290913 C59.7659788 1006.06793121 60.03704675 996.82341923 60.31494522 987.57903099 C61.53898617 946.85085434 62.72609666 906.12359506 63.44140625 865.3828125 C63.4630975 864.15415907 63.48478874 862.92550564 63.5071373 861.65962029 C63.71614163 849.76099088 63.91540642 837.8622805 64.09092808 825.96310806 C64.45710358 801.36195497 65.06049138 776.85379725 66.875 752.3125 C66.95668427 751.19553741 67.03836853 750.07857483 67.12252808 748.92776489 C67.56405955 742.9940099 68.04676662 737.06502571 68.57006836 731.13793945 C68.8175689 728.31723087 69.0525411 725.49563863 69.28710938 722.67382812 C70.11888099 712.96198945 71.18200687 703.3573985 72.8636322 693.75233459 C73.98905955 687.22375013 74.35217567 680.75971202 74.56640625 674.14453125 C74.875 670.3125 74.875 670.3125 75.84033203 666.79443359 C77.20213076 661.5062778 77.41482757 656.20290336 77.73828125 650.76953125 C78.74501469 636.11738915 80.7067025 621.63235752 82.76625824 607.09885788 C83.27323184 603.50697559 83.77049852 599.91375195 84.26806641 596.32055664 C84.47118032 594.85441436 84.67430534 593.38827361 84.87744141 591.9221344 C84.97817963 591.19496279 85.07891785 590.46779118 85.18270874 589.71858406 C85.48773099 587.51959196 85.79376343 585.32074267 86.10009766 583.12193298 C87.88860732 570.27710466 89.61685536 557.42474876 91.31240845 544.56729126 C91.73291467 541.37952036 92.15579617 538.19207131 92.57885742 535.00463867 C93.78352028 525.8867835 94.94681326 516.76779313 96.00686646 507.63188171 C97.28481836 496.6537261 98.84964037 485.80094014 100.875 474.9375 C101.40556511 472.03052965 101.93124905 469.12268243 102.45703125 466.21484375 C102.64589653 465.17620934 102.64589653 465.17620934 102.83857727 464.11659241 C103.9718455 457.85645282 104.95216495 451.57880254 105.89355469 445.28759766 C106.75517687 439.68705346 107.98152419 434.2602315 109.421875 428.78125 C110.10243502 426.19097747 110.10243502 426.19097747 108.875 423.3125 Z " fill="#090909" transform="translate(325.125,36.6875)"/>
<path d="M0 0 C1 3 1 3 0.0625 5.1875 C-0.4634375 6.0846875 -0.4634375 6.0846875 -1 7 C-2.66666667 7 -4.33333333 7 -6 7 C-4.02 4.69 -2.04 2.38 0 0 Z " fill="#C5C5C5" transform="translate(434,460)"/>
</svg>
