<svg version="1.1" id="Layer_1" xmlns="http://www.w3.org/2000/svg" xmlns:xlink="http://www.w3.org/1999/xlink" x="0px" y="0px"
	 width="100%" viewBox="0 0 432 1024" enable-background="new 0 0 432 1024" xml:space="preserve">
<path fill="#000000" opacity="1.000000" stroke="none" 
	d="
M207.229813,877.406860 
	C207.445435,871.281921 207.599960,865.622253 207.753204,859.962585 
	C209.074966,811.152527 207.916550,762.343323 207.528885,713.536987 
	C207.317261,686.893250 206.631989,660.239258 205.463562,633.620483 
	C203.733185,594.199646 199.294601,555.041687 192.843613,516.098877 
	C184.680328,466.819458 173.965042,418.118683 161.371445,369.784424 
	C157.633682,355.438873 149.501678,343.481140 143.343124,330.452148 
	C128.824432,299.736359 113.753456,269.248627 104.451660,236.390182 
	C100.452690,222.263885 97.760231,207.921738 97.594955,193.130356 
	C97.376930,173.618484 104.071449,156.895691 117.386856,142.877975 
	C141.806366,117.170486 170.271378,96.620132 200.951828,79.172691 
	C217.950867,69.505623 235.515503,70.832642 252.614777,79.683624 
	C272.400970,89.925430 290.441498,102.718262 306.996582,117.599312 
	C318.023041,127.510773 328.751801,137.690872 338.595154,148.851471 
	C361.644012,174.984848 368.411957,204.908096 360.955627,238.582947 
	C352.966309,274.665039 340.933472,309.340088 325.058319,342.679291 
	C322.945038,347.117401 322.942993,351.790588 322.566376,356.317474 
	C320.464539,381.582550 320.954132,406.898315 321.837646,432.208679 
	C322.290894,445.192596 322.759613,458.177612 323.023499,471.166199 
	C323.734100,506.143524 324.891052,541.122070 323.998474,576.109741 
	C323.085388,611.899597 322.227905,647.700012 320.074066,683.439148 
	C317.902435,719.473694 315.622681,755.523315 311.163849,791.361023 
	C306.725861,827.031738 301.837189,862.669495 289.400116,896.702637 
	C282.435883,915.759705 273.608429,933.779297 259.535583,948.785522 
	C254.374359,954.288940 248.750824,959.214539 242.106049,962.838623 
	C224.516098,972.432007 208.570465,963.716919 206.618164,943.766846 
	C204.465012,921.764526 207.053665,899.835999 207.229813,877.406860 
M131.665100,290.921051 
	C132.548187,292.898346 133.389877,294.895386 134.320770,296.849915 
	C143.482468,316.086517 151.294586,336.072418 163.809296,353.510925 
	C196.906830,399.630402 261.675140,404.711975 301.882843,364.705444 
	C313.643524,353.003632 320.946014,338.697510 327.011444,323.661133 
	C340.353943,290.584625 353.049072,257.278137 357.122406,221.467133 
	C359.521210,200.378174 354.373352,181.177155 342.249878,163.798767 
	C332.259766,149.478424 319.746246,137.519638 306.995392,125.742943 
	C290.754822,110.743164 273.022858,97.869003 253.768280,87.013947 
	C235.576248,76.757919 217.549362,75.820053 199.348526,86.961014 
	C175.567459,101.517670 152.818558,117.451294 132.329163,136.453461 
	C126.087120,142.242416 120.275482,148.409531 115.242699,155.313370 
	C101.713158,173.872894 102.408752,194.674286 105.971336,215.741470 
	C110.395828,241.905579 120.547142,266.199982 131.665100,290.921051 
M187.365524,453.292236 
	C189.502533,464.056458 191.685745,474.811737 193.767899,485.586548 
	C200.049713,518.093811 204.669693,550.851196 208.171692,583.762695 
	C211.344696,613.582397 212.399948,643.540588 213.004440,673.494751 
	C213.770844,711.471985 214.238525,749.455383 214.524780,787.443298 
	C214.895203,836.604126 213.004745,885.713623 212.284668,934.848083 
	C212.228256,938.697327 212.565659,942.488037 213.304550,946.263672 
	C215.644669,958.221008 223.905518,962.923218 235.449478,958.881836 
	C238.962784,957.651794 242.054184,955.697571 244.973679,953.480896 
	C252.198105,947.995483 258.248444,941.375854 263.494324,933.992981 
	C274.729492,918.181213 282.045135,900.533142 287.617432,882.109131 
	C300.217438,840.449158 304.605865,797.400330 308.576324,754.338074 
	C311.096161,727.008789 313.068665,699.610168 314.455811,672.200562 
	C316.012543,641.439392 317.009583,610.637817 317.578094,579.841370 
	C318.580719,525.528687 316.794342,471.246063 315.044678,416.965363 
	C314.417358,397.503723 314.412262,378.016785 316.222473,357.709747 
	C281.153137,404.236847 213.304016,413.266632 167.060776,367.969818 
	C174.824615,396.384491 181.260559,424.371002 187.365524,453.292236 
z"/>
</svg>