<svg version="1.1" id="Layer_1" xmlns="http://www.w3.org/2000/svg" xmlns:xlink="http://www.w3.org/1999/xlink" x="0px" y="0px"
	 width="100%" viewBox="0 0 432 1024" enable-background="new 0 0 432 1024" xml:space="preserve">
<path fill="#000000" opacity="1.000000" stroke="none" 
	d="
M186.711212,812.000305 
	C186.814713,786.672974 186.447296,761.832214 187.145004,737.021423 
	C188.113983,702.563599 190.452133,668.130249 189.596146,633.643433 
	C188.856964,603.863586 186.909576,574.147522 183.993958,544.479126 
	C181.244568,516.502197 177.822632,488.623169 173.583481,460.846863 
	C169.492844,434.043549 164.568954,407.383270 158.460419,380.955383 
	C156.137405,370.905090 153.757278,360.867981 151.407837,350.823792 
	C150.483704,346.872925 148.495026,343.418091 146.509903,339.933228 
	C127.171913,305.985657 112.937767,270.089020 104.700378,231.814713 
	C98.517448,203.086243 104.178261,177.320129 122.744682,154.485077 
	C146.265884,125.556068 174.654175,102.606041 207.210251,84.445389 
	C225.257431,74.378181 242.049576,76.212402 259.184235,86.132942 
	C281.174561,98.864807 299.771332,115.749260 317.905762,133.229782 
	C329.671021,144.570786 341.207336,156.126038 349.528046,170.422318 
	C359.155029,186.962875 361.668549,204.739120 358.773926,223.421585 
	C352.281525,265.325439 338.118744,304.571014 317.994354,341.815887 
	C314.416870,348.436798 314.741821,356.344238 313.524109,363.681061 
	C307.096619,402.407471 301.764923,441.297821 297.454651,480.312714 
	C294.148529,510.238434 291.346588,540.216553 289.004028,570.244385 
	C285.727112,612.248962 282.108826,654.238220 283.440643,696.411194 
	C284.208801,720.735779 284.483490,745.053223 284.102692,769.368835 
	C283.818756,787.499878 283.234192,805.686768 278.307098,823.351440 
	C276.549622,829.652405 274.110474,835.682617 269.774902,840.702576 
	C259.797852,852.255005 246.627106,850.409180 240.193512,836.634827 
	C239.585098,835.332275 239.483170,833.682190 237.512909,832.792908 
	C234.129303,836.949402 230.906937,841.365479 226.902740,845.092224 
	C222.547592,849.145630 217.711502,852.243408 211.793274,853.393921 
	C199.798798,855.725647 190.059311,848.589111 187.744324,835.927307 
	C186.322983,828.153320 186.936508,820.313843 186.711212,812.000305 
M352.714386,212.348709 
	C353.557861,194.616211 348.468140,178.622818 337.388092,164.922791 
	C315.773743,138.197510 290.389252,115.499008 262.125153,95.946541 
	C242.907089,82.651932 224.055191,81.238060 203.637100,94.213394 
	C177.157730,111.040581 152.750504,130.037567 132.182098,153.828979 
	C111.508377,177.742233 104.847519,204.589462 112.593979,235.619293 
	C120.510170,267.328979 131.842285,297.574158 146.997269,326.446808 
	C156.529266,344.606781 167.853256,361.283234 185.097794,373.258484 
	C202.821365,385.566406 222.198685,391.271484 243.657059,388.131897 
	C271.354309,384.079529 291.700745,368.357758 306.906403,345.780792 
	C321.915497,323.495667 331.402924,298.533081 339.645447,273.120728 
	C345.969482,253.623215 351.181488,233.852951 352.714386,212.348709 
M288.451752,498.034668 
	C293.054626,451.754456 299.587524,405.724030 307.079926,358.257080 
	C286.978943,380.848572 264.094116,395.446625 234.561600,396.086090 
	C205.061935,396.724792 181.682770,383.113983 161.727600,361.953644 
	C161.610535,362.942291 161.476959,363.281311 161.549683,363.568085 
	C171.617111,403.266479 178.524521,443.568939 184.162125,484.087341 
	C188.287033,513.733826 191.346970,543.499756 193.546402,573.373291 
	C195.479004,599.622314 197.184723,625.872375 197.045853,652.177979 
	C196.927216,674.652527 195.827835,697.121948 195.167892,719.593689 
	C194.732742,734.411011 194.600449,749.244202 193.809601,764.042358 
	C192.606857,786.547668 194.043320,809.009338 194.434647,831.485474 
	C194.535568,837.282532 196.579254,842.780701 202.385010,845.553223 
	C208.238815,848.348633 213.460693,846.060303 218.248093,842.659912 
	C220.539536,841.032349 222.654358,839.089905 224.597458,837.050232 
	C231.018341,830.310425 235.396118,822.246216 238.749985,813.679138 
	C255.348770,771.279175 263.643738,726.778625 271.683472,682.229065 
	C275.352081,661.900696 276.886169,641.354065 278.093079,620.740417 
	C279.502502,596.668457 281.677002,572.639282 283.681854,548.605042 
	C285.064178,532.033447 286.722137,515.484802 288.451752,498.034668 
M275.178802,799.826660 
	C275.460632,795.512817 275.747314,791.199280 276.023499,786.885071 
	C277.931305,757.082336 276.268738,727.266479 276.490417,697.447083 
	C275.294189,702.316589 274.372162,707.203491 273.386017,712.077515 
	C266.030029,748.433777 258.495300,784.740601 244.337784,819.256531 
	C242.073532,824.776794 246.653809,837.194275 251.874603,840.012573 
	C254.491806,841.425415 257.051727,840.882568 259.518127,839.630493 
	C264.075348,837.317078 266.740021,833.323303 268.713074,828.824646 
	C272.638824,819.873779 274.034882,810.338745 275.178802,799.826660 
z"/>
</svg>