<svg version="1.1" id="Layer_1" xmlns="http://www.w3.org/2000/svg" xmlns:xlink="http://www.w3.org/1999/xlink" x="0px" y="0px"
	 width="100%" viewBox="0 0 432 1024" enable-background="new 0 0 432 1024" xml:space="preserve">
<path fill="#000000" opacity="1.000000" stroke="none" 
	d="
M289.166077,796.686279 
	C288.057556,804.055298 287.031616,810.949158 284.542755,817.560181 
	C277.888336,835.236145 260.900757,844.560303 242.516602,840.356323 
	C232.617203,838.092529 226.360291,831.493103 222.258255,822.591919 
	C216.603378,810.321045 215.097916,796.992676 212.846909,783.903015 
	C207.094803,750.454468 203.048843,716.758667 198.960571,683.078430 
	C194.071671,642.802124 189.085205,602.539978 183.928986,562.296448 
	C178.814621,522.379517 173.815262,482.446198 166.674835,442.836792 
	C159.942261,405.489655 152.983185,368.092682 139.443253,332.484222 
	C130.216797,308.219696 119.461685,284.541626 111.695328,259.706970 
	C105.763672,240.739197 100.946045,221.489716 100.009148,201.616211 
	C98.700325,173.853287 107.083252,148.879562 125.112656,127.722321 
	C149.226105,99.425545 179.230881,80.496765 216.345413,74.461105 
	C233.747910,71.631058 250.880615,74.212669 267.385925,80.482208 
	C298.084564,92.143051 323.840576,110.417786 342.326508,137.880966 
	C358.002625,161.169739 362.639191,187.021240 358.738007,214.666962 
	C353.776733,249.824554 341.773651,282.841553 327.075043,314.789398 
	C315.961334,338.945312 310.679047,364.208435 307.291870,390.219940 
	C303.748230,417.432953 299.677521,444.576874 295.964874,471.768463 
	C292.409851,497.805359 289.299072,523.888977 287.182434,550.096619 
	C284.551300,582.675110 283.990387,615.304260 284.473450,647.945496 
	C284.946564,679.915039 285.522186,711.898560 287.482178,743.818420 
	C288.554413,761.280823 289.687714,778.717285 289.166077,796.686279 
M174.926804,94.477295 
	C168.261261,97.942421 161.918884,101.932281 155.891190,106.406235 
	C116.713470,135.485184 98.504593,173.167969 108.121933,222.395889 
	C115.032150,257.767029 127.426239,291.278015 142.724548,323.730774 
	C150.324905,339.853638 161.375961,353.620453 174.960815,365.313934 
	C206.127625,392.141479 243.969208,394.028107 277.303802,370.082550 
	C295.707794,356.862305 309.610901,339.603882 318.989258,319.183624 
	C334.651611,285.080811 348.226013,250.175156 353.240387,212.606033 
	C356.011566,191.843597 353.693115,171.758972 344.328461,152.798569 
	C331.680878,127.191177 311.424683,109.135872 286.841370,95.511307 
	C271.408142,86.957901 255.114380,80.785919 237.369659,79.320656 
	C215.183929,77.488678 194.917633,83.942093 174.926804,94.477295 
M194.833435,601.912476 
	C197.338608,622.533386 199.843231,643.154358 202.349106,663.775208 
	C204.775696,683.743713 206.962387,703.745239 209.696365,723.671631 
	C212.633850,745.081238 215.947968,766.442444 219.373947,787.780334 
	C220.979706,797.781433 222.363785,807.879761 226.185410,817.392883 
	C229.494629,825.630310 234.460861,832.219910 243.482300,834.750610 
	C258.502991,838.964172 273.325378,830.888367 279.249603,815.203735 
	C284.258423,801.942993 284.262482,788.074036 283.469147,774.266724 
	C281.606781,741.854004 279.628021,709.433838 279.089020,676.982178 
	C278.317535,630.536316 277.810028,584.090820 282.457764,537.720703 
	C285.377777,508.587677 288.966888,479.556000 293.119812,450.597595 
	C298.037964,416.303162 302.222900,381.897217 308.412384,347.621429 
	C287.902466,372.482544 264.164124,391.665558 230.311325,392.216095 
	C196.388214,392.767761 172.303818,374.163879 151.487167,349.060333 
	C154.870682,362.558777 158.270004,375.389069 161.290268,388.307953 
	C170.041504,425.740570 176.146255,463.642090 181.529938,501.689880 
	C186.210342,534.767517 190.288177,567.919006 194.833435,601.912476 
z"/>
</svg>