<svg version="1.1" id="Layer_1" xmlns="http://www.w3.org/2000/svg" xmlns:xlink="http://www.w3.org/1999/xlink" x="0px" y="0px"
	 width="100%" viewBox="0 0 624 1024" enable-background="new 0 0 624 1024" xml:space="preserve">
<path fill="#000000" opacity="1.000000" stroke="none" 
	d="
M497.914429,592.324036 
	C500.631775,613.893066 503.439941,635.003296 505.840973,656.159729 
	C507.002777,666.397217 507.702698,676.710327 508.080933,687.008667 
	C508.869080,708.469482 509.160736,729.915039 507.524719,751.392456 
	C506.145752,769.496338 504.443970,787.542786 501.244720,805.395630 
	C497.183746,828.057068 491.590271,850.320007 481.328186,871.129639 
	C477.291779,879.314697 472.087799,886.574524 464.335754,891.678711 
	C453.337219,898.920654 442.333344,896.970520 434.628906,886.332703 
	C429.869568,879.761475 427.191040,872.164307 425.004761,864.482849 
	C420.027527,846.994934 417.584656,828.993591 414.608429,811.095703 
	C411.940033,795.048645 408.777252,779.083740 405.049988,763.179626 
	C405.929565,777.917542 406.744141,792.659607 407.702423,807.392395 
	C409.629089,837.013367 411.296265,866.617859 404.110413,895.862366 
	C402.674683,901.705444 400.595001,907.315369 397.773010,912.647705 
	C388.266266,930.611572 371.321686,938.860107 351.121399,935.866943 
	C331.477020,932.956055 314.361542,924.176086 298.310669,913.247070 
	C253.616684,882.815125 220.116013,842.711182 196.937347,793.958313 
	C183.191727,765.046387 174.624252,734.483215 168.712326,703.117737 
	C164.509323,680.818848 162.738022,658.274048 161.577621,635.640076 
	C160.246674,609.679565 160.532974,583.682129 159.523621,557.727417 
	C157.582306,507.808289 153.864014,458.021576 145.732147,408.659973 
	C144.045746,398.423248 140.810043,388.854706 136.122650,379.452515 
	C122.940559,353.011200 115.716705,324.630920 110.673668,295.626556 
	C108.101540,280.833282 106.213829,265.934357 106.200485,250.970657 
	C106.158463,203.867462 116.096321,159.934204 149.417984,124.193069 
	C165.367874,107.085075 184.381897,95.418442 208.432434,94.108398 
	C221.349808,93.404793 233.580582,96.824852 245.185226,102.115448 
	C268.015564,112.523888 288.676056,126.650169 309.498260,140.469620 
	C311.441833,141.759567 313.640167,142.799652 315.262390,144.415405 
	C320.822662,149.953598 326.420380,148.743164 332.424713,145.240799 
	C339.286865,141.238083 344.889465,135.811203 350.388550,130.226898 
	C357.285248,123.223351 364.270935,116.331032 371.592133,109.749344 
	C389.980988,93.217979 410.335846,90.493408 432.731628,100.220154 
	C456.478821,110.533813 475.025146,127.006744 489.872803,148.008011 
	C510.551544,177.256973 522.390076,209.764496 525.341064,245.356018 
	C529.280945,292.874634 520.628906,338.199799 499.623688,380.994598 
	C496.338165,387.688232 495.119843,394.491180 494.408997,401.572266 
	C490.308563,442.419067 490.048676,483.394379 491.540070,524.346375 
	C492.362457,546.927734 494.551147,569.481995 497.914429,592.324036 
M119.244690,213.651260 
	C118.136230,220.560364 117.464645,227.506683 117.204109,234.504272 
	C116.508385,253.190079 117.375908,271.781799 120.242912,290.271973 
	C125.014511,321.045410 133.386154,350.664398 147.206894,378.732788 
	C163.831924,412.496399 190.863602,431.910095 227.685028,437.383362 
	C253.953888,441.288086 280.212372,438.972412 306.204742,434.025665 
	C324.179382,430.604797 342.151398,429.141266 360.267822,432.617920 
	C378.350647,436.088104 396.489929,438.233551 414.813660,434.682281 
	C443.372375,429.147400 466.735474,415.889557 482.494995,390.428802 
	C492.601013,374.101654 499.932617,356.671570 505.165558,338.387512 
	C514.080872,307.237335 518.025696,275.470917 514.576233,243.056870 
	C510.935425,208.844147 499.160095,177.737106 478.576599,150.080627 
	C464.224182,130.796402 446.349243,115.986450 423.508636,107.792412 
	C409.998383,102.945633 396.864258,103.724709 384.983246,112.363403 
	C379.479645,116.365067 374.397858,120.990891 369.387573,125.618217 
	C357.370483,136.716812 347.637970,150.459793 331.724854,157.309464 
	C343.786591,172.841278 349.155304,190.508499 351.837250,209.190521 
	C353.579376,221.326050 352.773834,233.429077 351.133881,245.495728 
	C350.728577,248.477951 348.846985,250.425415 345.656464,250.147919 
	C342.491455,249.872604 341.128723,247.626419 340.929535,244.654083 
	C340.864014,243.676590 341.138214,242.677551 341.245209,241.687073 
	C343.457916,221.206833 342.380157,201.065598 334.090668,181.901749 
	C330.460724,173.509888 326.709442,164.765884 318.910736,159.362198 
	C302.757111,148.169373 286.473053,137.136658 269.572510,127.078613 
	C257.267731,119.755646 245.017776,112.318489 231.243362,107.858467 
	C216.029327,102.932327 201.106995,103.185623 186.434402,109.749435 
	C164.779358,119.436859 150.356796,136.637985 138.553436,156.393234 
	C128.158737,173.790802 122.435196,192.861694 119.244690,213.651260 
M400.115631,446.838928 
	C390.067596,447.597534 380.082886,446.511444 370.312592,444.577362 
	C349.787231,440.514221 329.421509,440.229736 308.795868,443.994446 
	C283.207001,448.665161 257.457489,451.812378 231.349777,448.343628 
	C203.827942,444.687012 179.226761,434.963348 159.577515,414.607758 
	C158.971024,413.979492 158.543045,412.793396 157.114883,413.219910 
	C157.225571,414.701630 157.193130,416.212158 157.469040,417.664093 
	C160.700439,434.669312 162.359833,451.889404 164.073990,469.075745 
	C167.528152,503.707825 169.158508,538.463379 170.141937,573.250854 
	C171.035431,604.857849 170.764984,636.495361 174.161636,668.022217 
	C177.689011,700.762573 184.241943,732.765869 195.562973,763.698975 
	C210.256897,803.847900 231.851318,839.672180 263.132538,869.206726 
	C272.385590,877.943054 282.514496,885.487671 294.740723,889.760254 
	C310.940582,895.421570 321.650299,888.098389 321.773407,871.089905 
	C321.801025,867.272095 321.503174,863.435181 321.102173,859.633728 
	C318.808746,837.892029 313.130524,816.804932 308.478088,795.527283 
	C302.317383,767.351379 297.712555,738.955627 296.969574,710.098694 
	C296.007080,672.716187 302.879852,636.576660 315.862823,601.586731 
	C318.815857,593.628113 322.361023,585.871887 327.130554,578.779846 
	C333.977722,568.598511 343.296600,567.878357 351.582886,576.969360 
	C353.813904,579.416992 355.830383,582.130615 357.547333,584.963379 
	C363.077332,594.087280 368.035950,603.530762 372.174591,613.369385 
	C389.065826,653.523987 401.917053,694.904602 410.832031,737.582275 
	C415.798767,761.358948 420.560394,785.148010 424.579865,809.104309 
	C427.769867,828.116882 430.750549,847.201904 436.331268,865.732178 
	C437.829437,870.706726 439.740173,875.506348 442.811493,879.719849 
	C447.299530,885.876831 452.925049,886.790527 459.325043,882.571655 
	C461.859314,880.901123 463.889130,878.709106 465.737488,876.323120 
	C471.103088,869.396606 474.780731,861.596741 477.783295,853.420776 
	C491.074951,817.227966 496.025970,779.514587 497.656799,741.301147 
	C498.643951,718.170776 498.390991,694.991638 496.604034,671.879089 
	C495.629272,659.271545 494.576447,646.657104 493.042328,634.108948 
	C490.822784,615.954407 488.183838,597.850220 485.632660,579.737427 
	C483.214691,562.570618 482.205536,545.271057 481.273651,527.999268 
	C480.116516,506.553040 479.310638,485.067810 480.434937,463.567719 
	C481.395447,445.200012 482.142639,426.821136 483.023193,407.595306 
	C477.863342,414.245728 472.372742,419.515594 466.177948,424.024933 
	C446.754425,438.163818 424.813782,445.084961 400.115631,446.838928 
M309.095581,674.423401 
	C307.358398,689.004944 307.326111,703.585083 307.960052,718.269714 
	C308.889343,739.796631 311.850067,761.018005 316.127075,782.050171 
	C321.656982,809.243530 329.438599,836.012512 331.766571,863.796936 
	C332.850525,876.734070 331.969116,889.342224 319.898163,897.776672 
	C314.540741,901.520020 308.264679,902.275024 300.803955,902.303101 
	C318.169861,914.497009 335.497528,924.160583 356.086090,925.584534 
	C373.190674,926.767517 384.321136,919.255371 390.540131,903.325867 
	C392.778351,897.592834 394.504608,891.684387 395.735077,885.633362 
	C401.111267,859.194641 399.250397,832.552673 397.373352,806.016785 
	C395.494537,779.456787 393.666962,752.894836 392.977142,726.290527 
	C392.607056,712.017639 390.932770,698.194946 386.717957,684.525940 
	C377.484406,654.580750 367.522278,624.945007 352.883331,597.112122 
	C350.249084,592.103699 347.315796,587.236511 343.214020,583.226257 
	C340.656921,580.726196 338.163757,580.716003 336.201111,583.867310 
	C334.092651,587.252747 331.837097,590.617981 330.277557,594.262451 
	C319.412628,619.652771 311.777802,645.926636 309.095581,674.423401 
z"/>
</svg>