<svg version="1.1" id="Layer_1" xmlns="http://www.w3.org/2000/svg" xmlns:xlink="http://www.w3.org/1999/xlink" x="0px" y="0px"
	 width="100%" viewBox="0 0 432 1024" enable-background="new 0 0 432 1024" xml:space="preserve">
<path fill="#000000" opacity="1.000000" stroke="none" 
	d="
M166.065247,811.638733 
	C161.393066,775.380249 162.644073,739.427307 163.482071,703.459351 
	C164.067673,678.325500 164.189407,653.184875 162.069550,628.069031 
	C160.264297,606.680420 159.320450,585.219910 157.606964,563.822327 
	C156.053543,544.423279 153.893661,525.073608 152.152313,505.688507 
	C150.455460,486.798828 148.069443,467.991669 145.770813,449.171692 
	C143.008850,426.558075 139.908997,403.993317 136.296463,381.499603 
	C134.450867,370.007812 132.548660,358.524567 130.805954,347.017212 
	C130.471558,344.809113 129.759491,342.851501 128.702805,340.944702 
	C110.394058,307.905945 97.930031,272.704224 90.211021,235.809418 
	C86.312622,217.176117 85.152885,198.546005 92.590889,180.315857 
	C96.866722,169.836029 103.100220,160.593658 110.692535,152.350342 
	C131.613937,129.635025 153.742325,108.226692 179.635590,91.098595 
	C187.721802,85.749641 196.275360,81.348183 205.668961,78.624077 
	C213.879120,76.243172 221.791534,76.943398 229.592834,80.080597 
	C252.653839,89.354324 272.140991,104.161743 290.789520,120.128632 
	C306.902618,133.924698 321.827148,148.831894 332.944183,167.208862 
	C344.497559,186.307159 346.977356,206.701035 342.876801,228.269409 
	C335.270844,268.275757 320.236603,305.481140 300.134979,340.707306 
	C294.443024,350.681946 293.072510,361.802643 290.502045,372.556702 
	C281.486511,410.275238 274.800873,448.464478 269.607300,486.877502 
	C265.999023,513.565369 263.154816,540.356384 261.025360,567.230164 
	C258.247559,602.286133 256.181030,637.374084 257.532379,672.507874 
	C259.479034,723.118286 260.914459,773.721436 260.199890,824.369751 
	C260.146088,828.183594 259.849213,832.037354 259.199585,835.791992 
	C256.528442,851.229980 242.764206,858.101135 228.711884,851.154114 
	C221.783936,847.729187 216.807343,842.176453 212.232986,836.165100 
	C211.254868,834.879822 210.783722,833.170166 209.023636,832.279785 
	C207.437180,835.197754 206.071671,838.213623 204.264816,840.936584 
	C199.198990,848.570618 191.312576,850.285706 183.365540,845.678589 
	C178.110992,842.632507 174.662872,838.037415 172.156921,832.623840 
	C169.123276,826.070374 167.462326,819.120544 166.065247,811.638733 
M271.737427,365.240906 
	C278.699860,359.177917 284.662567,352.200684 289.479645,344.377655 
	C311.318756,308.910675 326.670868,270.842010 335.474487,230.075211 
	C341.074219,204.144577 335.904694,181.002563 319.709015,160.035263 
	C305.112244,141.137970 287.496063,125.483826 268.538208,111.215469 
	C256.407135,102.085190 243.762909,93.790253 229.773148,87.667274 
	C220.392975,83.561798 211.205872,83.366364 201.720520,87.368721 
	C193.534836,90.822685 185.831726,95.060272 178.652817,100.231262 
	C155.451492,116.943275 134.583466,136.247726 115.464188,157.472305 
	C97.561058,177.346832 90.868652,200.430283 95.636604,226.799820 
	C100.272491,252.439041 107.725861,277.268188 117.588203,301.344147 
	C125.231628,320.003296 133.287811,338.540039 146.359161,354.240662 
	C164.778290,376.364777 187.623444,389.716003 217.280243,388.809662 
	C238.236786,388.169189 255.820480,379.460815 271.737427,365.240906 
M149.673706,423.974823 
	C150.394974,429.243530 151.196793,434.502655 151.823349,439.782593 
	C154.330582,460.911438 156.996414,482.024628 159.194153,503.186127 
	C161.238602,522.871399 162.673416,542.619263 164.540085,562.324036 
	C166.611588,584.191162 168.015305,606.103027 169.288788,628.025574 
	C170.156921,642.970276 171.450989,657.863220 173.748245,672.671570 
	C178.288177,701.936340 184.157104,730.936401 191.362991,759.646851 
	C196.587601,780.463257 201.897781,801.311768 211.437958,820.717407 
	C215.580444,829.143738 220.533585,837.077148 228.443634,842.578979 
	C233.223190,845.903442 238.454514,848.387085 244.317215,845.682495 
	C250.319382,842.913513 251.904205,837.238953 252.666580,831.265015 
	C252.792526,830.278076 252.754944,829.268494 252.766953,828.269104 
	C253.061035,803.792297 254.147034,779.328735 252.966125,754.833557 
	C252.116287,737.205688 252.375885,719.523804 251.502136,701.897644 
	C249.868469,668.941711 249.616257,636.031372 251.496567,603.061462 
	C253.571228,566.683838 256.838135,530.447083 261.585846,494.328033 
	C265.594421,463.832214 270.187164,433.437347 276.543640,403.331146 
	C279.416595,389.723877 282.370758,376.133759 285.477203,361.654236 
	C265.020447,383.410858 241.372726,397.005859 211.575058,396.062805 
	C181.905685,395.123840 159.009842,380.331726 140.052887,358.146637 
	C143.233093,380.045685 146.359833,401.576508 149.673706,423.974823 
M170.064636,752.500000 
	C169.991272,767.163269 170.118622,781.835144 171.426178,796.438904 
	C172.344299,806.693176 173.543228,816.975159 177.324356,826.708130 
	C179.227036,831.605713 181.796448,836.050842 186.319443,839.003540 
	C189.094528,840.815186 192.097031,841.703857 195.253662,839.915344 
	C200.501434,836.942017 204.933319,824.643311 202.619675,819.107239 
	C192.105957,793.949951 185.637253,767.602051 179.706635,741.110596 
	C176.446243,726.546753 173.616043,711.886719 170.591873,697.270020 
	C170.416977,697.270081 170.242065,697.270081 170.067169,697.270142 
	C170.067169,715.346741 170.067169,733.423401 170.064636,752.500000 
z"/>
</svg>