<svg version="1.1" id="Layer_1" xmlns="http://www.w3.org/2000/svg" xmlns:xlink="http://www.w3.org/1999/xlink" x="0px" y="0px"
	 width="100%" viewBox="0 0 432 1024" enable-background="new 0 0 432 1024" xml:space="preserve">
<path fill="#000000" opacity="1.000000" stroke="none" 
	d="
M162.653046,651.989563 
	C162.791443,626.168274 162.997543,600.837524 161.623383,575.541992 
	C160.187943,549.118896 157.823151,522.763855 154.295441,496.533966 
	C149.530151,461.102417 144.114044,425.752594 139.808502,390.266815 
	C136.329941,361.596771 129.104691,334.324005 117.024887,307.950836 
	C103.208542,277.786377 92.411148,246.400833 88.030457,213.244476 
	C83.162369,176.399155 94.317726,144.726700 120.397697,118.559181 
	C143.413422,95.466194 170.653839,79.608093 203.252853,74.491516 
	C222.094894,71.534157 240.448105,74.513206 258.034424,81.818115 
	C290.976288,95.501328 318.302734,115.930038 335.371918,148.034073 
	C344.975372,166.096481 348.560913,185.589340 346.713715,206.014648 
	C343.506866,241.473770 331.830383,274.668121 317.915192,306.939026 
	C304.842377,337.256256 295.643799,368.544861 288.667328,400.657806 
	C281.458893,433.838379 275.877563,467.295441 271.279846,500.922546 
	C267.293457,530.078552 263.315491,559.236877 259.577026,588.425354 
	C255.986633,616.457642 252.740875,644.533813 249.285965,672.583618 
	C243.817581,716.980469 238.843018,761.449829 230.226654,805.394287 
	C229.168015,810.793396 227.516525,816.018677 225.402817,821.121582 
	C220.520905,832.907532 212.195343,840.277222 199.195755,841.187256 
	C185.085999,842.175049 173.729111,836.968872 166.115982,824.775452 
	C160.119293,815.170959 158.115158,804.336426 157.799103,793.253967 
	C157.166901,771.085144 159.105408,748.996643 160.444855,726.893921 
	C160.998901,717.750977 161.032135,708.590149 161.496933,699.438110 
	C162.290726,683.808594 162.308136,668.139771 162.653046,651.989563 
M325.455841,142.021912 
	C310.192200,119.042564 289.418579,102.607216 264.716400,90.815605 
	C246.329025,82.038361 226.949951,76.424896 206.681274,79.665565 
	C165.557617,86.240631 132.691772,107.031471 109.130417,141.498520 
	C91.336563,167.528503 89.942322,196.548309 95.997383,226.443283 
	C102.513351,258.613800 114.060570,289.130402 127.828873,318.764435 
	C137.739731,340.095917 152.291199,358.003448 171.765350,371.573669 
	C200.742798,391.766113 234.169968,391.908936 263.330261,371.940338 
	C283.132233,358.380249 297.314056,339.989563 306.969269,318.352448 
	C321.029755,286.843231 333.109619,254.585541 339.270142,220.424149 
	C344.240814,192.860703 340.988770,166.724228 325.455841,142.021912 
M167.481659,682.930298 
	C166.958206,699.579468 166.615646,716.236755 165.864136,732.875610 
	C164.985275,752.334351 162.854477,771.756714 163.427414,791.252991 
	C163.766418,802.788879 165.688675,814.059753 172.390350,824.048157 
	C181.323257,837.362244 208.316391,842.609131 218.691422,821.888428 
	C221.477127,816.324890 223.418243,810.507263 224.612000,804.444519 
	C231.009506,771.952942 235.391937,739.146545 239.550064,706.317627 
	C243.874680,672.174316 247.512589,637.942932 251.969925,603.817871 
	C257.029602,565.081299 261.783112,526.304688 267.490417,487.649170 
	C272.619873,452.907562 278.597504,418.347382 286.664612,384.166321 
	C289.382355,372.650970 292.430328,361.213562 295.537964,348.906708 
	C274.457886,374.405884 250.264038,392.903473 216.237091,392.213409 
	C182.600174,391.531250 158.934998,372.406586 138.348572,347.292725 
	C142.363846,366.230347 144.518661,384.732513 147.174454,403.146912 
	C151.518372,433.266571 155.368286,463.457062 159.591629,493.594543 
	C163.150116,518.987732 165.702026,544.491455 167.133408,570.069214 
	C168.986816,603.188049 168.442917,636.364807 168.127960,669.523132 
	C168.088455,673.683411 167.782150,677.841125 167.481659,682.930298 
z"/>
</svg>