<svg version="1.1" id="Layer_1" xmlns="http://www.w3.org/2000/svg" xmlns:xlink="http://www.w3.org/1999/xlink" x="0px" y="0px"
	 width="100%" viewBox="0 0 624 1024" enable-background="new 0 0 624 1024" xml:space="preserve">
<path fill="#000000" opacity="1.000000" stroke="none" 
	d="
M276.768188,123.231735 
	C281.743286,128.182358 286.362732,132.996567 291.238281,137.535690 
	C293.904816,140.018234 296.909576,142.174606 299.928223,144.234222 
	C306.543518,148.747849 312.350098,149.300064 319.763641,144.000900 
	C340.762421,128.991074 362.402222,114.837677 385.703705,103.508591 
	C424.060730,84.859528 456.804321,95.043755 484.289124,123.906387 
	C510.282257,151.202560 522.292969,184.734360 526.376892,221.651489 
	C530.013428,254.523682 525.932495,286.727112 518.727600,318.704803 
	C513.325439,342.681366 505.466919,365.746460 493.997803,387.598328 
	C489.724335,395.740479 488.722809,405.093292 487.418427,414.149078 
	C481.863159,452.717102 477.812225,491.427979 475.931671,530.373840 
	C474.975586,550.174011 474.292908,569.964355 474.042297,589.784912 
	C473.557861,628.100342 472.360687,666.393066 465.220367,704.186523 
	C455.386841,756.234802 437.467865,804.948547 404.831512,847.377014 
	C382.593414,876.287598 356.792511,901.398804 325.091187,919.888184 
	C312.252747,927.376099 298.815521,933.428345 283.834259,935.699768 
	C260.718689,939.204468 242.571915,929.072021 233.656723,907.183228 
	C227.590668,892.289856 225.738678,876.544067 224.953766,860.751953 
	C223.869598,838.939209 225.505142,817.161255 227.348434,795.408203 
	C228.275436,784.468445 228.488235,773.468262 228.366943,762.387512 
	C226.004059,774.896912 223.628174,787.403931 221.281250,799.916382 
	C217.539734,819.864014 215.401031,840.104553 210.275253,859.800537 
	C208.170349,867.888611 205.575806,875.788208 201.425659,883.075928 
	C193.086884,897.718872 179.177261,900.145874 166.312210,889.203430 
	C157.400879,881.623779 152.220398,871.509216 148.063965,860.916504 
	C138.212051,835.808594 132.933838,809.605103 129.527588,782.910461 
	C126.910622,762.401489 125.459518,741.813782 125.216080,721.199158 
	C125.004112,703.248718 126.126640,685.285095 127.356956,667.339294 
	C129.612381,634.441223 135.521027,601.998962 138.932907,569.244324 
	C142.146622,538.392212 143.626358,507.481445 143.470276,476.520081 
	C143.328461,448.387329 141.921631,420.266754 138.562622,392.294525 
	C138.308990,390.182373 137.754242,387.970581 136.774017,386.101685 
	C120.282738,354.659363 111.712349,321.028381 108.510178,285.824066 
	C104.843163,245.509460 111.518166,207.110184 130.019669,171.075653 
	C143.886459,144.067947 162.518402,121.081467 189.493927,105.941048 
	C201.062668,99.447929 213.163895,94.579178 226.809601,94.556381 
	C238.937592,94.536118 249.148315,99.272392 258.413788,106.507362 
	C264.852875,111.535347 270.880554,117.053764 276.768188,123.231735 
M292.215851,213.792496 
	C291.910492,223.618057 291.621002,233.432648 293.060364,243.221344 
	C293.577789,246.740021 292.280670,249.717377 288.343506,250.153000 
	C284.885071,250.535660 283.197662,248.161835 282.778473,245.009872 
	C280.860535,230.587555 280.526550,216.186005 283.359497,201.812393 
	C286.514313,185.805817 291.728119,170.678207 302.234863,157.474258 
	C297.894958,155.037537 293.775238,152.945602 290.065948,150.118668 
	C279.264343,141.886444 270.958923,131.071854 260.801788,122.184288 
	C254.282990,116.480263 248.033722,110.355492 239.672119,107.340347 
	C225.943588,102.389900 213.147720,105.807205 200.636597,111.878342 
	C172.525085,125.519730 153.874985,148.334244 139.745895,175.270309 
	C122.086777,208.936111 116.250702,244.984161 119.044106,282.706177 
	C121.278046,312.873322 127.767281,341.956757 140.268585,369.560852 
	C148.462753,387.654297 158.557602,404.651886 175.078674,416.346802 
	C202.144455,435.506042 232.486267,440.006622 264.640106,434.077881 
	C280.278473,431.194336 295.881775,429.526031 311.793213,431.574585 
	C325.167023,433.296448 338.346741,436.194611 351.786377,437.542267 
	C372.443420,439.613678 393.094116,440.335236 413.497009,436.103027 
	C449.669952,428.599579 474.587585,406.909668 489.348663,373.457184 
	C512.765686,320.388275 523.144775,265.220612 513.632751,207.403259 
	C507.837830,172.180099 492.108185,142.059372 463.815063,119.447792 
	C450.632477,108.912437 435.458435,103.240562 418.352753,104.627983 
	C405.881958,105.639481 394.414948,110.285904 383.503540,116.205521 
	C361.947784,127.899887 341.651398,141.597214 321.207184,155.095520 
	C313.203552,160.379944 307.532593,166.930511 303.131012,175.180054 
	C296.819977,187.008408 293.805847,199.701233 292.215851,213.792496 
M469.332214,475.990479 
	C471.061371,455.171021 473.775970,434.462769 476.996979,412.798676 
	C470.730408,417.551758 466.406189,422.883179 460.806122,426.779785 
	C437.079803,443.288879 410.338318,449.498260 381.973602,449.876373 
	C362.430054,450.136902 343.159668,447.118286 323.944275,443.875671 
	C307.434662,441.089661 290.973206,440.004486 274.279083,442.983307 
	C259.229218,445.668762 244.114258,448.110748 228.629379,446.410583 
	C205.625565,443.884857 184.480011,436.785828 165.951065,422.621429 
	C160.456635,418.421204 155.812820,413.315552 150.639359,407.549286 
	C151.167221,414.993408 151.698959,421.449036 152.070801,427.913879 
	C153.822174,458.363190 154.709366,488.824890 153.165482,519.314270 
	C151.961395,543.093384 150.659302,566.898743 146.987198,590.425110 
	C141.979889,622.505920 137.837570,654.678894 136.471161,687.102417 
	C134.707718,728.947266 135.863922,770.724609 144.521790,811.904358 
	C148.597336,831.289001 153.409531,850.555115 162.924683,868.200745 
	C166.020416,873.941772 169.567902,879.424194 175.302322,882.978027 
	C181.655731,886.915466 186.454727,886.047852 190.915710,880.078247 
	C194.141174,875.761963 196.153152,870.835571 197.704346,865.692200 
	C203.291214,847.167419 206.265900,828.086426 209.513901,809.087769 
	C217.312042,763.473877 225.872513,718.058899 239.789886,673.808105 
	C248.497620,646.121521 258.025299,618.796326 271.744934,593.110474 
	C275.049835,586.922974 278.494232,580.813049 283.519775,575.825745 
	C291.002136,568.400391 299.295837,568.869446 305.742004,577.211853 
	C307.964172,580.087769 309.805847,583.325684 311.410492,586.599548 
	C321.220825,606.615112 327.230896,627.823364 331.720795,649.609436 
	C339.081848,685.327026 338.102325,721.015747 332.786407,756.815857 
	C328.602509,784.992493 321.100037,812.489380 315.860931,840.442566 
	C313.539062,852.830872 310.742493,865.310547 313.057495,878.071594 
	C314.666534,886.941345 321.195648,892.137634 330.043945,891.549438 
	C333.339783,891.330322 336.630188,890.738647 339.800232,889.578430 
	C351.779053,885.194458 361.796173,877.770142 370.933624,869.152954 
	C405.999390,836.083984 428.546844,795.294067 443.225983,749.920532 
	C455.496521,711.992004 460.904205,672.768127 462.460175,633.076538 
	C463.543121,605.450745 463.771271,577.787109 464.638458,550.143921 
	C465.406281,525.669861 467.254791,501.281952 469.332214,475.990479 
M314.641815,623.743591 
	C310.217590,610.662415 306.479095,597.290649 298.903168,585.517883 
	C295.483246,580.203369 293.071472,580.096619 289.021149,585.086426 
	C285.760468,589.103394 283.048309,593.507263 280.641632,598.091675 
	C268.207214,621.778076 259.306000,646.876587 251.134308,672.253662 
	C245.514832,689.704834 240.693146,707.197937 241.028687,725.937927 
	C241.311188,741.717102 240.098373,757.549133 239.011078,773.320740 
	C237.271301,798.557373 234.965607,823.751709 234.982025,849.085388 
	C234.993988,867.518799 236.684814,885.653381 243.333862,903.033813 
	C249.624619,919.477539 261.018738,926.778320 278.543671,925.662170 
	C294.566345,924.641724 320.897461,913.162354 333.165131,901.849365 
	C320.316345,903.333984 309.265442,897.528198 304.976959,886.816101 
	C302.276123,880.069641 301.297791,872.970276 301.957642,865.739624 
	C303.882904,844.642944 308.323669,823.990051 313.205322,803.422302 
	C322.424377,764.580078 328.517212,725.414917 325.850159,685.289978 
	C324.475250,664.604858 321.046570,644.317566 314.641815,623.743591 
z"/>
</svg>