<svg version="1.1" id="Layer_1" xmlns="http://www.w3.org/2000/svg" xmlns:xlink="http://www.w3.org/1999/xlink" x="0px" y="0px"
	 width="100%" viewBox="0 0 432 1024" enable-background="new 0 0 432 1024" xml:space="preserve">
<path fill="#000000" opacity="1.000000" stroke="none" 
	d="
M108.899979,796.044922 
	C101.729874,786.621582 99.826561,775.884399 98.644279,764.842896 
	C96.058990,740.698608 99.804520,716.563782 98.620766,692.442810 
	C97.813492,675.993042 96.371399,659.574646 95.242554,643.140259 
	C93.837944,622.691223 93.136955,602.253113 94.302811,581.738831 
	C95.181175,566.283264 96.267143,550.856873 97.589539,535.435608 
	C99.568069,512.362610 101.055367,489.242828 99.626183,466.083405 
	C98.406616,446.320740 96.671227,426.589966 95.174309,406.844330 
	C94.331223,395.723328 93.384956,384.607941 92.741814,373.475189 
	C92.503624,369.352112 91.540993,365.809723 89.104675,362.347260 
	C80.294289,349.826080 75.149895,335.491882 69.668015,321.372040 
	C61.399860,300.075500 54.870304,278.334320 51.353485,255.632263 
	C46.883930,226.780029 53.197933,201.231857 71.635094,178.498688 
	C85.685173,161.174850 102.095009,146.892624 122.038757,136.741623 
	C136.467407,129.397720 150.709518,129.398422 165.116776,136.892105 
	C179.449844,144.347168 191.494934,154.874451 203.930206,164.924179 
	C209.986420,169.818604 208.512909,171.189957 215.416718,164.570999 
	C230.851730,149.772842 247.053329,136.003052 265.991516,125.725815 
	C281.056030,117.550720 296.413208,116.378822 312.088043,123.369606 
	C339.895142,135.771255 362.968811,154.280411 381.137054,178.662201 
	C389.844757,190.347916 393.321106,204.212158 394.158386,218.508179 
	C396.696960,261.854279 386.124481,302.346649 366.591858,340.770569 
	C363.035248,347.767029 359.115967,354.542725 354.082855,360.592377 
	C351.165924,364.098511 351.583954,368.432098 350.906464,372.451202 
	C348.115692,389.007019 343.837830,405.278229 341.777832,421.981079 
	C340.369110,433.403381 339.646790,444.866669 339.421356,456.329346 
	C339.054474,474.986084 339.548126,493.658661 339.271088,512.318481 
	C338.216156,583.370667 320.787628,649.859436 283.722015,710.880310 
	C272.630890,729.139587 261.113342,747.056519 246.372696,762.645691 
	C227.575897,782.524414 204.505722,796.034241 179.426071,806.130005 
	C166.817154,811.205566 154.477127,808.896790 143.500992,800.770752 
	C139.892609,798.099365 137.368332,797.332764 133.279633,800.805420 
	C126.025322,806.966797 117.178574,804.905518 108.899979,796.044922 
M136.005829,141.407074 
	C130.016464,143.050247 124.467911,145.708984 119.142029,148.842026 
	C106.253395,156.423981 95.109245,166.133728 84.960533,177.041275 
	C63.581646,200.018753 55.106316,226.560150 60.929684,257.900421 
	C65.861427,284.442169 74.447273,309.681488 84.891411,334.405426 
	C89.237274,344.693237 93.354324,355.384430 101.812553,363.015228 
	C123.330360,382.428040 148.280167,390.633392 176.945251,382.980743 
	C200.332932,376.737000 223.792343,375.824097 246.958939,382.338776 
	C267.887238,388.224030 287.796112,385.936279 307.619781,378.765137 
	C328.709259,371.136108 346.481903,359.656128 357.146515,338.673096 
	C376.282318,301.022736 387.501129,261.743530 384.816681,219.108139 
	C384.080597,207.416962 381.119110,196.490402 375.140839,186.412231 
	C369.284515,176.539688 361.164978,168.631668 352.747162,161.030426 
	C342.079315,151.397430 330.383514,143.225342 317.879547,136.076569 
	C298.819763,125.179695 280.661407,126.021095 262.524292,138.335205 
	C247.584808,148.478241 233.929871,160.094635 220.603821,172.207596 
	C210.407928,181.475357 204.329926,192.700729 202.607239,206.308578 
	C202.064178,210.598297 201.670151,214.911636 201.367798,219.225388 
	C201.167755,222.079559 200.195267,224.210327 197.041336,224.229507 
	C193.545456,224.250748 192.707275,221.853439 192.619156,218.844223 
	C192.272415,207.006332 194.456009,195.646408 199.150223,184.800705 
	C202.938126,176.048996 202.988083,176.134445 195.411560,169.829178 
	C185.160309,161.298019 174.876053,152.802170 163.093704,146.415131 
	C154.915375,141.981781 146.411041,138.727402 136.005829,141.407074 
M329.862030,458.624725 
	C330.424286,429.722931 334.723785,401.281403 341.100189,373.007080 
	C337.858276,374.222778 335.485809,375.739624 333.023224,377.092407 
	C305.155426,392.401184 276.260284,400.333282 244.339340,391.174408 
	C222.891800,385.020630 201.092514,385.645905 179.762482,391.957825 
	C163.582077,396.745911 147.937180,395.687958 132.133026,390.795898 
	C121.775902,387.589905 112.055267,383.092896 102.256767,376.487305 
	C103.107635,388.347595 103.751022,399.101746 104.676163,409.831604 
	C106.477234,430.720581 108.527847,451.590210 109.312241,472.552399 
	C110.624046,507.609558 105.602356,542.338135 103.773407,577.232727 
	C102.348984,604.409302 103.354103,631.493164 105.705597,658.563538 
	C107.218849,675.984070 108.699547,693.429749 107.848427,710.922546 
	C107.151283,725.250549 107.385094,739.569336 107.272888,753.893921 
	C107.217758,760.931274 108.218521,767.850830 109.592056,774.693359 
	C110.672821,780.077454 112.348969,785.358276 115.877258,789.783325 
	C121.043022,796.261963 126.430962,796.227356 131.378845,789.618042 
	C135.000153,784.780701 137.617523,779.367065 139.764755,773.758423 
	C153.748444,737.232239 162.325882,699.293884 168.580185,660.814758 
	C170.817307,647.051025 171.516647,633.044739 173.292755,619.197266 
	C176.583755,593.538513 183.413498,568.670593 190.814514,543.959961 
	C194.395935,532.002258 197.819946,519.921265 204.197647,509.064026 
	C208.574387,501.613190 215.307877,501.696289 219.808502,509.068726 
	C223.388824,514.933655 225.539337,521.414490 227.333130,528.037354 
	C233.094711,549.309692 233.470825,571.165710 233.950760,592.929138 
	C234.666687,625.395630 228.250000,656.769714 218.058090,687.501953 
	C212.407593,704.540283 205.608734,721.245911 202.638626,739.112366 
	C201.284149,747.260132 203.223770,753.919312 209.872162,759.034302 
	C214.043488,762.243469 218.755447,764.294678 223.837082,765.461487 
	C226.878342,766.159790 229.570496,765.595886 232.170319,763.421143 
	C237.325668,759.108643 241.773285,754.159119 245.903122,748.941406 
	C276.299530,710.537903 299.429138,668.248169 313.564606,621.237976 
	C322.944824,590.042236 328.623840,558.146484 329.586548,525.577698 
	C330.236206,503.600891 329.794861,481.591766 329.862030,458.624725 
M185.829834,600.188904 
	C181.595932,618.747498 181.165482,637.809082 178.381531,656.556091 
	C171.763916,701.118835 162.270752,744.943970 144.324570,786.542114 
	C143.588242,788.248901 143.291702,789.505432 145.073700,790.837830 
	C155.666718,798.757996 166.885315,802.007385 179.629440,796.176208 
	C191.623520,790.688232 203.168091,784.397095 214.280930,777.307800 
	C215.628769,776.447998 217.235489,775.785583 218.022995,773.790833 
	C216.034088,772.944763 214.052460,772.182129 212.139343,771.275024 
	C199.431290,765.249084 190.483612,754.037537 193.377136,738.073425 
	C196.490158,720.898071 202.525406,704.707214 207.975204,688.312500 
	C215.190369,666.606995 220.912994,644.584900 223.462784,621.844910 
	C225.698410,601.906799 224.768387,581.899658 223.409866,561.954041 
	C222.550293,549.334167 220.873993,536.761353 216.614517,524.728149 
	C215.493942,521.562378 214.804825,518.088806 211.279343,514.762756 
	C199.546829,542.551880 192.469666,570.857788 185.829834,600.188904 
z"/>
</svg>