<?xml version="1.0" standalone="no"?>
<!DOCTYPE svg PUBLIC "-//W3C//DTD SVG 20010904//EN"
 "http://www.w3.org/TR/2001/REC-SVG-20010904/DTD/svg10.dtd">
<svg version="1.0" xmlns="http://www.w3.org/2000/svg"
 width="672.000000pt" height="1247.000000pt" viewBox="0 0 672.000000 1247.000000"
 preserveAspectRatio="xMidYMid meet">

<g transform="translate(0.000000,1247.000000) scale(0.100000,-0.100000)"
fill="#000000" stroke="none">
<path d="M3116 11714 c-142 -45 -232 -162 -273 -354 -21 -99 -22 -269 -9
-1365 9 -688 3 -915 -30 -1265 -35 -370 -83 -599 -264 -1260 -243 -887 -328
-1315 -405 -2040 -11 -94 -44 -243 -84 -377 -30 -99 -52 -150 -100 -229 -161
-266 -444 -1035 -629 -1714 -114 -416 -198 -843 -220 -1115 -32 -401 127 -789
438 -1062 274 -241 638 -387 1105 -442 389 -46 1389 -49 1894 -6 346 30 464
50 596 102 133 53 220 108 311 198 125 124 201 280 225 462 16 118 7 190 -51
438 -27 115 -77 343 -110 505 -328 1584 -444 2087 -569 2460 -58 173 -59 177
-64 315 -4 94 -17 208 -41 345 -77 443 -86 598 -86 1485 0 374 -5 754 -10 845
-68 1112 -351 2271 -817 3345 -134 307 -225 458 -354 587 -109 107 -198 151
-317 155 -58 2 -103 -2 -136 -13z m239 -131 c176 -90 304 -284 507 -768 406
-968 661 -2005 749 -3045 6 -76 15 -524 19 -1020 9 -984 10 -1009 80 -1427 23
-134 40 -251 38 -260 -2 -11 -12 -2 -32 28 -54 82 -235 251 -350 328 -192 128
-364 201 -596 253 -92 20 -131 23 -310 23 -233 -1 -321 -15 -532 -85 -239 -79
-515 -246 -663 -399 -21 -23 -42 -41 -46 -41 -4 0 -3 15 2 33 10 35 37 230 69
507 28 237 81 557 129 780 56 263 89 392 315 1235 139 516 188 817 216 1330
13 250 13 1019 -2 1575 -13 505 -7 646 32 772 45 145 134 212 270 205 39 -3
81 -12 105 -24z m377 -6027 c391 -72 784 -341 967 -660 159 -279 314 -885 676
-2656 56 -275 85 -408 136 -622 34 -145 41 -189 40 -273 -1 -331 -203 -578
-551 -674 -81 -23 -317 -53 -550 -71 -426 -32 -1356 -30 -1726 5 -491 47 -868
196 -1132 449 -240 229 -372 522 -372 825 0 477 299 1622 645 2471 174 427
277 587 524 813 227 206 570 363 891 407 94 13 351 5 452 -14z"/>
</g>
</svg>
