<svg version="1.1" id="Layer_1" xmlns="http://www.w3.org/2000/svg" xmlns:xlink="http://www.w3.org/1999/xlink" x="0px" y="0px"
	 width="100%" viewBox="0 0 544 1024" enable-background="new 0 0 544 1024" xml:space="preserve">
<path fill="#000000" opacity="1.000000" stroke="none" 
	d="
M161.880341,722.982239 
	C168.529907,708.388977 175.389542,694.295288 181.409210,679.851501 
	C186.345535,668.006897 188.625839,655.283325 191.710983,642.855591 
	C200.690765,606.682739 208.434555,570.234253 215.113403,533.571777 
	C220.746201,502.651367 225.420624,471.587402 228.914719,440.329651 
	C234.109970,393.853241 234.353485,347.225250 233.449326,300.600555 
	C232.441010,248.605743 232.584900,196.617569 233.002579,144.630020 
	C233.169617,123.840813 235.313889,103.122391 238.306351,82.497566 
	C240.002060,70.810089 241.417419,59.085419 243.724655,47.496334 
	C245.004593,41.067364 247.120789,34.946602 251.123535,29.643896 
	C259.217194,18.921648 271.320709,16.851276 282.381470,24.397671 
	C293.074188,31.692961 299.850952,42.221573 305.128418,53.639553 
	C316.452332,78.139114 322.291382,104.354317 328.163788,130.512421 
	C335.160431,161.678253 340.663666,193.134323 344.827484,224.789841 
	C348.124146,249.852585 350.677887,275.017487 353.270477,300.167053 
	C355.658478,323.332153 357.781189,346.526672 359.779785,369.729004 
	C360.836639,381.998016 361.708954,394.301025 362.090881,406.606506 
	C363.062744,437.919495 363.610229,469.248108 362.931824,500.573883 
	C361.881775,549.061646 361.885834,597.551392 362.373993,646.041443 
	C362.481140,656.683167 363.496246,667.314514 364.035767,677.953613 
	C364.287079,682.908752 366.482727,687.260620 368.160095,691.766541 
	C381.171295,726.718567 394.664490,761.499329 406.004333,797.048401 
	C409.651337,808.481384 412.488312,820.180176 413.135529,832.194885 
	C414.198303,851.923645 408.548309,870.090759 398.799347,887.005798 
	C386.167389,908.922791 368.955597,926.978027 350.076996,943.549927 
	C333.123657,958.431885 314.687592,971.236511 295.505707,983.082458 
	C278.567383,993.542847 261.463470,994.099854 243.603455,985.937561 
	C218.377747,974.408936 195.845566,958.826172 174.944244,940.761108 
	C158.975891,926.959534 144.537277,911.802795 133.867996,893.402588 
	C122.864922,874.426575 119.913460,854.179504 124.096085,832.702087 
	C130.665924,798.966492 143.387329,767.306824 156.456207,735.753479 
	C158.177490,731.597656 159.968445,727.470703 161.880341,722.982239 
M142.619110,883.883667 
	C152.831543,903.041565 167.688293,918.254333 183.937103,932.231995 
	C202.701248,948.373535 222.883331,962.422424 245.189545,973.327332 
	C259.862854,980.500732 274.067871,982.043823 288.838654,972.923584 
	C315.474579,956.477173 340.482269,938.071045 362.020325,915.240295 
	C374.646606,901.856323 385.912201,887.483948 393.563995,870.536926 
	C403.762268,847.949951 402.224762,825.167419 394.963593,802.280396 
	C383.577209,766.390808 369.551331,731.444031 356.971527,695.983398 
	C351.195679,679.702209 342.611450,665.693420 330.040344,654.022522 
	C302.597412,628.544861 263.391174,624.399719 231.754990,644.365906 
	C212.638885,656.430420 198.032303,672.920837 188.526260,693.634460 
	C183.872360,703.775330 179.165939,713.896912 174.765457,724.148376 
	C161.037903,756.128296 147.526932,788.170166 138.823715,822.028809 
	C133.452576,842.924500 131.707916,863.353149 142.619110,883.883667 
M245.399216,327.424072 
	C245.570084,332.584808 245.946701,337.748322 245.877335,342.905823 
	C245.514618,369.874512 244.908783,396.806549 242.564148,423.727997 
	C239.384018,460.242645 234.044662,496.406219 227.589447,532.442078 
	C220.223038,573.564575 211.425201,614.379883 201.353714,654.923889 
	C200.901306,656.745117 199.688858,658.599243 201.150864,661.269958 
	C221.419800,638.606201 245.262955,623.628662 276.751251,624.645203 
	C308.263062,625.662476 331.571259,641.452454 350.537384,666.292603 
	C351.250183,657.101501 350.019409,648.993103 349.937195,640.859436 
	C349.480652,595.697449 350.090515,550.542175 350.628357,505.383667 
	C351.174103,459.565582 351.434052,413.716827 347.536987,368.015564 
	C344.441223,331.710724 340.630371,295.462006 336.741638,259.230835 
	C331.443939,209.872406 323.426300,160.949539 311.520538,112.726982 
	C306.811218,93.652512 301.898529,74.581909 293.089996,56.851204 
	C289.064362,48.747997 284.182861,41.150745 276.950958,35.479050 
	C270.317780,30.276903 264.613770,31.250399 259.986115,38.123116 
	C257.624298,41.630756 256.263947,45.647289 255.567123,49.735008 
	C250.221329,81.094589 245.715851,112.576424 245.294571,144.449219 
	C244.492767,205.112167 245.312469,265.777893 245.399216,327.424072 
z"/>
</svg>