<svg version="1.1" id="Layer_1" xmlns="http://www.w3.org/2000/svg" xmlns:xlink="http://www.w3.org/1999/xlink" x="0px" y="0px"
	 width="100%" viewBox="0 0 432 1024" enable-background="new 0 0 432 1024" xml:space="preserve">
<path fill="#000000" opacity="1.000000" stroke="none" 
	d="
M244.046600,795.023560 
	C212.659531,779.131958 190.472382,754.296875 172.190125,725.395447 
	C148.434097,687.840637 129.632553,648.167908 119.279099,604.706543 
	C111.761200,573.148254 107.949417,541.213501 107.628365,508.797119 
	C107.417229,487.477661 108.112831,466.165985 107.128395,444.831909 
	C106.164246,423.937134 102.530396,403.539215 98.157455,383.194855 
	C97.528862,380.270416 96.935623,377.321747 96.604523,374.353271 
	C95.798058,367.122986 93.041847,361.021667 88.927429,354.812286 
	C73.489006,331.513062 64.094620,305.542664 57.759712,278.444641 
	C53.260303,259.198120 51.726784,239.623978 52.802258,219.923325 
	C53.848248,200.762665 59.923508,183.473343 73.193367,169.070358 
	C89.488907,151.383316 107.865738,136.502533 129.452942,125.647179 
	C147.532516,116.555672 165.170395,116.530540 182.853455,126.705742 
	C200.902588,137.091583 216.749390,150.231659 231.652451,164.636978 
	C237.835800,170.613846 236.316147,170.527252 243.098831,165.003403 
	C253.946335,156.169144 264.572144,147.107712 276.568939,139.736588 
	C293.593597,129.276230 310.534271,128.379593 328.071106,138.271347 
	C353.181519,152.435074 373.407654,171.584534 387.385834,196.860519 
	C397.281830,214.754898 398.693634,234.192291 395.915070,254.125687 
	C391.363586,286.777588 379.979218,317.272034 366.570435,347.125183 
	C365.343506,349.856842 364.361511,352.907135 362.442322,355.083252 
	C353.931519,364.733337 353.991425,376.517273 353.189728,388.299805 
	C351.563232,412.205658 349.299805,436.068176 347.667969,459.973724 
	C346.487305,477.269531 346.612061,494.605682 347.765015,511.915771 
	C350.153717,547.779663 354.728210,583.558899 353.083984,619.590149 
	C352.082977,641.527039 349.961731,663.410583 348.601868,685.334167 
	C347.890228,696.807556 348.099243,708.313354 348.643402,719.804321 
	C349.573700,739.448608 350.443451,759.108154 346.174805,778.517029 
	C344.315643,786.970398 340.890747,794.708679 333.753235,800.161987 
	C326.494843,805.707703 319.249939,805.723816 312.381195,799.799133 
	C309.756073,797.534729 307.877075,797.718079 305.464233,799.557739 
	C289.731750,811.553345 273.437653,810.691711 256.774902,801.674683 
	C252.672943,799.454834 248.504852,797.357300 244.046600,795.023560 
M263.805511,381.539673 
	C276.212463,385.250427 288.717957,387.460938 301.688873,384.667999 
	C326.635895,379.296204 347.327087,368.337860 358.141479,343.456848 
	C371.245697,313.307648 383.056366,282.822968 387.052338,249.854309 
	C389.596832,228.860779 385.983337,209.426865 373.707977,191.910019 
	C361.096619,173.913681 345.359802,159.405609 326.505829,148.002808 
	C310.505493,138.325836 295.337067,138.463669 279.693146,148.688156 
	C267.932587,156.374527 257.253632,165.374695 246.282639,174.048737 
	C243.730362,176.066635 243.633636,177.438171 245.234772,180.149582 
	C252.389587,192.265793 254.628906,205.608246 254.364441,219.490829 
	C254.313202,222.180328 253.146103,224.096420 250.302246,224.205673 
	C247.229752,224.323730 245.884781,222.456589 245.674759,219.506500 
	C245.414917,215.856964 245.089981,212.209366 244.679474,208.573761 
	C243.216934,195.621140 238.892883,183.973984 229.043137,174.919373 
	C222.297974,168.718704 215.738449,162.289444 208.692917,156.448517 
	C198.181198,147.734009 187.459000,139.278198 175.115707,133.116287 
	C163.737991,127.436401 152.202957,126.421310 140.365082,131.174500 
	C116.173576,140.887985 96.582138,156.943146 79.384636,176.123047 
	C70.507156,186.023849 65.191505,197.718536 63.099953,210.919083 
	C60.998020,224.185150 61.198013,237.512680 62.553528,250.743912 
	C65.782585,282.262787 75.585999,311.805359 90.521080,339.710815 
	C96.536880,350.951019 104.252014,360.504272 115.381989,367.087555 
	C142.284546,383.000214 170.246094,390.878082 201.712418,381.906982 
	C221.809967,376.177155 242.522079,376.558472 263.805511,381.539673 
M337.770599,466.655182 
	C340.102051,436.944946 342.433472,407.234711 344.839264,376.577179 
	C341.620544,378.515778 339.553497,379.896637 337.368713,381.055573 
	C315.453766,392.680695 292.830536,399.531616 267.826050,392.048370 
	C248.647064,386.308563 229.113922,385.887909 209.494522,389.401672 
	C199.522034,391.187744 189.919876,394.975067 179.665909,395.249115 
	C161.505600,395.734436 144.421646,391.051270 127.795197,384.210938 
	C120.256447,381.109375 113.437225,376.652954 105.708771,372.224091 
	C106.145279,375.132446 106.396950,377.224976 106.779877,379.293213 
	C109.291313,392.857758 112.772560,406.229950 114.376358,419.978027 
	C117.182167,444.029877 117.476318,468.153168 117.002159,492.316803 
	C116.370201,524.522095 118.560387,556.468506 125.041359,588.108398 
	C133.550186,629.648071 148.843124,668.477661 170.567123,704.824524 
	C182.127869,724.167053 194.429352,742.999878 210.223877,759.237244 
	C217.782562,767.007874 221.162766,767.399780 230.952835,762.756470 
	C232.602356,761.974121 234.197433,761.042480 235.719727,760.032227 
	C242.214218,755.722107 245.659134,749.898499 244.672897,741.861572 
	C243.655396,733.569824 241.707367,725.495850 239.117828,717.570496 
	C234.048706,702.056213 228.584061,686.660706 223.930832,671.023254 
	C213.937027,637.438232 211.358459,603.036194 213.900986,568.205017 
	C214.978638,553.441650 216.298599,538.673157 220.727722,524.424988 
	C222.557297,518.539307 224.470993,512.625427 228.189362,507.598663 
	C232.161835,502.228455 237.981339,502.317932 241.892639,507.697601 
	C242.962112,509.168488 243.803986,510.822723 244.618011,512.458679 
	C250.885971,525.055359 254.688110,538.536377 258.535309,551.977966 
	C265.492615,576.285583 272.033813,600.685852 274.482208,625.984375 
	C275.731354,638.891602 276.975250,651.822632 278.942566,664.632141 
	C282.861603,690.149109 289.082733,715.183411 296.000549,740.036255 
	C300.601807,756.566589 305.226685,773.144714 314.451233,787.863647 
	C320.252197,797.119751 327.046631,796.826904 332.746307,787.390015 
	C333.773010,785.690125 334.622192,783.845825 335.293701,781.975098 
	C338.189240,773.907654 339.337769,765.495911 339.643188,756.992249 
	C340.391327,736.161499 338.534912,715.331238 339.113281,694.526184 
	C339.658661,674.909790 341.372986,655.317200 342.887543,635.738464 
	C345.130951,606.737427 343.853638,577.788635 341.392456,548.910828 
	C339.085754,521.845581 336.866882,494.813904 337.770599,466.655182 
M297.150482,774.192139 
	C294.995575,767.890259 292.603699,761.658142 290.724182,755.275208 
	C278.436493,713.545044 269.264587,671.279297 265.356018,627.779297 
	C262.124878,591.818726 251.538849,557.340149 239.358490,523.433472 
	C238.387192,520.729736 237.427231,517.848145 235.039230,515.495422 
	C232.171829,518.593201 231.254974,522.134033 230.099030,525.547180 
	C223.811752,544.111755 223.414474,563.502686 222.477158,582.750366 
	C220.839645,616.376648 226.210602,649.066223 236.616852,681.024475 
	C242.280579,698.418030 248.955490,715.485840 252.805466,733.468445 
	C256.851013,752.364563 251.591202,764.059265 231.841492,772.527954 
	C230.862289,772.947815 229.462570,772.903259 229.007217,774.652100 
	C239.486771,782.256958 251.134888,787.965332 262.568726,794.091370 
	C276.037933,801.307983 288.606140,800.686401 300.915253,791.535767 
	C303.330017,789.740601 303.713135,788.355713 302.414368,785.814575 
	C300.598267,782.260986 299.097931,778.546082 297.150482,774.192139 
z"/>
</svg>