<svg version="1.1" id="Layer_1" xmlns="http://www.w3.org/2000/svg" xmlns:xlink="http://www.w3.org/1999/xlink" x="0px" y="0px"
	 width="100%" viewBox="0 0 432 1024" enable-background="new 0 0 432 1024" xml:space="preserve">
<path fill="#000000" opacity="1.000000" stroke="none" 
	d="
M339.333984,798.245239 
	C329.065460,809.553955 321.498535,810.097229 308.197021,800.709656 
	C306.143494,800.767334 305.160187,802.541138 303.835327,803.698181 
	C292.786652,813.347839 279.858673,815.545959 266.981567,809.768372 
	C238.222351,796.864990 211.366501,780.852844 191.068527,755.861389 
	C177.139969,738.712097 166.222107,719.636353 155.553192,700.380066 
	C131.519684,657.002197 116.861244,610.631714 110.960617,561.469421 
	C108.338623,539.623657 107.165253,517.662781 107.768188,495.664429 
	C108.802872,457.913605 107.123199,420.517517 97.640549,383.646027 
	C95.344711,374.719116 92.653534,366.806702 87.657013,358.881195 
	C70.205040,331.198730 60.052864,300.652771 55.585854,268.246918 
	C53.442009,252.694489 52.801098,237.100418 54.582939,221.440170 
	C56.307426,206.283920 62.040619,192.805099 71.553253,181.012924 
	C88.578598,159.907715 109.910561,144.076370 133.960785,131.977509 
	C150.345383,123.734962 166.737625,125.197662 182.796463,133.893890 
	C199.371857,142.869827 213.717972,154.682587 227.251175,167.614685 
	C228.937561,169.226166 230.670746,170.804092 232.214691,172.546066 
	C235.558670,176.318893 238.818039,176.204300 242.532791,172.959137 
	C252.326111,164.403748 262.775696,156.729630 273.455872,149.284271 
	C292.443542,136.047592 311.217377,135.747940 330.881348,147.704727 
	C353.969330,161.743484 373.249054,179.528549 386.446136,203.239166 
	C396.159302,220.690247 398.551514,239.678024 395.963074,259.367279 
	C391.512054,293.224304 379.945618,324.894409 366.249786,355.902649 
	C365.042480,358.636078 363.920532,361.618561 361.973206,363.776276 
	C354.577728,371.970947 354.133728,382.083588 353.294159,392.213135 
	C350.957184,420.409576 348.869324,448.624329 347.552246,476.885712 
	C346.753204,494.031281 347.335144,511.164520 348.936035,528.274048 
	C350.238037,542.189148 351.161926,556.140259 352.192810,570.079956 
	C354.150879,596.557617 353.383179,623.025024 351.105377,649.424072 
	C348.708618,677.202209 348.789093,705.005371 349.504333,732.810303 
	C349.929504,749.338501 349.875031,765.751404 346.319519,781.980286 
	C345.061493,787.722473 343.128998,793.190063 339.333984,798.245239 
M282.020782,157.546387 
	C268.484009,165.533569 256.855469,176.038177 244.378998,185.946060 
	C246.762634,191.079971 249.076126,196.210541 250.674042,201.647827 
	C253.346832,210.742722 253.684296,220.000031 253.144119,229.342941 
	C253.033829,231.250763 252.952881,233.886032 250.313675,233.851288 
	C247.963394,233.820358 248.072479,231.343918 247.845215,229.575104 
	C247.421448,226.276627 247.251465,222.937698 246.678940,219.667587 
	C244.428345,206.812943 240.377670,194.786758 230.334335,185.666748 
	C224.539902,180.405014 218.787369,175.094971 212.909119,169.928223 
	C202.641830,160.903732 192.035141,152.395874 180.169067,145.414017 
	C163.868164,135.822769 148.039780,136.183212 131.980026,145.713577 
	C120.633949,152.446701 109.672562,159.745331 99.719215,168.380692 
	C87.580750,178.911850 76.371353,190.320145 70.305794,205.690765 
	C62.417332,225.680771 64.420616,246.352188 66.819298,266.851166 
	C69.407806,288.972534 76.715790,309.841980 85.068436,330.451111 
	C94.979881,354.906372 111.145653,372.727325 135.918503,382.409180 
	C155.442642,390.039673 175.210617,395.085480 196.292191,389.294342 
	C222.247375,382.164459 248.219360,381.889526 274.123047,389.638489 
	C282.769745,392.225098 291.528717,392.643494 300.284515,390.666504 
	C324.872894,385.114594 345.808289,374.368744 356.479248,349.726471 
	C368.942902,320.944397 379.751740,291.636963 384.326355,260.382874 
	C387.163177,241.001663 385.015198,222.513199 374.621033,205.515549 
	C361.715240,184.410614 343.938202,168.502289 322.540802,156.272675 
	C308.866791,148.457321 295.748871,148.254761 282.020782,157.546387 
M340.402740,562.020447 
	C339.155121,546.932861 337.911865,531.844910 336.658813,516.757812 
	C335.193970,499.120941 335.577423,481.480560 336.723053,463.853149 
	C337.855560,446.426331 339.210785,429.014130 340.423187,411.592346 
	C341.015137,403.087006 341.504517,394.574524 342.086792,385.327209 
	C339.447723,386.961731 337.679138,388.200165 335.787231,389.206970 
	C315.338593,400.088959 294.249786,407.434998 270.724945,400.467285 
	C248.658417,393.931458 226.482346,393.582520 204.152374,398.979889 
	C196.073044,400.932739 188.048889,403.332489 179.624008,403.240997 
	C156.600113,402.990997 135.349106,396.506317 115.592514,384.854095 
	C113.412811,383.568542 111.266335,382.226624 108.230202,380.378784 
	C108.985573,384.089813 109.354675,386.538391 109.987915,388.916687 
	C116.886307,414.825256 119.583611,441.194061 119.344833,467.975403 
	C119.138496,491.117554 118.519287,514.266724 120.154617,537.406616 
	C121.528809,556.851379 124.169106,576.101440 128.122086,595.158264 
	C138.454041,644.967407 159.982224,689.943604 187.820618,732.136963 
	C195.275391,743.435852 203.713608,753.949585 213.786743,763.061584 
	C215.995483,765.059631 218.291138,767.951965 221.352570,767.454285 
	C234.905365,765.250732 245.634705,759.549377 243.272812,743.241638 
	C240.745346,725.790833 234.496368,709.454895 228.982956,692.894165 
	C221.761627,671.203430 215.652786,649.277466 213.888855,626.364807 
	C212.339493,606.239136 212.107925,586.085815 213.919067,565.981445 
	C215.187164,551.905029 217.096176,537.878479 221.560303,524.358643 
	C223.137238,519.582886 225.031342,514.949280 228.752182,511.381104 
	C233.888687,506.455261 238.819260,506.865631 243.157440,512.514404 
	C245.827530,515.991150 247.468216,520.022522 249.063583,524.042419 
	C259.659637,550.741760 266.524139,578.500549 272.300537,606.557129 
	C275.701355,623.075134 275.269318,640.039673 277.666138,656.625244 
	C283.533447,697.225708 293.663116,736.857727 307.322998,775.555176 
	C309.489746,781.693359 312.318481,787.590759 316.873749,792.397888 
	C321.069000,796.825134 325.173645,796.770813 329.349121,792.357178 
	C332.173370,789.371765 333.735107,785.675781 334.646729,781.744812 
	C338.513824,765.070251 339.232880,748.156311 338.292542,731.131409 
	C337.271729,712.649841 337.275635,694.158020 338.194397,675.683228 
	C339.169647,656.073914 340.784515,636.494141 341.604248,616.879944 
	C342.355621,598.901123 341.654846,580.910034 340.402740,562.020447 
M236.746246,524.275635 
	C236.323364,523.614014 235.900467,522.952332 235.396545,522.163879 
	C233.204178,523.948792 232.934875,526.351501 232.272446,528.508484 
	C227.799210,543.074280 225.919296,558.056091 224.884384,573.212036 
	C223.576202,592.369995 223.591858,611.519592 225.678818,630.581543 
	C227.987854,651.671814 233.954041,671.933838 240.624710,692.035583 
	C246.323303,709.207947 253.189606,726.073547 254.637161,744.460266 
	C255.748016,758.570129 250.213272,768.772156 237.349869,774.561035 
	C235.769943,775.272034 233.694626,775.302185 232.581085,777.888184 
	C245.263458,786.057617 258.086639,794.091248 272.229736,799.553467 
	C281.322235,803.065063 289.841003,801.164978 297.195679,794.302979 
	C300.021393,791.666443 300.716736,789.507019 299.237671,785.693848 
	C283.517548,745.166565 273.063202,703.196228 266.877991,660.255188 
	C263.634674,637.738342 263.342682,614.840332 257.775574,592.579224 
	C252.036758,569.631531 246.135254,546.766907 236.746246,524.275635 
z"/>
</svg>