<svg version="1.1" id="Layer_1" xmlns="http://www.w3.org/2000/svg" xmlns:xlink="http://www.w3.org/1999/xlink" x="0px" y="0px"
	 width="100%" viewBox="0 0 432 1024" enable-background="new 0 0 432 1024" xml:space="preserve">
<path fill="#000000" opacity="1.000000" stroke="none" 
	d="
M123.880646,611.916504 
	C123.185593,579.783875 122.255234,548.137695 122.922272,516.484802 
	C123.736313,477.856781 124.852043,439.235199 125.760941,400.609039 
	C126.172585,383.114990 125.638496,365.650238 123.681221,348.241058 
	C123.391586,345.664917 122.325256,343.467316 121.270126,341.209686 
	C105.135315,306.686920 92.512993,270.980194 85.188705,233.512619 
	C79.307770,203.428574 85.549988,176.291168 105.480141,152.704391 
	C130.006348,123.678291 158.420303,99.311569 191.839844,80.941612 
	C211.425522,70.175812 230.810028,69.620728 250.154449,81.377953 
	C278.426880,98.561478 305.223206,117.645325 328.434113,141.454376 
	C346.193481,159.671402 351.624329,181.468628 348.672455,206.210037 
	C345.172333,235.546600 334.699188,262.642059 322.797760,289.292206 
	C313.090820,311.028290 303.157745,332.632385 291.416504,353.428741 
	C285.815521,363.349365 284.261536,375.186005 281.433716,386.300781 
	C270.273895,430.164948 260.788452,474.394684 253.658279,519.097595 
	C248.915497,548.832642 245.189819,578.697327 243.125275,608.766785 
	C241.322021,635.030640 240.798233,661.323486 240.168121,687.627197 
	C238.715515,748.265076 238.560059,808.905762 239.386566,869.548523 
	C239.681458,891.187134 241.679855,912.786255 241.169083,934.454468 
	C241.046936,939.635803 240.533493,944.754883 239.258942,949.778015 
	C235.931030,962.893494 225.295395,969.159973 212.184891,965.732239 
	C202.950638,963.317810 195.992249,957.320557 189.479095,950.826843 
	C176.632797,938.018738 168.092102,922.448792 161.224411,905.846558 
	C149.742355,878.089294 144.042587,848.899780 139.697693,819.367310 
	C134.099365,781.315186 130.832260,743.046753 128.496094,704.667725 
	C126.847343,677.581665 125.018616,650.513977 124.581047,623.372192 
	C124.522064,619.713623 124.130966,616.060425 123.880646,611.916504 
M205.142883,81.609947 
	C199.981369,83.547234 195.081207,86.021149 190.293549,88.743744 
	C162.055984,104.801620 138.026917,125.944572 115.986053,149.609665 
	C93.339012,173.925613 84.634872,202.088486 91.597672,234.735687 
	C99.692406,272.690247 111.376816,309.590942 129.783859,343.756287 
	C146.255600,374.329437 173.013229,391.154419 208.154465,391.491241 
	C243.796524,391.832886 270.629669,375.159241 288.891785,344.832642 
	C299.479980,327.249573 307.533691,308.351532 315.919098,289.661560 
	C327.522308,263.799438 337.998566,237.588379 342.126160,209.217163 
	C345.873962,183.456482 340.285278,161.055161 321.133850,142.558136 
	C298.592346,120.786873 273.462769,102.512375 246.654709,86.450211 
	C233.857529,78.782738 220.297958,76.543571 205.142883,81.609947 
M235.505249,633.070129 
	C239.276932,542.915161 257.414551,455.145020 279.690613,367.842682 
	C239.285202,408.431793 171.409439,409.783875 130.983276,358.665680 
	C131.641922,370.806427 132.485168,382.372955 132.188828,393.965454 
	C131.231155,431.428864 129.919754,468.887848 129.440216,506.357483 
	C129.039490,537.669556 128.960724,568.990417 130.012619,600.313782 
	C131.057678,631.433533 132.177322,662.538269 134.024933,693.624939 
	C135.950012,726.015198 138.434189,758.343079 142.177277,790.576782 
	C145.480133,819.019287 149.581253,847.318970 157.273438,874.958801 
	C163.790863,898.377441 172.423157,920.898438 188.159485,939.898193 
	C195.725830,949.033691 203.861420,957.772461 216.412003,960.074463 
	C223.171051,961.314148 229.014862,958.226257 231.855270,951.883850 
	C233.925308,947.261658 234.592880,942.341553 234.714523,937.289551 
	C235.312546,912.452209 233.095551,887.682495 232.925339,862.872925 
	C232.553833,808.723145 232.044510,754.570129 233.635925,700.425415 
	C234.237869,679.945679 234.481384,659.455383 234.917877,638.970581 
	C234.953247,637.310913 235.218262,635.656189 235.505249,633.070129 
z"/>
</svg>