<svg version="1.1" id="Layer_1" xmlns="http://www.w3.org/2000/svg" xmlns:xlink="http://www.w3.org/1999/xlink" x="0px" y="0px"
	 width="100%" viewBox="0 0 432 1024" enable-background="new 0 0 432 1024" xml:space="preserve">
<path fill="#000000" opacity="1.000000" stroke="none" 
	d="
M202.456177,798.534790 
	C195.792099,802.038025 189.617142,805.746948 183.073303,808.613892 
	C168.415894,815.035461 154.508850,814.296997 142.344940,802.795776 
	C140.146286,800.716919 138.745407,800.367065 136.137543,802.499878 
	C127.168732,809.834900 116.792725,808.747498 109.106468,799.957825 
	C101.941902,791.764771 100.131523,781.562561 98.723732,771.275452 
	C96.431969,754.528809 97.309845,737.709778 97.734383,720.902527 
	C98.437538,693.064941 97.232903,665.303650 95.030190,637.544128 
	C92.720078,608.431213 93.706360,579.327759 96.451691,550.247070 
	C99.553078,517.394714 100.883972,484.521027 98.069878,451.510071 
	C96.105347,428.464874 94.862762,405.353607 92.738724,382.312256 
	C92.273354,377.263977 91.088181,372.774719 88.109245,368.408600 
	C77.382668,352.686951 71.660477,334.638092 65.384010,316.920563 
	C57.808472,295.536011 51.926266,273.746643 50.520031,250.903778 
	C49.221142,229.804535 54.385330,210.681061 66.562660,193.438873 
	C82.768578,170.492508 103.133011,152.540253 129.268631,141.637741 
	C141.532150,136.521988 153.418625,138.157135 164.842300,144.373566 
	C177.334808,151.171631 188.737457,159.542877 199.530289,168.769897 
	C201.049957,170.069107 202.539062,171.407516 204.105713,172.647705 
	C209.177094,176.662292 210.544601,176.696625 215.121506,172.134872 
	C227.547501,159.750000 240.618668,148.134415 255.588211,138.894058 
	C266.702881,132.033203 278.154419,125.967133 291.915649,126.622139 
	C299.032806,126.960907 305.928467,128.412155 312.161835,131.570221 
	C337.407043,144.360474 359.845276,160.812210 377.246918,183.468903 
	C387.074310,196.264099 392.237518,210.951935 393.103241,226.931213 
	C395.587128,272.780670 384.687866,315.656586 361.685089,355.085449 
	C355.373871,365.903442 350.677399,376.329071 348.514557,388.681396 
	C345.362701,406.681763 340.640656,424.385010 339.703094,442.774200 
	C339.278351,451.106079 339.246490,459.426208 339.240845,467.751099 
	C339.224457,491.903381 340.002899,516.080627 338.133118,540.187073 
	C334.380890,588.562317 323.787079,635.215210 302.319916,679.054504 
	C290.066132,704.078613 276.762329,728.461792 259.982086,750.819824 
	C244.672287,771.218811 224.916367,786.207397 202.456177,798.534790 
M255.091187,390.404724 
	C258.384888,390.838898 261.666504,391.477722 264.974304,391.672333 
	C280.439331,392.582245 295.082977,388.824219 309.219299,383.086792 
	C326.810394,375.947174 342.768829,366.343933 352.290894,349.083344 
	C372.979431,311.581238 384.020477,271.631561 381.782379,228.487274 
	C381.102631,215.383942 377.200775,203.316040 369.681030,192.519470 
	C357.145111,174.520920 340.072021,161.552917 321.896729,149.880356 
	C312.599731,143.909637 302.960632,138.612137 291.495361,138.207443 
	C278.928467,137.763870 268.758484,143.999939 258.809235,150.402496 
	C244.312378,159.731522 232.332413,172.143738 219.342743,183.328537 
	C211.328766,190.228989 206.029266,198.500809 203.046509,208.483078 
	C200.990799,215.362854 199.603760,222.348572 199.160614,229.529617 
	C199.051666,231.294952 198.922318,233.697647 196.659729,233.851746 
	C194.246704,234.016098 193.989349,231.604401 193.913666,229.843887 
	C193.649414,223.697830 193.354111,217.561966 194.271973,211.406662 
	C195.609863,202.434387 198.580887,194.025772 202.737854,185.818893 
	C193.754303,178.759659 185.081833,171.783493 176.227707,165.046051 
	C170.661362,160.810379 164.719620,157.108093 158.476715,153.900894 
	C149.059662,149.062973 139.627945,149.137878 130.100723,153.520065 
	C123.567162,156.525284 117.508606,160.334930 111.591805,164.381012 
	C94.532089,176.046906 80.647896,190.775818 70.574440,208.778000 
	C60.224308,227.274612 59.984856,247.182068 63.778244,267.505219 
	C68.816948,294.500183 78.039139,320.109955 88.623100,345.338623 
	C100.978714,374.790405 130.224640,393.377533 162.307907,391.657227 
	C168.346848,391.333405 173.998856,389.151215 179.803513,387.713776 
	C204.860748,381.508759 229.654343,383.274353 255.091187,390.404724 
M185.372284,562.019226 
	C187.176453,555.957031 188.770187,549.822266 190.831451,543.848816 
	C194.409271,533.480408 197.141357,522.705566 203.287811,513.432861 
	C208.069092,506.219666 214.007599,506.097748 219.567276,512.763428 
	C223.735413,517.760864 225.563599,523.875916 227.161224,530.002319 
	C230.910080,544.377930 232.567749,559.048767 233.517563,573.864929 
	C235.783630,609.213928 233.505692,644.025330 222.840027,678.048401 
	C217.511810,695.045227 211.033478,711.680725 206.675385,728.975525 
	C205.295883,734.450134 204.305267,740.047791 203.529907,745.643616 
	C202.404083,753.768799 206.108932,760.089783 213.727524,763.812866 
	C224.901382,769.273376 227.528381,768.918274 236.092087,760.338501 
	C239.619049,756.804932 243.126648,753.213257 246.278915,749.350830 
	C265.592377,725.686768 280.002045,699.039246 293.112976,671.634766 
	C315.375366,625.101746 325.601746,575.665771 327.523956,524.432495 
	C328.354370,502.299042 327.569489,480.108826 327.762115,457.946533 
	C327.941925,437.258362 330.099823,416.789368 335.262268,396.679474 
	C336.553650,391.649048 338.099579,386.589233 338.122101,381.200012 
	C337.471436,381.304291 337.098785,381.266663 336.842499,381.421539 
	C335.560669,382.196411 334.337677,383.070465 333.043152,383.822144 
	C305.022461,400.091827 275.809723,408.307556 243.233231,399.223175 
	C220.778214,392.961365 198.096863,393.885498 175.710159,400.611145 
	C170.270569,402.245361 164.703201,403.346680 158.998688,403.238159 
	C141.235229,402.900208 125.034225,397.322174 109.833763,388.420868 
	C108.320442,387.534668 107.094330,385.957672 104.936226,386.084198 
	C105.796700,399.252502 106.460564,412.355560 107.551010,425.423035 
	C109.267799,445.996490 110.782364,466.576416 111.244347,487.221161 
	C111.789528,511.584259 109.020576,535.768860 106.950829,559.969788 
	C104.244118,591.618408 105.068138,623.204285 107.605225,654.771606 
	C109.678070,680.562805 109.969879,706.373108 108.762497,732.170776 
	C108.112236,746.064636 108.936066,759.792175 110.602844,773.504822 
	C111.260841,778.918335 112.528358,784.332153 115.327522,789.195129 
	C119.983170,797.283447 126.144318,797.800720 131.785446,790.479553 
	C135.374619,785.821411 137.903198,780.573792 139.882996,775.053345 
	C144.718948,761.568848 148.967194,747.907043 152.687485,734.067993 
	C159.342926,709.310486 165.319046,684.420410 169.022675,659.017334 
	C170.754639,647.137817 170.556732,635.114197 172.108261,623.230164 
	C174.785370,602.724792 179.731171,582.710205 185.372284,562.019226 
M172.229279,703.585022 
	C165.194443,732.023438 158.553055,760.582886 146.980270,787.652466 
	C145.974747,790.004456 146.916840,791.369202 148.392517,792.908447 
	C156.653214,801.524353 166.560089,803.648499 178.035553,798.334290 
	C189.823105,792.875549 201.211960,786.590881 212.080261,779.427490 
	C212.970428,778.840820 214.326019,778.456421 214.007263,776.921570 
	C213.860657,776.762512 213.772049,776.596802 213.634857,776.528015 
	C212.148392,775.783203 210.668381,775.023193 209.159988,774.324829 
	C199.131851,769.681641 193.104095,762.243103 192.369247,750.883484 
	C192.054886,746.023987 192.441498,741.226257 193.254745,736.492249 
	C195.887451,721.166565 201.095795,706.545227 206.370834,692.015442 
	C224.451553,642.213135 227.320770,591.357422 217.626556,539.560669 
	C216.512772,533.609680 215.067322,527.665344 212.121719,521.912109 
	C209.916885,524.012634 209.291580,526.295044 208.463959,528.408386 
	C202.995850,542.371216 198.566986,556.677856 194.673248,571.147400 
	C189.092560,591.885742 183.688217,612.767761 182.545319,634.247498 
	C181.309616,657.471680 177.412781,680.170044 172.229279,703.585022 
z"/>
</svg>