<?xml version="1.0" standalone="no"?>
<!DOCTYPE svg PUBLIC "-//W3C//DTD SVG 20010904//EN"
 "http://www.w3.org/TR/2001/REC-SVG-20010904/DTD/svg10.dtd">
<svg version="1.0" xmlns="http://www.w3.org/2000/svg"
 width="1226.000000pt" height="864.000000pt" viewBox="0 0 1226.000000 864.000000"
 preserveAspectRatio="xMidYMid meet">

<g transform="translate(0.000000,864.000000) scale(0.100000,-0.100000)"
fill="#000000" stroke="none">
<path d="M860 7902 c0 -38 56 -708 76 -907 231 -2336 813 -3920 1819 -4954
356 -366 721 -635 1165 -860 844 -428 1834 -593 2815 -470 798 101 1551 403
2135 858 947 738 1588 1860 1989 3479 180 725 317 1669 381 2627 5 88 12 177
14 198 l4 37 -503 0 -503 0 -6 -27 c-2 -16 -8 -73 -11 -128 -19 -306 -85 -928
-140 -1310 -191 -1328 -542 -2404 -1038 -3180 -148 -231 -295 -413 -497 -616
-432 -434 -932 -716 -1538 -868 -289 -72 -494 -99 -822 -108 -585 -15 -1096
80 -1610 301 -775 333 -1389 924 -1823 1756 -471 902 -751 2133 -877 3850 -11
151 -20 287 -20 303 l0 27 -505 0 c-278 0 -505 -4 -505 -8z"/>
</g>
</svg>
