<?xml version="1.0" standalone="no"?>
<!DOCTYPE svg PUBLIC "-//W3C//DTD SVG 20010904//EN"
 "http://www.w3.org/TR/2001/REC-SVG-20010904/DTD/svg10.dtd">
<svg version="1.0" xmlns="http://www.w3.org/2000/svg"
 width="1226.000000pt" height="864.000000pt" viewBox="0 0 1226.000000 864.000000"
 preserveAspectRatio="xMidYMid meet">

<g transform="translate(0.000000,864.000000) scale(0.100000,-0.100000)"
fill="#000000" stroke="none">
<path d="M5845 7963 c-489 -30 -884 -104 -1310 -248 -1035 -347 -1860 -1015
-2444 -1978 -606 -999 -980 -2324 -1155 -4092 -20 -199 -76 -869 -76 -907 0
-4 227 -8 505 -8 l505 0 0 28 c0 15 9 151 20 302 181 2463 682 3957 1641 4896
313 306 662 539 1059 710 514 221 1025 316 1610 301 328 -9 533 -36 822 -108
606 -152 1106 -434 1538 -868 202 -203 349 -385 497 -616 496 -776 847 -1852
1038 -3180 55 -382 121 -1004 140 -1310 3 -55 9 -112 11 -127 l6 -28 503 0
503 0 -4 38 c-2 20 -9 109 -14 197 -147 2198 -604 3871 -1373 5025 -683 1024
-1643 1664 -2842 1894 -351 67 -841 100 -1180 79z"/>
</g>
</svg>
